AnekKannada-CondensedExtraBold.ufo
<glyph name="numbersign" format="2">
  <advance width="920"/>
  <unicode hex="0023"/>
  <outline>
    <contour>
      <point x="332" y="0" type="line"/>
      <point x="468" y="1278" type="line"/>
      <point x="229" y="1278" type="line"/>
      <point x="93" y="0" type="line"/>
    </contour>
    <contour>
      <point x="844" y="276" type="line"/>
      <point x="844" y="505" type="line"/>
      <point x="32" y="505" type="line"/>
      <point x="32" y="276" type="line"/>
    </contour>
    <contour>
      <point x="693" y="0" type="line"/>
      <point x="827" y="1278" type="line"/>
      <point x="588" y="1278" type="line"/>
      <point x="453" y="0" type="line"/>
    </contour>
    <contour>
      <point x="888" y="774" type="line"/>
      <point x="888" y="1002" type="line"/>
      <point x="78" y="1002" type="line"/>
      <point x="78" y="774" type="line"/>
    </contour>
  </outline>
</glyph>
<glyph name="dollar" format="2">
  <advance width="719"/>
  <unicode hex="0024"/>
  <outline>
    <component base="S"/>
    <contour>
      <point x="481" y="1434" type="line"/>
      <point x="215" y="1434" type="line"/>
      <point x="215" y="1134" type="line"/>
      <point x="481" y="1134" type="line"/>
    </contour>
    <contour>
      <point x="481" y="183" type="line"/>
      <point x="215" y="183" type="line"/>
      <point x="215" y="-165" type="line"/>
      <point x="481" y="-165" type="line"/>
    </contour>
  </outline>
</glyph>
<glyph name="three" format="2">
  <advance width="712"/>
  <unicode hex="0033"/>
  <outline>
    <contour>
      <point x="301" y="-20" type="curve" smooth="yes"/>
      <point x="560" y="-20"/>
      <point x="676" y="125"/>
      <point x="676" y="343" type="curve" smooth="yes"/>
      <point x="676" y="374" type="line" smooth="yes"/>
      <point x="676" y="544"/>
      <point x="609" y="634"/>
      <point x="441" y="656" type="curve"/>
      <point x="455" y="617" type="line"/>
      <point x="455" y="665" type="line"/>
      <point x="594" y="691"/>
      <point x="670" y="776"/>
      <point x="670" y="945" type="curve" smooth="yes"/>
      <point x="670" y="973" type="line" smooth="yes"/>
      <point x="670" y="1174"/>
      <point x="563" y="1298"/>
      <point x="328" y="1298" type="curve" smooth="yes"/>
      <point x="205" y="1298"/>
      <point x="117" y="1266"/>
      <point x="59" y="1233" type="curve"/>
      <point x="41" y="967" type="line"/>
      <point x="93" y="993"/>
      <point x="155" y="1018"/>
      <point x="235" y="1018" type="curve" smooth="yes"/>
      <point x="321" y="1018"/>
      <point x="354" y="977"/>
      <point x="354" y="904" type="curve" smooth="yes"/>
      <point x="354" y="896" type="line" smooth="yes"/>
      <point x="354" y="818"/>
      <point x="313" y="785"/>
      <point x="214" y="780" type="curve" smooth="yes"/>
      <point x="136" y="776" type="line"/>
      <point x="136" y="506" type="line"/>
      <point x="214" y="503" type="line" smooth="yes"/>
      <point x="318" y="499"/>
      <point x="354" y="465"/>
      <point x="354" y="387" type="curve" smooth="yes"/>
      <point x="354" y="377" type="line" smooth="yes"/>
      <point x="354" y="301"/>
      <point x="323" y="263"/>
      <point x="223" y="263" type="curve" smooth="yes"/>
      <point x="152" y="263"/>
      <point x="88" y="289"/>
      <point x="30" y="320" type="curve"/>
      <point x="48" y="42" type="line"/>
      <point x="101" y="9"/>
      <point x="199" y="-20"/>
    </contour>
  </outline>
</glyph>
<glyph name="five" format="2">
  <advance width="779"/>
  <unicode hex="0035"/>
  <outline>
    <contour>
      <point x="337" y="-18" type="curve" smooth="yes"/>
      <point x="625" y="-18"/>
      <point x="737" y="131"/>
      <point x="737" y="412" type="curve" smooth="yes"/>
      <point x="737" y="502" type="line" smooth="yes"/>
      <point x="737" y="722"/>
      <point x="685" y="846"/>
      <point x="540" y="846" type="curve" smooth="yes"/>
      <point x="428" y="846"/>
      <point x="378" y="786"/>
      <point x="359" y="673" type="curve"/>
      <point x="347" y="673" type="line"/>
      <point x="351" y="842" type="line"/>
      <point x="351" y="1000" type="line"/>
      <point x="691" y="1000" type="line"/>
      <point x="691" y="1278" type="line"/>
      <point x="63" y="1278" type="line"/>
      <point x="63" y="503" type="line"/>
      <point x="343" y="476" type="line"/>
      <point x="343" y="546"/>
      <point x="352" y="586"/>
      <point x="390" y="586" type="curve" smooth="yes"/>
      <point x="426" y="586"/>
      <point x="437" y="557"/>
      <point x="437" y="486" type="curve" smooth="yes"/>
      <point x="437" y="410" type="line" smooth="yes"/>
      <point x="437" y="307"/>
      <point x="397" y="265"/>
      <point x="283" y="265" type="curve" smooth="yes"/>
      <point x="196" y="265"/>
      <point x="118" y="294"/>
      <point x="57" y="326" type="curve"/>
      <point x="76" y="44" type="line"/>
      <point x="132" y="13"/>
      <point x="220" y="-18"/>
    </contour>
  </outline>
</glyph>
<glyph name="equal" format="2">
  <advance width="735"/>
  <unicode hex="003D"/>
  <outline>
    <contour>
      <point x="681" y="328" type="line"/>
      <point x="681" y="575" type="line"/>
      <point x="54" y="575" type="line"/>
      <point x="54" y="328" type="line"/>
    </contour>
    <contour>
      <point x="681" y="698" type="line"/>
      <point x="681" y="945" type="line"/>
      <point x="54" y="945" type="line"/>
      <point x="54" y="698" type="line"/>
    </contour>
  </outline>
</glyph>
<glyph name="greater" format="2">
  <advance width="733"/>
  <unicode hex="003E"/>
  <outline>
    <contour>
      <point x="485" y="629" type="line"/>
      <point x="55" y="564" type="line"/>
      <point x="55" y="309" type="line"/>
      <point x="680" y="438" type="line"/>
      <point x="680" y="837" type="line"/>
      <point x="55" y="966" type="line"/>
      <point x="55" y="711" type="line"/>
      <point x="485" y="645" type="line"/>
    </contour>
  </outline>
</glyph>
<glyph name="J" format="2">
  <advance width="570"/>
  <unicode hex="004A"/>
  <anchor x="285" y="0" name="bottom"/>
  <anchor x="341" y="1278" name="top"/>
  <outline>
    <contour>
      <point x="186" y="-17" type="curve" smooth="yes"/>
      <point x="419" y="-17"/>
      <point x="502" y="118"/>
      <point x="502" y="364" type="curve" smooth="yes"/>
      <point x="502" y="1278" type="line"/>
      <point x="182" y="1278" type="line"/>
      <point x="182" y="368" type="line" smooth="yes"/>
      <point x="182" y="302"/>
      <point x="164" y="261"/>
      <point x="98" y="261" type="curve" smooth="yes"/>
      <point x="72" y="261"/>
      <point x="48" y="267"/>
      <point x="22" y="278" type="curve"/>
      <point x="40" y="11" type="line"/>
      <point x="79" y="-6"/>
      <point x="131" y="-17"/>
    </contour>
  </outline>
</glyph>
<glyph name="X" format="2">
  <advance width="841"/>
  <unicode hex="0058"/>
  <anchor x="421" y="0" name="bottom"/>
  <anchor x="421" y="1278" name="top"/>
  <outline>
    <contour>
      <point x="317" y="0" type="line"/>
      <point x="413" y="490" type="line"/>
      <point x="428" y="490" type="line"/>
      <point x="524" y="0" type="line"/>
      <point x="825" y="0" type="line"/>
      <point x="645" y="709" type="line"/>
      <point x="645" y="627" type="line"/>
      <point x="818" y="1278" type="line"/>
      <point x="516" y="1278" type="line"/>
      <point x="428" y="827" type="line"/>
      <point x="413" y="827" type="line"/>
      <point x="325" y="1278" type="line"/>
      <point x="23" y="1278" type="line"/>
      <point x="194" y="627" type="line"/>
      <point x="194" y="709" type="line"/>
      <point x="16" y="0" type="line"/>
    </contour>
  </outline>
</glyph>
<glyph name="Y" format="2">
  <advance width="829"/>
  <unicode hex="0059"/>
  <anchor x="415" y="0" name="bottom"/>
  <anchor x="415" y="1278" name="top"/>
  <anchor x="20" y="1278" name="topleft"/>
  <outline>
    <contour>
      <point x="563" y="312" type="line"/>
      <point x="829" y="1278" type="line"/>
      <point x="512" y="1278" type="line"/>
      <point x="457" y="930" type="line"/>
      <point x="424" y="702" type="line"/>
      <point x="408" y="702" type="line"/>
      <point x="375" y="930" type="line"/>
      <point x="317" y="1278" type="line"/>
      <point x="0" y="1278" type="line"/>
      <point x="269" y="312" type="line"/>
    </contour>
    <contour>
      <point x="569" y="0" type="line"/>
      <point x="569" y="612" type="line"/>
      <point x="263" y="612" type="line"/>
      <point x="263" y="0" type="line"/>
    </contour>
  </outline>
</glyph>
<glyph name="f" format="2">
  <advance width="581"/>
  <unicode hex="0066"/>
  <anchor x="291" y="0" name="bottom"/>
  <anchor x="291" y="1334" name="top"/>
  <outline>
    <contour>
      <point x="341" y="1356" type="curve" smooth="yes"/>
      <point x="163" y="1356"/>
      <point x="73" y="1284"/>
      <point x="73" y="1159" type="curve" smooth="yes"/>
      <point x="73" y="1155" type="line" smooth="yes"/>
      <point x="73" y="1073"/>
      <point x="125" y="1017"/>
      <point x="195" y="994" type="curve"/>
      <point x="195" y="962" type="line"/>
      <point x="393" y="962" type="line"/>
      <point x="381" y="983"/>
      <point x="373" y="999"/>
      <point x="373" y="1027" type="curve"/>
      <point x="373" y="1029" type="line"/>
      <point x="373" y="1080"/>
      <point x="404" y="1106"/>
      <point x="471" y="1106" type="curve" smooth="yes"/>
      <point x="507" y="1106"/>
      <point x="539" y="1100"/>
      <point x="563" y="1093" type="curve"/>
      <point x="542" y="1320" type="line"/>
      <point x="497" y="1338"/>
      <point x="428" y="1356"/>
    </contour>
    <contour>
      <point x="404" y="0" type="line"/>
      <point x="404" y="902" type="line"/>
      <point x="99" y="902" type="line"/>
      <point x="99" y="0" type="line"/>
    </contour>
    <contour>
      <point x="546" y="736" type="line"/>
      <point x="565" y="986" type="line"/>
      <point x="357" y="986" type="line"/>
      <point x="239" y="984" type="line"/>
      <point x="14" y="986" type="line"/>
      <point x="14" y="736" type="line"/>
    </contour>
  </outline>
</glyph>
<glyph name="braceright" format="2">
  <advance width="575"/>
  <unicode hex="007D"/>
  <outline>
    <contour>
      <point x="32" y="1340" type="line"/>
      <point x="83" y="1352"/>
      <point x="127" y="1360"/>
      <point x="166" y="1360" type="curve" smooth="yes"/>
      <point x="363" y="1360"/>
      <point x="462" y="1268"/>
      <point x="462" y="1038" type="curve" smooth="yes"/>
      <point x="462" y="984"/>
      <point x="447" y="837"/>
      <point x="447" y="797" type="curve" smooth="yes"/>
      <point x="447" y="729"/>
      <point x="477" y="699"/>
      <point x="543" y="692" type="curve"/>
      <point x="543" y="423" type="line"/>
      <point x="477" y="416"/>
      <point x="447" y="386"/>
      <point x="447" y="318" type="curve" smooth="yes"/>
      <point x="447" y="278"/>
      <point x="462" y="131"/>
      <point x="462" y="75" type="curve" smooth="yes"/>
      <point x="462" y="-155"/>
      <point x="363" y="-247"/>
      <point x="166" y="-247" type="curve" smooth="yes"/>
      <point x="127" y="-247"/>
      <point x="85" y="-239"/>
      <point x="32" y="-226" type="curve"/>
      <point x="32" y="2" type="line"/>
      <point x="44" y="-2"/>
      <point x="59" y="-4"/>
      <point x="74" y="-4" type="curve" smooth="yes"/>
      <point x="138" y="-4"/>
      <point x="160" y="29"/>
      <point x="160" y="101" type="curve" smooth="yes"/>
      <point x="160" y="132"/>
      <point x="146" y="276"/>
      <point x="146" y="313" type="curve" smooth="yes"/>
      <point x="146" y="450"/>
      <point x="181" y="538"/>
      <point x="351" y="558" type="curve"/>
      <point x="315" y="540" type="line"/>
      <point x="315" y="563" type="line"/>
      <point x="186" y="587"/>
      <point x="146" y="664"/>
      <point x="146" y="800" type="curve" smooth="yes"/>
      <point x="146" y="837"/>
      <point x="160" y="981"/>
      <point x="160" y="1012" type="curve" smooth="yes"/>
      <point x="160" y="1084"/>
      <point x="138" y="1117"/>
      <point x="74" y="1117" type="curve" smooth="yes"/>
      <point x="59" y="1117"/>
      <point x="44" y="1115"/>
      <point x="32" y="1111" type="curve"/>
    </contour>
  </outline>
</glyph>
<glyph name="cent" format="2">
  <advance width="641"/>
  <unicode hex="00A2"/>
  <outline>
    <component base="c"/>
    <contour>
      <point x="501" y="1155" type="line"/>
      <point x="235" y="1155" type="line"/>
      <point x="235" y="855" type="line"/>
      <point x="501" y="855" type="line"/>
    </contour>
    <contour>
      <point x="501" y="183" type="line"/>
      <point x="235" y="183" type="line"/>
      <point x="235" y="-165" type="line"/>
      <point x="501" y="-165" type="line"/>
    </contour>
  </outline>
</glyph>
<glyph name="yen" format="2">
  <advance width="829"/>
  <unicode hex="00A5"/>
  <outline>
    <component base="Y"/>
    <contour>
      <point x="758" y="498" type="line"/>
      <point x="769" y="689" type="line"/>
      <point x="508" y="689" type="line"/>
      <point x="466" y="498" type="line"/>
    </contour>
    <contour>
      <point x="65" y="217" type="line"/>
      <point x="758" y="217" type="line"/>
      <point x="769" y="399" type="line"/>
      <point x="76" y="399" type="line"/>
    </contour>
    <contour>
      <point x="76" y="689" type="line"/>
      <point x="65" y="498" type="line"/>
      <point x="339" y="498" type="line"/>
      <point x="294" y="689" type="line"/>
    </contour>
  </outline>
</glyph>
<glyph name="paragraph" format="2">
  <advance width="702"/>
  <unicode hex="00B6"/>
  <outline>
    <contour>
      <point x="426" y="634" type="line"/>
      <point x="426" y="1278" type="line"/>
      <point x="311" y="1278" type="line" smooth="yes"/>
      <point x="121" y="1278"/>
      <point x="42" y="1185"/>
      <point x="42" y="1005" type="curve" smooth="yes"/>
      <point x="42" y="906" type="line" smooth="yes"/>
      <point x="42" y="719"/>
      <point x="121" y="634"/>
      <point x="309" y="634" type="curve"/>
    </contour>
    <contour>
      <point x="628" y="1278" type="line"/>
      <point x="321" y="1278" type="line"/>
      <point x="319" y="0" type="line"/>
      <point x="628" y="0" type="line"/>
    </contour>
  </outline>
</glyph>
<glyph name="guillemetright" format="2">
  <advance width="802"/>
  <unicode hex="00BB"/>
  <outline>
    <contour>
      <point x="10" y="916" type="line"/>
      <point x="281" y="916" type="line"/>
      <point x="425" y="532" type="line"/>
      <point x="425" y="473" type="line"/>
      <point x="281" y="89" type="line"/>
      <point x="10" y="89" type="line"/>
      <point x="160" y="502" type="line"/>
    </contour>
    <contour>
      <point x="367" y="916" type="line"/>
      <point x="638" y="916" type="line"/>
      <point x="782" y="532" type="line"/>
      <point x="782" y="473" type="line"/>
      <point x="638" y="89" type="line"/>
      <point x="367" y="89" type="line"/>
      <point x="517" y="502" type="line"/>
    </contour>
  </outline>
</glyph>
<glyph name="AE" format="2">
  <advance width="1192"/>
  <unicode hex="00C6"/>
  <anchor x="596" y="0" name="bottom"/>
  <anchor x="596" y="1278" name="top"/>
  <outline>
    <contour>
      <point x="324" y="0" type="line"/>
      <point x="504" y="1052" type="line"/>
      <point x="575" y="1052" type="line"/>
      <point x="575" y="1278" type="line"/>
      <point x="269" y="1278" type="line"/>
      <point x="14" y="0" type="line"/>
    </contour>
    <contour>
      <point x="607" y="283" type="line"/>
      <point x="607" y="522" type="line"/>
      <point x="244" y="522" type="line"/>
      <point x="244" y="283" type="line"/>
    </contour>
    <contour>
      <point x="1140" y="0" type="line"/>
      <point x="1140" y="280" type="line"/>
      <point x="745" y="280" type="line"/>
      <point x="745" y="0" type="line"/>
    </contour>
    <contour>
      <point x="844" y="0" type="line"/>
      <point x="844" y="1278" type="line"/>
      <point x="535" y="1278" type="line"/>
      <point x="535" y="0" type="line"/>
    </contour>
    <contour>
      <point x="1129" y="514" type="line"/>
      <point x="1129" y="783" type="line"/>
      <point x="745" y="783" type="line"/>
      <point x="745" y="514" type="line"/>
    </contour>
    <contour>
      <point x="1140" y="1002" type="line"/>
      <point x="1140" y="1278" type="line"/>
      <point x="745" y="1278" type="line"/>
      <point x="745" y="1002" type="line"/>
    </contour>
  </outline>
</glyph>
<glyph name="germandbls" format="2">
  <advance width="987"/>
  <unicode hex="00DF"/>
  <anchor x="475" y="0" name="bottom"/>
  <anchor x="475" y="1006" name="top"/>
  <outline>
    <contour>
      <point x="66" y="0" type="line"/>
      <point x="366" y="0" type="line"/>
      <point x="366" y="1009" type="line"/>
      <point x="366" y="1073"/>
      <point x="396" y="1106"/>
      <point x="455" y="1106" type="curve" smooth="yes"/>
      <point x="509" y="1106"/>
      <point x="540" y="1085"/>
      <point x="540" y="1032" type="curve"/>
      <point x="540" y="950"/>
      <point x="412" y="877"/>
      <point x="412" y="723" type="curve" smooth="yes"/>
      <point x="412" y="715" type="line" smooth="yes"/>
      <point x="412" y="590"/>
      <point x="450" y="544"/>
      <point x="550" y="461" type="curve" smooth="yes"/>
      <point x="634" y="392"/>
      <point x="653" y="369"/>
      <point x="653" y="324" type="curve" smooth="yes"/>
      <point x="653" y="320" type="line" smooth="yes"/>
      <point x="653" y="283"/>
      <point x="633" y="252"/>
      <point x="572" y="252" type="curve" smooth="yes"/>
      <point x="518" y="252"/>
      <point x="465" y="273"/>
      <point x="420" y="295" type="curve"/>
      <point x="438" y="24" type="line"/>
      <point x="485" y="4"/>
      <point x="539" y="-15"/>
      <point x="642" y="-15" type="curve" smooth="yes"/>
      <point x="838" y="-15"/>
      <point x="957" y="94"/>
      <point x="957" y="289" type="curve" smooth="yes"/>
      <point x="957" y="305" type="line" smooth="yes"/>
      <point x="957" y="458"/>
      <point x="905" y="518"/>
      <point x="815" y="596" type="curve" smooth="yes"/>
      <point x="755" y="648"/>
      <point x="714" y="681"/>
      <point x="714" y="733" type="curve" smooth="yes"/>
      <point x="714" y="743" type="line" smooth="yes"/>
      <point x="714" y="832"/>
      <point x="849" y="900"/>
      <point x="849" y="1062" type="curve"/>
      <point x="849" y="1254"/>
      <point x="714" y="1356"/>
      <point x="461" y="1356" type="curve" smooth="yes"/>
      <point x="184" y="1356"/>
      <point x="66" y="1247"/>
      <point x="66" y="1029" type="curve"/>
    </contour>
  </outline>
</glyph>
<glyph name="divide" format="2">
  <advance width="733"/>
  <unicode hex="00F7"/>
  <outline>
    <component base="period" xScale="0.7" yScale="0.7" xOffset="226" yOffset="229"/>
    <component base="period" xScale="0.7" yScale="0.7" xOffset="226" yOffset="816"/>
    <contour>
      <point x="680" y="508" type="line"/>
      <point x="680" y="765" type="line"/>
      <point x="53" y="765" type="line"/>
      <point x="53" y="508" type="line"/>
    </contour>
  </outline>
</glyph>
<glyph name="Candrabindu_Spacing.ka" format="2">
  <advance width="1040"/>
  <unicode hex="0C80"/>
  <unicode hex="0D04"/>
  <outline>
    <contour>
      <point x="520" y="916" type="curve" smooth="yes"/>
      <point x="609" y="916"/>
      <point x="647" y="858"/>
      <point x="647" y="757" type="curve" smooth="yes"/>
      <point x="647" y="617" type="line" smooth="yes"/>
      <point x="647" y="518"/>
      <point x="609" y="459"/>
      <point x="520" y="459" type="curve" smooth="yes"/>
      <point x="432" y="459"/>
      <point x="394" y="518"/>
      <point x="394" y="617" type="curve" smooth="yes"/>
      <point x="394" y="757" type="line" smooth="yes"/>
      <point x="394" y="858"/>
      <point x="432" y="916"/>
    </contour>
    <contour>
      <point x="520" y="91" type="curve" smooth="yes"/>
      <point x="829" y="91"/>
      <point x="984" y="253.56"/>
      <point x="984" y="571" type="curve" smooth="yes"/>
      <point x="984" y="652.9"/>
      <point x="978.75" y="706.1"/>
      <point x="963" y="781" type="curve"/>
      <point x="734" y="781" type="line"/>
      <point x="734" y="623" type="line" smooth="yes"/>
      <point x="734" y="426"/>
      <point x="669" y="336"/>
      <point x="520" y="336" type="curve" smooth="yes"/>
      <point x="371" y="336"/>
      <point x="307" y="426"/>
      <point x="307" y="623" type="curve" smooth="yes"/>
      <point x="307" y="781" type="line"/>
      <point x="77" y="781" type="line"/>
      <point x="61.25" y="706.1"/>
      <point x="56" y="652.9"/>
      <point x="56" y="571" type="curve" smooth="yes"/>
      <point x="56" y="253.56"/>
      <point x="211" y="91"/>
    </contour>
  </outline>
</glyph>
<glyph name="Anuswara.kn" format="2">
  <advance width="860"/>
  <unicode hex="0C82"/>
  <outline>
    <contour>
      <point x="60" y="434" type="line" smooth="yes"/>
      <point x="60" y="164"/>
      <point x="180" y="41"/>
      <point x="430" y="41" type="curve" smooth="yes"/>
      <point x="680" y="41"/>
      <point x="800" y="164"/>
      <point x="800" y="434" type="curve" smooth="yes"/>
      <point x="800" y="723" type="line" smooth="yes"/>
      <point x="800" y="993"/>
      <point x="680" y="1116"/>
      <point x="430" y="1116" type="curve" smooth="yes"/>
      <point x="180" y="1116"/>
      <point x="60" y="993"/>
      <point x="60" y="723" type="curve" smooth="yes"/>
    </contour>
    <contour>
      <point x="430" y="309" type="curve" smooth="yes"/>
      <point x="376" y="309"/>
      <point x="360" y="344"/>
      <point x="360" y="433" type="curve" smooth="yes"/>
      <point x="360" y="724" type="line" smooth="yes"/>
      <point x="360" y="813"/>
      <point x="376" y="848"/>
      <point x="430" y="848" type="curve" smooth="yes"/>
      <point x="484" y="848"/>
      <point x="500" y="813"/>
      <point x="500" y="724" type="curve" smooth="yes"/>
      <point x="500" y="433" type="line" smooth="yes"/>
      <point x="500" y="344"/>
      <point x="484" y="309"/>
    </contour>
  </outline>
</glyph>
<glyph name="vowelAa.kn" format="2">
  <advance width="1470"/>
  <unicode hex="0C86"/>
  <outline>
    <contour>
      <point x="990" y="440" type="line" smooth="yes"/>
      <point x="1059" y="440"/>
      <point x="1085" y="413"/>
      <point x="1085" y="374" type="curve" smooth="yes"/>
      <point x="1085" y="371" type="line" smooth="yes"/>
      <point x="1085" y="298"/>
      <point x="984" y="256"/>
      <point x="785" y="256" type="curve" smooth="yes"/>
      <point x="497" y="256"/>
      <point x="347" y="369"/>
      <point x="347" y="586" type="curve" smooth="yes"/>
      <point x="347" y="670" type="line"/>
      <point x="50" y="674" type="line"/>
      <point x="50" y="588" type="line" smooth="yes"/>
      <point x="50" y="184"/>
      <point x="301" y="-27"/>
      <point x="785" y="-27" type="curve" smooth="yes"/>
      <point x="1189" y="-27"/>
      <point x="1395" y="102"/>
      <point x="1395" y="333" type="curve" smooth="yes"/>
      <point x="1395" y="343" type="line" smooth="yes"/>
      <point x="1395" y="453"/>
      <point x="1341" y="528"/>
      <point x="1249" y="544" type="curve"/>
      <point x="1249" y="551" type="line"/>
      <point x="1376" y="572"/>
      <point x="1440" y="662"/>
      <point x="1440" y="822" type="curve" smooth="yes"/>
      <point x="1440" y="890" type="line" smooth="yes"/>
      <point x="1440" y="1129"/>
      <point x="1323" y="1244"/>
      <point x="1099" y="1244" type="curve" smooth="yes"/>
      <point x="879" y="1244"/>
      <point x="767" y="1143"/>
      <point x="767" y="943" type="curve" smooth="yes"/>
      <point x="767" y="902" type="line" smooth="yes"/>
      <point x="767" y="771"/>
      <point x="817" y="703"/>
      <point x="918" y="692" type="curve"/>
      <point x="918" y="684" type="line"/>
      <point x="680" y="684" type="line"/>
      <point x="680" y="440" type="line"/>
    </contour>
    <contour>
      <point x="1148" y="772" type="line" smooth="yes"/>
      <point x="1148" y="710"/>
      <point x="1134" y="684"/>
      <point x="1101" y="684" type="curve" smooth="yes"/>
      <point x="1065" y="684"/>
      <point x="1050" y="710"/>
      <point x="1050" y="772" type="curve" smooth="yes"/>
      <point x="1050" y="891" type="line" smooth="yes"/>
      <point x="1050" y="953"/>
      <point x="1064" y="979"/>
      <point x="1097" y="979" type="curve" smooth="yes"/>
      <point x="1133" y="979"/>
      <point x="1148" y="953"/>
      <point x="1148" y="891" type="curve" smooth="yes"/>
    </contour>
    <contour>
      <point x="393" y="1244" type="curve" smooth="yes"/>
      <point x="166" y="1244"/>
      <point x="50" y="1119"/>
      <point x="50" y="861" type="curve" smooth="yes"/>
      <point x="50" y="668" type="line"/>
      <point x="343" y="665" type="line"/>
      <point x="343" y="900" type="line" smooth="yes"/>
      <point x="343" y="960"/>
      <point x="357" y="984"/>
      <point x="391" y="984" type="curve" smooth="yes"/>
      <point x="425" y="984"/>
      <point x="439" y="960"/>
      <point x="439" y="900" type="curve" smooth="yes"/>
      <point x="439" y="763" type="line" smooth="yes"/>
      <point x="439" y="720"/>
      <point x="424" y="699"/>
      <point x="393" y="699" type="curve" smooth="yes"/>
      <point x="352" y="699"/>
      <point x="326" y="732"/>
      <point x="318" y="797" type="curve"/>
      <point x="310" y="605" type="line"/>
      <point x="356" y="605" type="line"/>
      <point x="376" y="522"/>
      <point x="435" y="479"/>
      <point x="522" y="479" type="curve" smooth="yes"/>
      <point x="655" y="479"/>
      <point x="720" y="572"/>
      <point x="720" y="757" type="curve" smooth="yes"/>
      <point x="720" y="894" type="line" smooth="yes"/>
      <point x="720" y="1126"/>
      <point x="612" y="1244"/>
    </contour>
  </outline>
  <guideline angle="90" x="2630" y="0"/>
  <guideline angle="0" x="0" y="1780"/>
  <guideline angle="0" x="0" y="1326"/>
</glyph>
<glyph name="vowelI.kn" format="2">
  <advance width="1154"/>
  <unicode hex="0C87"/>
  <outline>
    <contour>
      <point x="1129" y="-174" type="line"/>
      <point x="1070" y="68"/>
      <point x="982" y="302"/>
      <point x="908" y="413" type="curve"/>
      <point x="791" y="126" type="line"/>
      <point x="791" y="17"/>
      <point x="791" y="-77"/>
      <point x="791" y="-174" type="curve"/>
    </contour>
    <contour>
      <point x="1092" y="677" type="curve" smooth="yes"/>
      <point x="1092" y="884" type="line" smooth="yes"/>
      <point x="1092" y="1129"/>
      <point x="997" y="1244"/>
      <point x="796" y="1244" type="curve" smooth="yes"/>
      <point x="652" y="1244"/>
      <point x="568" y="1177"/>
      <point x="551" y="1050" type="curve"/>
      <point x="543" y="1050" type="line"/>
      <point x="526" y="1177"/>
      <point x="442" y="1244"/>
      <point x="298" y="1244" type="curve" smooth="yes"/>
      <point x="108" y="1244"/>
      <point x="17" y="1138"/>
      <point x="17" y="914" type="curve" smooth="yes"/>
      <point x="17" y="880" type="line" smooth="yes"/>
      <point x="17" y="812"/>
      <point x="27" y="750"/>
      <point x="48" y="708" type="curve"/>
      <point x="330" y="708" type="line"/>
      <point x="321" y="740"/>
      <point x="312" y="790"/>
      <point x="312" y="851" type="curve" smooth="yes"/>
      <point x="312" y="884" type="line" smooth="yes"/>
      <point x="312" y="931"/>
      <point x="326" y="953"/>
      <point x="357" y="953" type="curve" smooth="yes"/>
      <point x="385" y="953"/>
      <point x="401" y="933"/>
      <point x="403" y="889" type="curve" smooth="yes"/>
      <point x="411" y="721" type="line"/>
      <point x="683" y="721" type="line"/>
      <point x="691" y="889" type="line" smooth="yes"/>
      <point x="693" y="933"/>
      <point x="709" y="953"/>
      <point x="737" y="953" type="curve" smooth="yes"/>
      <point x="768" y="953"/>
      <point x="782" y="931"/>
      <point x="782" y="884" type="curve" smooth="yes"/>
      <point x="782" y="689" type="line" smooth="yes"/>
      <point x="782" y="610"/>
      <point x="778" y="531"/>
      <point x="768" y="461" type="curve"/>
      <point x="750" y="411" type="line"/>
      <point x="719" y="303"/>
      <point x="655" y="238"/>
      <point x="537" y="238" type="curve" smooth="yes"/>
      <point x="458" y="238"/>
      <point x="417" y="269"/>
      <point x="417" y="327" type="curve" smooth="yes"/>
      <point x="417" y="332" type="line" smooth="yes"/>
      <point x="417" y="389"/>
      <point x="458" y="420"/>
      <point x="534" y="420" type="curve" smooth="yes"/>
      <point x="641" y="420"/>
      <point x="712" y="360"/>
      <point x="741" y="246" type="curve"/>
      <point x="858" y="318" type="line"/>
      <point x="833" y="557"/>
      <point x="711" y="667"/>
      <point x="489" y="667" type="curve" smooth="yes"/>
      <point x="250" y="667"/>
      <point x="120" y="548"/>
      <point x="120" y="331" type="curve" smooth="yes"/>
      <point x="120" y="323" type="line" smooth="yes"/>
      <point x="120" y="98"/>
      <point x="261" y="-24"/>
      <point x="523" y="-24" type="curve" smooth="yes"/>
      <point x="680" y="-24"/>
      <point x="801" y="24"/>
      <point x="885" y="119" type="curve"/>
      <point x="968" y="188" type="line"/>
      <point x="1063" y="316"/>
      <point x="1092" y="488"/>
    </contour>
  </outline>
</glyph>
<glyph name="vowelII.kn" format="2">
  <advance width="1485"/>
  <unicode hex="0C88"/>
  <outline>
    <contour>
      <point x="323" y="980" type="line"/>
      <point x="323" y="948" type="line"/>
      <point x="198" y="921"/>
      <point x="140" y="822"/>
      <point x="140" y="614" type="curve" smooth="yes"/>
      <point x="140" y="435" type="line" smooth="yes"/>
      <point x="140" y="119"/>
      <point x="282" y="-34"/>
      <point x="576" y="-34" type="curve" smooth="yes"/>
      <point x="870" y="-34"/>
      <point x="1012" y="119"/>
      <point x="1012" y="435" type="curve" smooth="yes"/>
      <point x="1012" y="614" type="line" smooth="yes"/>
      <point x="1012" y="822"/>
      <point x="954" y="921"/>
      <point x="829" y="948" type="curve"/>
      <point x="829" y="980" type="line"/>
    </contour>
    <contour>
      <point x="576" y="249" type="curve" smooth="yes"/>
      <point x="485" y="249"/>
      <point x="446" y="311"/>
      <point x="446" y="442" type="curve" smooth="yes"/>
      <point x="446" y="762" type="line" smooth="yes"/>
      <point x="446" y="893"/>
      <point x="485" y="955"/>
      <point x="576" y="955" type="curve" smooth="yes"/>
      <point x="667" y="955"/>
      <point x="706" y="893"/>
      <point x="706" y="762" type="curve" smooth="yes"/>
      <point x="706" y="442" type="line" smooth="yes"/>
      <point x="706" y="311"/>
      <point x="667" y="249"/>
    </contour>
    <contour>
      <point x="769" y="955" type="line"/>
      <point x="769" y="1207" type="line"/>
      <point x="116" y="1207" type="line"/>
      <point x="116" y="955" type="line"/>
    </contour>
    <contour>
      <point x="1150" y="352" type="line" smooth="yes"/>
      <point x="1150" y="279"/>
      <point x="1128" y="248"/>
      <point x="1081" y="248" type="curve" smooth="yes"/>
      <point x="1070" y="248"/>
      <point x="1053" y="249"/>
      <point x="1043" y="252" type="curve"/>
      <point x="1070" y="-6" type="line"/>
      <point x="1124" y="-16"/>
      <point x="1161" y="-17"/>
      <point x="1186" y="-17" type="curve" smooth="yes"/>
      <point x="1364" y="-17"/>
      <point x="1450" y="76"/>
      <point x="1450" y="267" type="curve" smooth="yes"/>
      <point x="1450" y="302" type="line" smooth="yes"/>
      <point x="1450" y="425"/>
      <point x="1396" y="506"/>
      <point x="1289" y="526" type="curve"/>
      <point x="1289" y="551" type="line"/>
      <point x="1070" y="551" type="line"/>
      <point x="1070" y="474" type="line"/>
      <point x="1094" y="474" type="line" smooth="yes"/>
      <point x="1133.5" y="474"/>
      <point x="1150" y="451.988"/>
      <point x="1150" y="387" type="curve" smooth="yes"/>
    </contour>
    <contour>
      <point x="1197" y="533" type="line"/>
      <point x="1289" y="533" type="line" smooth="yes"/>
      <point x="1389" y="533"/>
      <point x="1440" y="592"/>
      <point x="1440" y="708" type="curve" smooth="yes"/>
      <point x="1440" y="788"/>
      <point x="1416" y="898"/>
      <point x="1373" y="991" type="curve"/>
      <point x="1150" y="991" type="line"/>
      <point x="1150" y="734" type="line"/>
      <point x="827" y="734" type="line"/>
      <point x="767" y="732" type="line"/>
      <point x="293" y="732" type="line"/>
      <point x="259" y="738" type="line"/>
      <point x="24" y="738" type="line"/>
      <point x="24" y="470" type="line"/>
      <point x="259" y="470" type="line"/>
      <point x="293" y="481" type="line"/>
      <point x="767" y="481" type="line"/>
      <point x="827" y="474" type="line"/>
      <point x="1171" y="474" type="line"/>
    </contour>
    <contour>
      <point x="771" y="1514" type="line"/>
      <point x="780.286" y="1441"/>
      <point x="784" y="1379"/>
      <point x="784" y="1303" type="curve" smooth="yes"/>
      <point x="784" y="1234"/>
      <point x="767" y="1207"/>
      <point x="712" y="1207" type="curve" smooth="yes"/>
      <point x="694" y="1207" type="line"/>
      <point x="750" y="955" type="line"/>
      <point x="855" y="955" type="line" smooth="yes"/>
      <point x="1000" y="955"/>
      <point x="1070" y="1040"/>
      <point x="1070" y="1221" type="curve" smooth="yes"/>
      <point x="1070" y="1315"/>
      <point x="1048.1" y="1418"/>
      <point x="1001" y="1514" type="curve"/>
    </contour>
  </outline>
</glyph>
<glyph name="vowelU.kn" format="2">
  <advance width="2094"/>
  <unicode hex="0C89"/>
  <outline>
    <contour>
      <point x="406" y="1244" type="curve" smooth="yes"/>
      <point x="626" y="1244"/>
      <point x="737" y="1126"/>
      <point x="737" y="894" type="curve" smooth="yes"/>
      <point x="737" y="756" type="line" smooth="yes"/>
      <point x="737" y="572"/>
      <point x="669" y="479"/>
      <point x="535" y="479" type="curve" smooth="yes"/>
      <point x="448" y="479"/>
      <point x="389" y="522"/>
      <point x="369" y="605" type="curve"/>
      <point x="323" y="605" type="line"/>
      <point x="330" y="797" type="line"/>
      <point x="338" y="732"/>
      <point x="364" y="699"/>
      <point x="406" y="699" type="curve" smooth="yes"/>
      <point x="438" y="699"/>
      <point x="453" y="720"/>
      <point x="453" y="763" type="curve" smooth="yes"/>
      <point x="453" y="899" type="line" smooth="yes"/>
      <point x="453" y="959"/>
      <point x="439" y="984"/>
      <point x="404" y="984" type="curve" smooth="yes"/>
      <point x="369" y="984"/>
      <point x="355" y="959"/>
      <point x="355" y="899" type="curve" smooth="yes"/>
      <point x="355" y="669" type="line"/>
      <point x="60" y="656.961" type="line"/>
      <point x="60" y="861" type="line" smooth="yes"/>
      <point x="60" y="1119"/>
      <point x="179" y="1244"/>
    </contour>
    <contour>
      <point x="361" y="541" type="line" smooth="yes"/>
      <point x="361" y="353"/>
      <point x="439" y="263"/>
      <point x="597" y="263" type="curve" smooth="yes"/>
      <point x="738" y="263"/>
      <point x="810" y="357"/>
      <point x="810" y="542" type="curve" smooth="yes"/>
      <point x="810" y="876" type="line" smooth="yes"/>
      <point x="810" y="1118"/>
      <point x="930" y="1242"/>
      <point x="1164" y="1242" type="curve" smooth="yes"/>
      <point x="1399" y="1242"/>
      <point x="1517" y="1118"/>
      <point x="1517" y="876" type="curve" smooth="yes"/>
      <point x="1517" y="598" type="line"/>
      <point x="1216" y="598" type="line"/>
      <point x="1216" y="891" type="line" smooth="yes"/>
      <point x="1216" y="952"/>
      <point x="1202" y="977"/>
      <point x="1164" y="977" type="curve" smooth="yes"/>
      <point x="1125" y="977"/>
      <point x="1111" y="953"/>
      <point x="1111" y="891" type="curve" smooth="yes"/>
      <point x="1111" y="524" type="line" smooth="yes"/>
      <point x="1111" y="155"/>
      <point x="941" y="-27"/>
      <point x="597" y="-27" type="curve" smooth="yes"/>
      <point x="236" y="-27"/>
      <point x="60" y="158"/>
      <point x="60" y="540" type="curve" smooth="yes"/>
      <point x="60" y="670.961" type="line"/>
      <point x="361" y="682.606" type="line"/>
    </contour>
    <contour>
      <point x="2027" y="420" type="line" smooth="yes"/>
      <point x="2027" y="119.656"/>
      <point x="1894.35" y="-27"/>
      <point x="1619" y="-27" type="curve" smooth="yes"/>
      <point x="1350.67" y="-27"/>
      <point x="1216" y="115.659"/>
      <point x="1216" y="406" type="curve" smooth="yes"/>
      <point x="1216" y="655" type="line"/>
      <point x="1517" y="655" type="line"/>
      <point x="1517" y="412" type="line" smooth="yes"/>
      <point x="1517" y="303.619"/>
      <point x="1544.56" y="255"/>
      <point x="1616" y="255" type="curve" smooth="yes"/>
      <point x="1687.41" y="255"/>
      <point x="1717" y="303.619"/>
      <point x="1717" y="412" type="curve" smooth="yes"/>
      <point x="1717" y="833" type="line" smooth="yes"/>
      <point x="1717" y="909.106"/>
      <point x="1693.14" y="931"/>
      <point x="1653" y="931" type="curve" smooth="yes"/>
      <point x="1645" y="931"/>
      <point x="1637" y="930"/>
      <point x="1631" y="929" type="curve"/>
      <point x="1631" y="1217" type="line"/>
      <point x="1655" y="1220"/>
      <point x="1685" y="1222"/>
      <point x="1719" y="1222" type="curve" smooth="yes"/>
      <point x="1930.43" y="1222"/>
      <point x="2027" y="1099.74"/>
      <point x="2027" y="835" type="curve" smooth="yes"/>
    </contour>
  </outline>
</glyph>
<glyph name="vowelUu.kn" format="2">
  <advance width="2744"/>
  <unicode hex="0C8A"/>
  <outline>
    <contour>
      <point x="1918" y="589" type="line"/>
      <point x="1918" y="337" type="line" smooth="yes"/>
      <point x="1918" y="96"/>
      <point x="1801" y="-27"/>
      <point x="1567" y="-27" type="curve" smooth="yes"/>
      <point x="1335" y="-27"/>
      <point x="1216" y="96"/>
      <point x="1216" y="337" type="curve" smooth="yes"/>
      <point x="1216" y="627" type="line"/>
      <point x="1517" y="607" type="line"/>
      <point x="1517" y="322" type="line" smooth="yes"/>
      <point x="1517" y="261"/>
      <point x="1530" y="238"/>
      <point x="1567" y="238" type="curve" smooth="yes"/>
      <point x="1604" y="238"/>
      <point x="1617" y="262"/>
      <point x="1617" y="322" type="curve" smooth="yes"/>
      <point x="1617" y="589" type="line"/>
    </contour>
    <contour>
      <point x="406" y="1244" type="curve" smooth="yes"/>
      <point x="626" y="1244"/>
      <point x="737" y="1126"/>
      <point x="737" y="894" type="curve" smooth="yes"/>
      <point x="737" y="756" type="line" smooth="yes"/>
      <point x="737" y="572"/>
      <point x="669" y="479"/>
      <point x="535" y="479" type="curve" smooth="yes"/>
      <point x="448" y="479"/>
      <point x="389" y="522"/>
      <point x="369" y="605" type="curve"/>
      <point x="323" y="605" type="line"/>
      <point x="330" y="797" type="line"/>
      <point x="338" y="732"/>
      <point x="364" y="699"/>
      <point x="406" y="699" type="curve" smooth="yes"/>
      <point x="438" y="699"/>
      <point x="453" y="720"/>
      <point x="453" y="763" type="curve" smooth="yes"/>
      <point x="453" y="899" type="line" smooth="yes"/>
      <point x="453" y="959"/>
      <point x="439" y="984"/>
      <point x="404" y="984" type="curve" smooth="yes"/>
      <point x="369" y="984"/>
      <point x="355" y="959"/>
      <point x="355" y="899" type="curve" smooth="yes"/>
      <point x="355" y="669" type="line"/>
      <point x="60" y="656.961" type="line"/>
      <point x="60" y="861" type="line" smooth="yes"/>
      <point x="60" y="1119"/>
      <point x="179" y="1244"/>
    </contour>
    <contour>
      <point x="361" y="541" type="line" smooth="yes"/>
      <point x="361" y="353"/>
      <point x="439" y="263"/>
      <point x="597" y="263" type="curve" smooth="yes"/>
      <point x="738" y="263"/>
      <point x="810" y="357"/>
      <point x="810" y="542" type="curve" smooth="yes"/>
      <point x="810" y="876" type="line" smooth="yes"/>
      <point x="810" y="1118"/>
      <point x="930" y="1242"/>
      <point x="1164" y="1242" type="curve" smooth="yes"/>
      <point x="1399" y="1242"/>
      <point x="1517" y="1118"/>
      <point x="1517" y="876" type="curve" smooth="yes"/>
      <point x="1517" y="598" type="line"/>
      <point x="1216" y="598" type="line"/>
      <point x="1216" y="891" type="line" smooth="yes"/>
      <point x="1216" y="952"/>
      <point x="1202" y="977"/>
      <point x="1164" y="977" type="curve" smooth="yes"/>
      <point x="1125" y="977"/>
      <point x="1111" y="953"/>
      <point x="1111" y="891" type="curve" smooth="yes"/>
      <point x="1111" y="524" type="line" smooth="yes"/>
      <point x="1111" y="155"/>
      <point x="941" y="-27"/>
      <point x="597" y="-27" type="curve" smooth="yes"/>
      <point x="236" y="-27"/>
      <point x="60" y="158"/>
      <point x="60" y="540" type="curve" smooth="yes"/>
      <point x="60" y="670.961" type="line"/>
      <point x="361" y="682.606" type="line"/>
    </contour>
    <contour>
      <point x="2151" y="1244" type="curve" smooth="yes"/>
      <point x="2500" y="1244"/>
      <point x="2682" y="1059"/>
      <point x="2682" y="701" type="curve" smooth="yes"/>
      <point x="2682" y="523.605" type="line"/>
      <point x="2382" y="529.304" type="line"/>
      <point x="2382" y="696" type="line" smooth="yes"/>
      <point x="2382" y="880"/>
      <point x="2319" y="979"/>
      <point x="2150" y="979" type="curve" smooth="yes"/>
      <point x="1981" y="979"/>
      <point x="1918" y="883"/>
      <point x="1918" y="696" type="curve" smooth="yes"/>
      <point x="1918" y="579" type="line"/>
      <point x="1617" y="579" type="line"/>
      <point x="1617" y="701" type="line" smooth="yes"/>
      <point x="1617" y="1059"/>
      <point x="1798" y="1244"/>
    </contour>
    <contour>
      <point x="2682" y="356" type="line" smooth="yes"/>
      <point x="2682" y="98"/>
      <point x="2563" y="-27"/>
      <point x="2336" y="-27" type="curve" smooth="yes"/>
      <point x="2112" y="-27"/>
      <point x="2000" y="91"/>
      <point x="2000" y="323" type="curve" smooth="yes"/>
      <point x="2000" y="461" type="line" smooth="yes"/>
      <point x="2000" y="656"/>
      <point x="2066" y="753"/>
      <point x="2203" y="753" type="curve" smooth="yes"/>
      <point x="2299" y="753"/>
      <point x="2354" y="703"/>
      <point x="2374" y="602" type="curve"/>
      <point x="2420" y="602" type="line"/>
      <point x="2412" y="408" type="line"/>
      <point x="2404" y="474"/>
      <point x="2378" y="507"/>
      <point x="2336" y="507" type="curve" smooth="yes"/>
      <point x="2304" y="507"/>
      <point x="2289" y="486"/>
      <point x="2289" y="443" type="curve" smooth="yes"/>
      <point x="2289" y="313" type="line" smooth="yes"/>
      <point x="2289" y="253"/>
      <point x="2303" y="228"/>
      <point x="2338" y="228" type="curve" smooth="yes"/>
      <point x="2373" y="228"/>
      <point x="2387.06" y="253"/>
      <point x="2387" y="313" type="curve" smooth="yes"/>
      <point x="2386.77" y="540.895" type="line"/>
      <point x="2682" y="533.605" type="line"/>
    </contour>
  </outline>
  <guideline angle="90" x="588" y="0"/>
  <guideline angle="0" x="0" y="1326"/>
</glyph>
<glyph name="vowelLru.kn" format="2">
  <advance width="1263"/>
  <unicode hex="0C8C"/>
  <outline>
    <contour>
      <point x="415" y="0" type="line"/>
      <point x="368" y="134"/>
      <point x="360" y="300"/>
      <point x="360" y="367" type="curve" smooth="yes"/>
      <point x="360" y="485" type="line" smooth="yes"/>
      <point x="360" y="566"/>
      <point x="379" y="597"/>
      <point x="424" y="597" type="curve" smooth="yes"/>
      <point x="463" y="597"/>
      <point x="485" y="566"/>
      <point x="486" y="499" type="curve" smooth="yes"/>
      <point x="497" y="3" type="line"/>
      <point x="766" y="3" type="line"/>
      <point x="777" y="499" type="line" smooth="yes"/>
      <point x="778" y="566"/>
      <point x="800" y="597"/>
      <point x="839" y="597" type="curve" smooth="yes"/>
      <point x="884" y="597"/>
      <point x="903" y="566"/>
      <point x="903" y="485" type="curve" smooth="yes"/>
      <point x="903" y="367" type="line" smooth="yes"/>
      <point x="903" y="300"/>
      <point x="895" y="134"/>
      <point x="848" y="0" type="curve"/>
      <point x="1141" y="0" type="line"/>
      <point x="1193" y="105"/>
      <point x="1203" y="265"/>
      <point x="1203" y="361" type="curve" smooth="yes"/>
      <point x="1203" y="514" type="line" smooth="yes"/>
      <point x="1203" y="751"/>
      <point x="1126" y="874"/>
      <point x="949" y="874" type="curve" smooth="yes"/>
      <point x="843" y="874"/>
      <point x="786" y="825"/>
      <point x="755" y="752" type="curve"/>
      <point x="746" y="753" type="line"/>
      <point x="763" y="862"/>
      <point x="776" y="970"/>
      <point x="776" y="1111" type="curve" smooth="yes"/>
      <point x="776" y="1207" type="line"/>
      <point x="486" y="1207" type="line"/>
      <point x="486" y="1109" type="line" smooth="yes"/>
      <point x="486" y="969"/>
      <point x="499" y="862"/>
      <point x="516" y="753" type="curve"/>
      <point x="508" y="752" type="line"/>
      <point x="477" y="825"/>
      <point x="420" y="874"/>
      <point x="314" y="874" type="curve" smooth="yes"/>
      <point x="137" y="874"/>
      <point x="60" y="751"/>
      <point x="60" y="514" type="curve" smooth="yes"/>
      <point x="60" y="361" type="line" smooth="yes"/>
      <point x="60" y="265"/>
      <point x="70" y="105"/>
      <point x="122" y="0" type="curve"/>
    </contour>
  </outline>
</glyph>
<glyph name="vowelE.kn" format="2">
  <advance width="1237"/>
  <unicode hex="0C8E"/>
  <outline>
    <contour>
      <point x="883" y="-27" type="curve" smooth="yes"/>
      <point x="1081" y="-27"/>
      <point x="1174" y="89"/>
      <point x="1174" y="337" type="curve" smooth="yes"/>
      <point x="1174" y="489" type="line" smooth="yes"/>
      <point x="1174" y="985"/>
      <point x="924" y="1234"/>
      <point x="423" y="1234" type="curve" smooth="yes"/>
      <point x="406.5" y="1234"/>
      <point x="336.1" y="1234"/>
      <point x="324" y="1234" type="curve"/>
      <point x="251" y="978" type="line"/>
      <point x="266.56" y="978"/>
      <point x="342.867" y="978"/>
      <point x="358" y="978" type="curve" smooth="yes"/>
      <point x="720" y="978"/>
      <point x="864" y="837"/>
      <point x="864" y="485" type="curve" smooth="yes"/>
      <point x="864" y="337" type="line" smooth="yes"/>
      <point x="864" y="287"/>
      <point x="849" y="264"/>
      <point x="815" y="264" type="curve" smooth="yes"/>
      <point x="782" y="264"/>
      <point x="766" y="286"/>
      <point x="763" y="335" type="curve" smooth="yes"/>
      <point x="755" y="491" type="line"/>
      <point x="484" y="491" type="line"/>
      <point x="477" y="345" type="line" smooth="yes"/>
      <point x="474" y="288"/>
      <point x="453" y="260"/>
      <point x="413" y="260" type="curve" smooth="yes"/>
      <point x="371" y="260"/>
      <point x="351" y="289"/>
      <point x="351" y="346" type="curve" smooth="yes"/>
      <point x="351" y="387" type="line" smooth="yes"/>
      <point x="351" y="446"/>
      <point x="367" y="473"/>
      <point x="413" y="473" type="curve" smooth="yes"/>
      <point x="422" y="473"/>
      <point x="432" y="472"/>
      <point x="445" y="470" type="curve"/>
      <point x="430" y="746" type="line"/>
      <point x="401" y="756"/>
      <point x="370" y="763"/>
      <point x="324" y="763" type="curve" smooth="yes"/>
      <point x="141" y="763"/>
      <point x="51" y="645"/>
      <point x="51" y="410" type="curve" smooth="yes"/>
      <point x="51" y="328" type="line" smooth="yes"/>
      <point x="51" y="94"/>
      <point x="155" y="-27"/>
      <point x="348" y="-27" type="curve" smooth="yes"/>
      <point x="511" y="-27"/>
      <point x="598" y="47"/>
      <point x="615" y="192" type="curve"/>
      <point x="623" y="192" type="line"/>
      <point x="638" y="44"/>
      <point x="723" y="-27"/>
    </contour>
  </outline>
</glyph>
<glyph name="vowelEe.kn" format="2">
  <advance width="1237"/>
  <unicode hex="0C8F"/>
  <outline>
    <contour>
      <point x="864" y="525" type="curve" smooth="yes"/>
      <point x="864" y="337" type="line" smooth="yes"/>
      <point x="864" y="287"/>
      <point x="849" y="264"/>
      <point x="814" y="264" type="curve" smooth="yes"/>
      <point x="781" y="264"/>
      <point x="764" y="286"/>
      <point x="761" y="335" type="curve" smooth="yes"/>
      <point x="753" y="491" type="line"/>
      <point x="484" y="491" type="line"/>
      <point x="477" y="345" type="line" smooth="yes"/>
      <point x="474" y="288"/>
      <point x="453" y="260"/>
      <point x="413" y="260" type="curve" smooth="yes"/>
      <point x="371" y="260"/>
      <point x="351" y="289"/>
      <point x="351" y="346" type="curve" smooth="yes"/>
      <point x="351" y="387" type="line" smooth="yes"/>
      <point x="351" y="446"/>
      <point x="367" y="473"/>
      <point x="413" y="473" type="curve" smooth="yes"/>
      <point x="422" y="473"/>
      <point x="432" y="472"/>
      <point x="445" y="470" type="curve"/>
      <point x="430" y="746" type="line"/>
      <point x="401" y="756"/>
      <point x="370" y="763"/>
      <point x="324" y="763" type="curve" smooth="yes"/>
      <point x="141" y="763"/>
      <point x="51" y="645"/>
      <point x="51" y="410" type="curve" smooth="yes"/>
      <point x="51" y="328" type="line" smooth="yes"/>
      <point x="51" y="94"/>
      <point x="155" y="-27"/>
      <point x="348" y="-27" type="curve" smooth="yes"/>
      <point x="511" y="-27"/>
      <point x="598" y="47"/>
      <point x="615" y="192" type="curve"/>
      <point x="623" y="192" type="line"/>
      <point x="638" y="44"/>
      <point x="723" y="-27"/>
      <point x="883" y="-27" type="curve" smooth="yes"/>
      <point x="1081" y="-27"/>
      <point x="1174" y="89"/>
      <point x="1174" y="337" type="curve" smooth="yes"/>
      <point x="1174" y="529" type="line" smooth="yes"/>
      <point x="1174" y="1005"/>
      <point x="990" y="1224"/>
      <point x="590" y="1244" type="curve"/>
      <point x="613" y="948" type="line"/>
      <point x="773" y="948"/>
      <point x="864" y="827"/>
    </contour>
    <contour>
      <point x="475" y="829" type="curve" smooth="yes"/>
      <point x="682" y="829"/>
      <point x="787" y="950"/>
      <point x="787" y="1183" type="curve"/>
      <point x="590" y="1244" type="line"/>
      <point x="590" y="1227" type="line" smooth="yes"/>
      <point x="590" y="1135"/>
      <point x="561" y="1094"/>
      <point x="497" y="1094" type="curve" smooth="yes"/>
      <point x="433" y="1094"/>
      <point x="404" y="1135"/>
      <point x="404" y="1227" type="curve" smooth="yes"/>
      <point x="404" y="1244" type="line"/>
      <point x="117" y="1220" type="line"/>
      <point x="117" y="1203" type="line" smooth="yes"/>
      <point x="117" y="957"/>
      <point x="239" y="829"/>
    </contour>
  </outline>
</glyph>
<glyph name="vowelAi.kn" format="2">
  <advance width="1237"/>
  <unicode hex="0C90"/>
  <outline>
    <contour>
      <point x="875" y="1244" type="curve" smooth="yes"/>
      <point x="726" y="1244"/>
      <point x="641" y="1177"/>
      <point x="625" y="1047" type="curve"/>
      <point x="617" y="1047" type="line"/>
      <point x="601" y="1177"/>
      <point x="517" y="1244"/>
      <point x="370" y="1244" type="curve" smooth="yes"/>
      <point x="177" y="1244"/>
      <point x="84" y="1131"/>
      <point x="84" y="891" type="curve" smooth="yes"/>
      <point x="84" y="798" type="line"/>
      <point x="380" y="798" type="line"/>
      <point x="380" y="881" type="line" smooth="yes"/>
      <point x="380" y="930"/>
      <point x="395" y="953"/>
      <point x="428" y="953" type="curve" smooth="yes"/>
      <point x="459" y="953"/>
      <point x="475" y="932"/>
      <point x="477" y="886" type="curve" smooth="yes"/>
      <point x="485" y="721" type="line"/>
      <point x="757" y="721" type="line"/>
      <point x="765" y="886" type="line" smooth="yes"/>
      <point x="767" y="932"/>
      <point x="783" y="953"/>
      <point x="814" y="953" type="curve" smooth="yes"/>
      <point x="847" y="953"/>
      <point x="862" y="930"/>
      <point x="862" y="881" type="curve" smooth="yes"/>
      <point x="862" y="336" type="line" smooth="yes"/>
      <point x="862" y="287"/>
      <point x="847" y="264"/>
      <point x="815" y="264" type="curve" smooth="yes"/>
      <point x="783" y="264"/>
      <point x="768" y="286"/>
      <point x="765" y="334" type="curve" smooth="yes"/>
      <point x="757" y="491" type="line"/>
      <point x="486" y="491" type="line"/>
      <point x="479" y="345" type="line" smooth="yes"/>
      <point x="476" y="288"/>
      <point x="455" y="260"/>
      <point x="415" y="260" type="curve" smooth="yes"/>
      <point x="373" y="260"/>
      <point x="353" y="289"/>
      <point x="353" y="346" type="curve" smooth="yes"/>
      <point x="353" y="377" type="line" smooth="yes"/>
      <point x="353" y="436"/>
      <point x="369" y="463"/>
      <point x="415" y="463" type="curve" smooth="yes"/>
      <point x="424" y="463"/>
      <point x="434" y="462"/>
      <point x="447" y="460" type="curve"/>
      <point x="432" y="736" type="line"/>
      <point x="403" y="746"/>
      <point x="372" y="753"/>
      <point x="326" y="753" type="curve" smooth="yes"/>
      <point x="143" y="753"/>
      <point x="53" y="635"/>
      <point x="53" y="400" type="curve" smooth="yes"/>
      <point x="53" y="328" type="line" smooth="yes"/>
      <point x="53" y="94"/>
      <point x="157" y="-27"/>
      <point x="350" y="-27" type="curve" smooth="yes"/>
      <point x="511" y="-27"/>
      <point x="598" y="45"/>
      <point x="616" y="187" type="curve"/>
      <point x="625" y="187" type="line"/>
      <point x="641" y="45"/>
      <point x="727" y="-27"/>
      <point x="883" y="-27" type="curve" smooth="yes"/>
      <point x="1079" y="-27"/>
      <point x="1172" y="89"/>
      <point x="1172" y="336" type="curve" smooth="yes"/>
      <point x="1172" y="881" type="line" smooth="yes"/>
      <point x="1172" y="1128"/>
      <point x="1077" y="1244"/>
    </contour>
  </outline>
</glyph>
<glyph name="vowelO.kn" format="2">
  <advance width="1232"/>
  <unicode hex="0C92"/>
  <outline>
    <contour>
      <point x="837" y="627" type="line"/>
      <point x="864" y="567"/>
      <point x="884" y="475"/>
      <point x="884" y="384" type="curve" smooth="yes"/>
      <point x="884" y="347" type="line" smooth="yes"/>
      <point x="884" y="291"/>
      <point x="864" y="264"/>
      <point x="824" y="264" type="curve" smooth="yes"/>
      <point x="785" y="264"/>
      <point x="765" y="290"/>
      <point x="762" y="345" type="curve" smooth="yes"/>
      <point x="756" y="464" type="line"/>
      <point x="614" y="464" type="line"/>
      <point x="621" y="217" type="line"/>
      <point x="629" y="55"/>
      <point x="722" y="-27"/>
      <point x="898" y="-27" type="curve" smooth="yes"/>
      <point x="1089" y="-27"/>
      <point x="1192" y="95"/>
      <point x="1192" y="333" type="curve" smooth="yes"/>
      <point x="1192" y="371" type="line" smooth="yes"/>
      <point x="1192" y="470"/>
      <point x="1167" y="559"/>
      <point x="1132" y="627" type="curve"/>
    </contour>
    <contour>
      <point x="381" y="1244" type="curve" smooth="yes"/>
      <point x="165" y="1244"/>
      <point x="54" y="1133"/>
      <point x="54" y="927" type="curve" smooth="yes"/>
      <point x="54" y="889" type="line" smooth="yes"/>
      <point x="54" y="823"/>
      <point x="68" y="749"/>
      <point x="89" y="708" type="curve"/>
      <point x="352" y="708" type="line"/>
      <point x="330" y="752"/>
      <point x="319" y="806"/>
      <point x="319" y="878" type="curve" smooth="yes"/>
      <point x="319" y="904" type="line" smooth="yes"/>
      <point x="319" y="961"/>
      <point x="339" y="984"/>
      <point x="376" y="984" type="curve" smooth="yes"/>
      <point x="413" y="984"/>
      <point x="432" y="960"/>
      <point x="432" y="904" type="curve" smooth="yes"/>
      <point x="432" y="886" type="line" smooth="yes"/>
      <point x="432" y="814"/>
      <point x="408" y="772"/>
      <point x="324" y="715" type="curve" smooth="yes"/>
      <point x="250" y="665" type="line" smooth="yes"/>
      <point x="109" y="570"/>
      <point x="40" y="465"/>
      <point x="40" y="321" type="curve" smooth="yes"/>
      <point x="40" y="307" type="line" smooth="yes"/>
      <point x="40" y="85"/>
      <point x="147" y="-27"/>
      <point x="348" y="-27" type="curve" smooth="yes"/>
      <point x="509" y="-27"/>
      <point x="598" y="47"/>
      <point x="614" y="192" type="curve"/>
      <point x="633" y="192" type="line"/>
      <point x="623" y="464" type="line"/>
      <point x="481" y="464" type="line"/>
      <point x="475" y="346" type="line" smooth="yes"/>
      <point x="472" y="290"/>
      <point x="449" y="264"/>
      <point x="407" y="264" type="curve" smooth="yes"/>
      <point x="362" y="264"/>
      <point x="340" y="287"/>
      <point x="340" y="335" type="curve" smooth="yes"/>
      <point x="340" y="340" type="line" smooth="yes"/>
      <point x="340" y="403"/>
      <point x="373" y="434"/>
      <point x="455" y="496" type="curve" smooth="yes"/>
      <point x="539" y="560" type="line" smooth="yes"/>
      <point x="653" y="647"/>
      <point x="709" y="755"/>
      <point x="709" y="884" type="curve" smooth="yes"/>
      <point x="709" y="914" type="line" smooth="yes"/>
      <point x="709" y="1131"/>
      <point x="597" y="1244"/>
    </contour>
  </outline>
</glyph>
<glyph name="vowelOo.kn" format="2">
  <advance width="1232"/>
  <unicode hex="0C93"/>
  <outline>
    <component base="vowelO.kn"/>
    <contour>
      <point x="478" y="1674" type="curve" smooth="yes"/>
      <point x="264" y="1674"/>
      <point x="152" y="1568"/>
      <point x="152" y="1398" type="curve" smooth="yes"/>
      <point x="152" y="1386" type="line" smooth="yes"/>
      <point x="152" y="1255"/>
      <point x="210" y="1172"/>
      <point x="322" y="1151" type="curve"/>
      <point x="473" y="1224" type="line"/>
      <point x="436" y="1251"/>
      <point x="425" y="1288"/>
      <point x="425" y="1335" type="curve" smooth="yes"/>
      <point x="425" y="1344" type="line" smooth="yes"/>
      <point x="425" y="1397"/>
      <point x="444" y="1420"/>
      <point x="481" y="1420" type="curve" smooth="yes"/>
      <point x="518" y="1420"/>
      <point x="538" y="1398"/>
      <point x="538" y="1344" type="curve" smooth="yes"/>
      <point x="538" y="1336" type="line" smooth="yes"/>
      <point x="538" y="1306"/>
      <point x="534" y="1285"/>
      <point x="528" y="1267" type="curve"/>
      <point x="785" y="1267" type="line"/>
      <point x="794" y="1294"/>
      <point x="799" y="1333"/>
      <point x="799" y="1370" type="curve" smooth="yes"/>
      <point x="799" y="1378" type="line" smooth="yes"/>
      <point x="799" y="1571"/>
      <point x="690" y="1674"/>
    </contour>
  </outline>
  <guideline angle="0" x="0" y="2437"/>
  <guideline angle="0" x="0" y="1738"/>
</glyph>
<glyph name="Ga.kn" format="2">
  <advance width="1005"/>
  <unicode hex="0C97"/>
  <outline>
    <contour>
      <point x="257" y="970" type="line"/>
      <point x="257" y="948.465" type="line"/>
      <point x="132.258" y="925.369"/>
      <point x="75" y="826.937"/>
      <point x="75" y="614" type="curve" smooth="yes"/>
      <point x="75" y="0" type="line"/>
      <point x="385" y="0" type="line"/>
      <point x="385" y="764" type="line" smooth="yes"/>
      <point x="385" y="895"/>
      <point x="418" y="955"/>
      <point x="502" y="955" type="curve" smooth="yes"/>
      <point x="586" y="955"/>
      <point x="619" y="895"/>
      <point x="619" y="764" type="curve" smooth="yes"/>
      <point x="619" y="0" type="line"/>
      <point x="929" y="0" type="line"/>
      <point x="929" y="614" type="line" smooth="yes"/>
      <point x="929" y="826.937"/>
      <point x="871.742" y="925.369"/>
      <point x="747" y="948.465" type="curve"/>
      <point x="747" y="970" type="line"/>
    </contour>
    <contour>
      <point x="55" y="1207" type="line"/>
      <point x="55" y="955" type="line"/>
      <point x="710" y="955" type="line"/>
      <point x="705" y="1207" type="line"/>
    </contour>
    <contour>
      <point x="661" y="1514" type="line"/>
      <point x="670.286" y="1441"/>
      <point x="674" y="1379"/>
      <point x="674" y="1303" type="curve" smooth="yes"/>
      <point x="674" y="1234"/>
      <point x="657" y="1207"/>
      <point x="602" y="1207" type="curve" smooth="yes"/>
      <point x="584" y="1207" type="line"/>
      <point x="640" y="955" type="line"/>
      <point x="745" y="955" type="line" smooth="yes"/>
      <point x="890" y="955"/>
      <point x="960" y="1040"/>
      <point x="960" y="1221" type="curve" smooth="yes"/>
      <point x="960" y="1315"/>
      <point x="938.095" y="1418"/>
      <point x="891" y="1514" type="curve"/>
    </contour>
  </outline>
  <guideline angle="0" x="0" y="1084"/>
  <guideline angle="0" x="0" y="1709"/>
  <guideline angle="90" x="848" y="0"/>
  <guideline angle="90" x="502" y="0"/>
</glyph>
<glyph name="Gha.kn" format="2">
  <advance width="1273"/>
  <unicode hex="0C98"/>
  <outline>
    <contour>
      <point x="763" y="348" type="curve" smooth="yes"/>
      <point x="756" y="491" type="line"/>
      <point x="484" y="491" type="line"/>
      <point x="477" y="345" type="line" smooth="yes"/>
      <point x="474.266" y="287.987"/>
      <point x="453" y="260"/>
      <point x="413" y="260" type="curve" smooth="yes"/>
      <point x="371" y="260"/>
      <point x="351" y="289"/>
      <point x="351" y="346" type="curve" smooth="yes"/>
      <point x="351" y="387" type="line" smooth="yes"/>
      <point x="351" y="446"/>
      <point x="367" y="473"/>
      <point x="413" y="473" type="curve" smooth="yes"/>
      <point x="422" y="473"/>
      <point x="432" y="472"/>
      <point x="445" y="470" type="curve"/>
      <point x="430" y="746" type="line"/>
      <point x="401" y="756"/>
      <point x="370" y="763"/>
      <point x="324" y="763" type="curve" smooth="yes"/>
      <point x="141" y="763"/>
      <point x="51" y="645"/>
      <point x="51" y="410" type="curve" smooth="yes"/>
      <point x="51" y="328" type="line" smooth="yes"/>
      <point x="51" y="94"/>
      <point x="155" y="-27"/>
      <point x="348" y="-27" type="curve" smooth="yes"/>
      <point x="511" y="-27"/>
      <point x="599" y="47"/>
      <point x="615" y="192" type="curve"/>
      <point x="624" y="192" type="line"/>
      <point x="639.884" y="47"/>
      <point x="732.213" y="-27"/>
      <point x="899" y="-27" type="curve" smooth="yes"/>
      <point x="1087" y="-27"/>
      <point x="1191" y="88"/>
      <point x="1191" y="314" type="curve" smooth="yes"/>
      <point x="1191" y="349" type="line" smooth="yes"/>
      <point x="1191" y="493"/>
      <point x="1137" y="580"/>
      <point x="1020" y="596" type="curve"/>
      <point x="1020" y="658" type="line"/>
      <point x="797" y="658" type="line"/>
      <point x="797" y="505" type="line"/>
      <point x="829" y="503" type="line" smooth="yes"/>
      <point x="871.025" y="500.373"/>
      <point x="889" y="469"/>
      <point x="889" y="401" type="curve" smooth="yes"/>
      <point x="889" y="350" type="line" smooth="yes"/>
      <point x="889" y="292"/>
      <point x="868" y="264"/>
      <point x="826" y="264" type="curve" smooth="yes"/>
      <point x="787.231" y="264"/>
      <point x="765.806" y="290.678"/>
    </contour>
    <contour>
      <point x="620" y="631" type="curve" smooth="yes"/>
      <point x="716" y="631"/>
      <point x="767" y="688"/>
      <point x="767" y="798" type="curve" smooth="yes"/>
      <point x="767" y="822" type="line" smooth="yes"/>
      <point x="767" y="932"/>
      <point x="716" y="991"/>
      <point x="620" y="991" type="curve" smooth="yes"/>
      <point x="524" y="991"/>
      <point x="472" y="932"/>
      <point x="472" y="822" type="curve" smooth="yes"/>
      <point x="472" y="800" type="line" smooth="yes"/>
      <point x="472" y="690"/>
      <point x="524" y="631"/>
    </contour>
    <contour>
      <point x="1018" y="603" type="line" smooth="yes"/>
      <point x="1196.84" y="603"/>
      <point x="1270" y="686"/>
      <point x="1270" y="810" type="curve" smooth="yes"/>
      <point x="1270" y="856"/>
      <point x="1259" y="919"/>
      <point x="1238" y="964" type="curve"/>
      <point x="978" y="964" type="line"/>
      <point x="978" y="929"/>
      <point x="978" y="901"/>
      <point x="978" y="879" type="curve" smooth="yes"/>
      <point x="978" y="794"/>
      <point x="942.702" y="760.106"/>
      <point x="869" y="758" type="curve" smooth="yes"/>
      <point x="799" y="756" type="line"/>
      <point x="799" y="603" type="line"/>
    </contour>
    <contour>
      <point x="895" y="955" type="line"/>
      <point x="895" y="1207" type="line"/>
      <point x="88" y="1207" type="line"/>
      <point x="88" y="955" type="line"/>
    </contour>
    <contour>
      <point x="619" y="-432" type="curve" smooth="yes"/>
      <point x="719" y="-432"/>
      <point x="769" y="-377"/>
      <point x="769" y="-269" type="curve" smooth="yes"/>
      <point x="769" y="-256" type="line" smooth="yes"/>
      <point x="769" y="-144"/>
      <point x="704" y="-44"/>
      <point x="619" y="38" type="curve"/>
      <point x="534" y="-44"/>
      <point x="469" y="-144"/>
      <point x="469" y="-256" type="curve" smooth="yes"/>
      <point x="469" y="-269" type="line" smooth="yes"/>
      <point x="469" y="-377"/>
      <point x="519" y="-432"/>
    </contour>
    <contour>
      <point x="900" y="1514" type="line"/>
      <point x="909.286" y="1441"/>
      <point x="913" y="1379"/>
      <point x="913" y="1303" type="curve" smooth="yes"/>
      <point x="913" y="1234"/>
      <point x="896" y="1207"/>
      <point x="841" y="1207" type="curve" smooth="yes"/>
      <point x="823" y="1207" type="line"/>
      <point x="879" y="955" type="line"/>
      <point x="984" y="955" type="line" smooth="yes"/>
      <point x="1129" y="955"/>
      <point x="1199" y="1040"/>
      <point x="1199" y="1221" type="curve" smooth="yes"/>
      <point x="1199" y="1315"/>
      <point x="1177.1" y="1418"/>
      <point x="1130" y="1514" type="curve"/>
    </contour>
  </outline>
</glyph>
<glyph name="Jha.kn" format="2">
  <advance width="1964"/>
  <unicode hex="0C9D"/>
  <outline>
    <component base="matraU.kn" xOffset="998"/>
    <component base="matraU.kn" xOffset="1480"/>
    <component base="Ra.kn"/>
    <contour>
      <point x="852" y="366" type="line"/>
      <point x="933" y="366" type="line"/>
      <point x="933" y="483" type="line"/>
      <point x="852" y="483" type="line"/>
    </contour>
    <contour>
      <point x="1379" y="-432" type="curve" smooth="yes"/>
      <point x="1479" y="-432"/>
      <point x="1529" y="-377"/>
      <point x="1529" y="-269" type="curve" smooth="yes"/>
      <point x="1529" y="-256" type="line" smooth="yes"/>
      <point x="1529" y="-144"/>
      <point x="1464" y="-44"/>
      <point x="1379" y="38" type="curve"/>
      <point x="1294" y="-44"/>
      <point x="1229" y="-144"/>
      <point x="1229" y="-256" type="curve" smooth="yes"/>
      <point x="1229" y="-269" type="line" smooth="yes"/>
      <point x="1229" y="-377"/>
      <point x="1279" y="-432"/>
    </contour>
  </outline>
</glyph>
<glyph name="Dda.kn" format="2">
  <advance width="1219"/>
  <unicode hex="0CA1"/>
  <outline>
    <contour>
      <point x="868" y="341" type="line" smooth="yes"/>
      <point x="868" y="288"/>
      <point x="850" y="264"/>
      <point x="815" y="264" type="curve" smooth="yes"/>
      <point x="781" y="264"/>
      <point x="763" y="286"/>
      <point x="760" y="336" type="curve" smooth="yes"/>
      <point x="753" y="460" type="line"/>
      <point x="479" y="460" type="line"/>
      <point x="472" y="333" type="line" smooth="yes"/>
      <point x="469" y="286"/>
      <point x="454" y="264"/>
      <point x="423" y="264" type="curve" smooth="yes"/>
      <point x="389" y="264"/>
      <point x="375" y="287"/>
      <point x="375" y="335" type="curve" smooth="yes"/>
      <point x="375" y="599" type="line" smooth="yes"/>
      <point x="375" y="854"/>
      <point x="443" y="955"/>
      <point x="610" y="955" type="curve"/>
      <point x="610" y="987" type="line"/>
      <point x="283" y="987" type="line"/>
      <point x="283" y="948" type="line"/>
      <point x="132" y="921"/>
      <point x="65" y="813"/>
      <point x="65" y="573" type="curve" smooth="yes"/>
      <point x="65" y="333" type="line" smooth="yes"/>
      <point x="65" y="88"/>
      <point x="156" y="-27"/>
      <point x="354" y="-27" type="curve" smooth="yes"/>
      <point x="509" y="-27"/>
      <point x="595" y="42"/>
      <point x="612" y="177" type="curve"/>
      <point x="620" y="177" type="line"/>
      <point x="636" y="42"/>
      <point x="723" y="-27"/>
      <point x="877" y="-27" type="curve" smooth="yes"/>
      <point x="1074" y="-27"/>
      <point x="1168" y="87"/>
      <point x="1168" y="330" type="curve" smooth="yes"/>
      <point x="1168" y="375" type="line" smooth="yes"/>
      <point x="1168" y="548"/>
      <point x="1099" y="635"/>
      <point x="962" y="644" type="curve"/>
      <point x="962" y="650" type="line"/>
      <point x="1066" y="655"/>
      <point x="1126" y="706"/>
      <point x="1126" y="797" type="curve" smooth="yes"/>
      <point x="1126" y="803" type="line" smooth="yes"/>
      <point x="1126" y="892"/>
      <point x="1072" y="940"/>
      <point x="952" y="949" type="curve"/>
      <point x="952" y="977" type="line"/>
      <point x="626" y="977" type="line"/>
      <point x="626" y="955" type="line"/>
      <point x="769" y="955"/>
      <point x="833" y="917"/>
      <point x="833" y="849" type="curve" smooth="yes"/>
      <point x="833" y="845" type="line" smooth="yes"/>
      <point x="833" y="795"/>
      <point x="811" y="767"/>
      <point x="750" y="764" type="curve" smooth="yes"/>
      <point x="703" y="762" type="line"/>
      <point x="703" y="520" type="line"/>
      <point x="774" y="517" type="line" smooth="yes"/>
      <point x="844" y="514"/>
      <point x="868" y="481"/>
      <point x="868" y="384" type="curve" smooth="yes"/>
    </contour>
    <contour>
      <point x="936" y="955" type="line"/>
      <point x="916" y="1207" type="line"/>
      <point x="68" y="1207" type="line"/>
      <point x="68" y="955" type="line"/>
    </contour>
    <contour>
      <point x="890" y="1514" type="line"/>
      <point x="899.286" y="1441"/>
      <point x="903" y="1379"/>
      <point x="903" y="1303" type="curve" smooth="yes"/>
      <point x="903" y="1234"/>
      <point x="886" y="1207"/>
      <point x="831" y="1207" type="curve" smooth="yes"/>
      <point x="813" y="1207" type="line"/>
      <point x="869" y="955" type="line"/>
      <point x="974" y="955" type="line" smooth="yes"/>
      <point x="1119" y="955"/>
      <point x="1189" y="1040"/>
      <point x="1189" y="1221" type="curve" smooth="yes"/>
      <point x="1189" y="1315"/>
      <point x="1167.1" y="1418"/>
      <point x="1120" y="1514" type="curve"/>
    </contour>
  </outline>
  <guideline angle="90" x="1203" y="0"/>
  <guideline angle="90" x="620" y="0"/>
  <guideline angle="0" x="0" y="1709"/>
</glyph>
<glyph name="Ddha.kn" format="2">
  <advance width="1218"/>
  <unicode hex="0CA2"/>
  <outline>
    <contour>
      <point x="868" y="341" type="line" smooth="yes"/>
      <point x="868" y="288"/>
      <point x="850" y="264"/>
      <point x="815" y="264" type="curve" smooth="yes"/>
      <point x="781" y="264"/>
      <point x="763" y="286"/>
      <point x="760" y="336" type="curve" smooth="yes"/>
      <point x="753" y="460" type="line"/>
      <point x="479" y="460" type="line"/>
      <point x="472" y="333" type="line" smooth="yes"/>
      <point x="469" y="286"/>
      <point x="454" y="264"/>
      <point x="423" y="264" type="curve" smooth="yes"/>
      <point x="389" y="264"/>
      <point x="375" y="287"/>
      <point x="375" y="335" type="curve" smooth="yes"/>
      <point x="375" y="599" type="line" smooth="yes"/>
      <point x="375" y="854"/>
      <point x="443" y="955"/>
      <point x="610" y="955" type="curve"/>
      <point x="610" y="987" type="line"/>
      <point x="283" y="987" type="line"/>
      <point x="283" y="948" type="line"/>
      <point x="132" y="921"/>
      <point x="65" y="813"/>
      <point x="65" y="573" type="curve" smooth="yes"/>
      <point x="65" y="333" type="line" smooth="yes"/>
      <point x="65" y="88"/>
      <point x="156" y="-27"/>
      <point x="354" y="-27" type="curve" smooth="yes"/>
      <point x="509" y="-27"/>
      <point x="595" y="42"/>
      <point x="612" y="177" type="curve"/>
      <point x="620" y="177" type="line"/>
      <point x="636" y="42"/>
      <point x="723" y="-27"/>
      <point x="877" y="-27" type="curve" smooth="yes"/>
      <point x="1074" y="-27"/>
      <point x="1168" y="87"/>
      <point x="1168" y="330" type="curve" smooth="yes"/>
      <point x="1168" y="375" type="line" smooth="yes"/>
      <point x="1168" y="548"/>
      <point x="1099" y="635"/>
      <point x="962" y="644" type="curve"/>
      <point x="962" y="650" type="line"/>
      <point x="1066" y="655"/>
      <point x="1126" y="706"/>
      <point x="1126" y="797" type="curve" smooth="yes"/>
      <point x="1126" y="803" type="line" smooth="yes"/>
      <point x="1126" y="892"/>
      <point x="1072" y="940"/>
      <point x="952" y="949" type="curve"/>
      <point x="952" y="977" type="line"/>
      <point x="626" y="977" type="line"/>
      <point x="626" y="955" type="line"/>
      <point x="769" y="955"/>
      <point x="833" y="917"/>
      <point x="833" y="849" type="curve" smooth="yes"/>
      <point x="833" y="845" type="line" smooth="yes"/>
      <point x="833" y="795"/>
      <point x="811" y="767"/>
      <point x="750" y="764" type="curve" smooth="yes"/>
      <point x="703" y="762" type="line"/>
      <point x="703" y="520" type="line"/>
      <point x="774" y="517" type="line" smooth="yes"/>
      <point x="844" y="514"/>
      <point x="868" y="481"/>
      <point x="868" y="384" type="curve" smooth="yes"/>
    </contour>
    <contour>
      <point x="936" y="955" type="line"/>
      <point x="916" y="1207" type="line"/>
      <point x="68" y="1207" type="line"/>
      <point x="68" y="955" type="line"/>
    </contour>
    <contour>
      <point x="616" y="-432" type="curve" smooth="yes"/>
      <point x="716" y="-432"/>
      <point x="766" y="-377"/>
      <point x="766" y="-269" type="curve" smooth="yes"/>
      <point x="766" y="-256" type="line" smooth="yes"/>
      <point x="766" y="-144"/>
      <point x="701" y="-44"/>
      <point x="616" y="38" type="curve"/>
      <point x="531" y="-44"/>
      <point x="466" y="-144"/>
      <point x="466" y="-256" type="curve" smooth="yes"/>
      <point x="466" y="-269" type="line" smooth="yes"/>
      <point x="466" y="-377"/>
      <point x="516" y="-432"/>
    </contour>
    <contour>
      <point x="889" y="1514" type="line"/>
      <point x="898.286" y="1441"/>
      <point x="902" y="1379"/>
      <point x="902" y="1303" type="curve" smooth="yes"/>
      <point x="902" y="1234"/>
      <point x="885" y="1207"/>
      <point x="830" y="1207" type="curve" smooth="yes"/>
      <point x="812" y="1207" type="line"/>
      <point x="868" y="955" type="line"/>
      <point x="973" y="955" type="line" smooth="yes"/>
      <point x="1118" y="955"/>
      <point x="1188" y="1040"/>
      <point x="1188" y="1221" type="curve" smooth="yes"/>
      <point x="1188" y="1315"/>
      <point x="1166.1" y="1418"/>
      <point x="1119" y="1514" type="curve"/>
    </contour>
  </outline>
</glyph>
<glyph name="Nna.kn" format="2">
  <advance width="1286"/>
  <unicode hex="0CA3"/>
  <outline>
    <contour>
      <point x="1220" y="507.567" type="line"/>
      <point x="1220" y="861" type="line" smooth="yes"/>
      <point x="1220" y="1122"/>
      <point x="1119" y="1244"/>
      <point x="904" y="1244" type="curve" smooth="yes"/>
      <point x="747" y="1244"/>
      <point x="656" y="1170"/>
      <point x="639" y="1030" type="curve"/>
      <point x="631" y="1030" type="line"/>
      <point x="613" y="1170"/>
      <point x="522" y="1244"/>
      <point x="366" y="1244" type="curve" smooth="yes"/>
      <point x="151" y="1244"/>
      <point x="50" y="1122"/>
      <point x="50" y="862" type="curve" smooth="yes"/>
      <point x="50" y="837" type="line" smooth="yes"/>
      <point x="50" y="671"/>
      <point x="119" y="585"/>
      <point x="258" y="574" type="curve"/>
      <point x="258" y="566" type="line"/>
      <point x="119" y="555"/>
      <point x="50" y="469"/>
      <point x="50" y="298" type="curve" smooth="yes"/>
      <point x="50" y="275" type="line" smooth="yes"/>
      <point x="50" y="72"/>
      <point x="161" y="-27"/>
      <point x="394" y="-27" type="curve" smooth="yes"/>
      <point x="418" y="-27"/>
      <point x="450" y="-26"/>
      <point x="500" y="-16" type="curve"/>
      <point x="520" y="244" type="line"/>
      <point x="501" y="239"/>
      <point x="473" y="238"/>
      <point x="453" y="238" type="curve" smooth="yes"/>
      <point x="382" y="238"/>
      <point x="350" y="265"/>
      <point x="350" y="331" type="curve" smooth="yes"/>
      <point x="350" y="343" type="line" smooth="yes"/>
      <point x="350" y="416"/>
      <point x="379" y="442"/>
      <point x="450" y="445" type="curve" smooth="yes"/>
      <point x="500" y="447" type="line"/>
      <point x="500" y="691" type="line"/>
      <point x="444" y="693" type="line" smooth="yes"/>
      <point x="374" y="696"/>
      <point x="350" y="729"/>
      <point x="350" y="826" type="curve" smooth="yes"/>
      <point x="350" y="857" type="line" smooth="yes"/>
      <point x="350" y="922"/>
      <point x="371" y="953"/>
      <point x="420" y="953" type="curve" smooth="yes"/>
      <point x="464" y="953"/>
      <point x="488" y="925"/>
      <point x="491" y="863" type="curve" smooth="yes"/>
      <point x="497" y="752" type="line"/>
      <point x="773" y="752" type="line"/>
      <point x="779" y="862" type="line" smooth="yes"/>
      <point x="782" y="925"/>
      <point x="806" y="953"/>
      <point x="850" y="953" type="curve" smooth="yes"/>
      <point x="899" y="953"/>
      <point x="920" y="922"/>
      <point x="920" y="856" type="curve" smooth="yes"/>
      <point x="920" y="494.649" type="line"/>
    </contour>
    <contour>
      <point x="927" y="502" type="line"/>
      <point x="927" y="307" type="line" smooth="yes"/>
      <point x="927" y="250"/>
      <point x="914" y="226"/>
      <point x="882" y="226" type="curve" smooth="yes"/>
      <point x="850" y="226"/>
      <point x="837" y="250"/>
      <point x="837" y="307" type="curve" smooth="yes"/>
      <point x="837" y="407" type="line" smooth="yes"/>
      <point x="837" y="447"/>
      <point x="851" y="467"/>
      <point x="880" y="467" type="curve" smooth="yes"/>
      <point x="920" y="467"/>
      <point x="944" y="435"/>
      <point x="952" y="372" type="curve"/>
      <point x="958" y="563" type="line"/>
      <point x="912" y="563" type="line"/>
      <point x="892" y="657"/>
      <point x="839" y="700"/>
      <point x="749" y="700" type="curve" smooth="yes"/>
      <point x="616" y="700"/>
      <point x="555" y="605"/>
      <point x="555" y="417" type="curve" smooth="yes"/>
      <point x="555" y="317" type="line" smooth="yes"/>
      <point x="555" y="88"/>
      <point x="664" y="-27"/>
      <point x="880" y="-27" type="curve" smooth="yes"/>
      <point x="1103" y="-27"/>
      <point x="1220" y="95"/>
      <point x="1220" y="350" type="curve" smooth="yes"/>
      <point x="1220" y="527.567" type="line"/>
    </contour>
  </outline>
  <guideline angle="90" x="513" y="0"/>
  <guideline angle="90" x="1034" y="0"/>
  <guideline angle="0" x="0" y="752"/>
  <guideline angle="0" x="0" y="-122"/>
</glyph>
<glyph name="Da.kn" format="2">
  <advance width="1220"/>
  <unicode hex="0CA6"/>
  <outline>
    <contour>
      <point x="375" y="599" type="line" smooth="yes"/>
      <point x="375" y="854"/>
      <point x="443" y="955"/>
      <point x="610" y="955" type="curve"/>
      <point x="610" y="987" type="line"/>
      <point x="283" y="987" type="line"/>
      <point x="283" y="948" type="line"/>
      <point x="132" y="921"/>
      <point x="65" y="813"/>
      <point x="65" y="573" type="curve" smooth="yes"/>
      <point x="65" y="333" type="line" smooth="yes"/>
      <point x="65" y="91"/>
      <point x="159" y="-27"/>
      <point x="351" y="-27" type="curve" smooth="yes"/>
      <point x="504" y="-27"/>
      <point x="589" y="42"/>
      <point x="606" y="177" type="curve"/>
      <point x="614" y="177" type="line"/>
      <point x="631" y="42"/>
      <point x="716" y="-27"/>
      <point x="869" y="-27" type="curve" smooth="yes"/>
      <point x="1061" y="-27"/>
      <point x="1155" y="91"/>
      <point x="1155" y="333" type="curve" smooth="yes"/>
      <point x="1155" y="573" type="line" smooth="yes"/>
      <point x="1155" y="813"/>
      <point x="1088" y="921"/>
      <point x="937" y="948" type="curve"/>
      <point x="937" y="987" type="line"/>
      <point x="610" y="987" type="line"/>
      <point x="610" y="955" type="line"/>
      <point x="777" y="955"/>
      <point x="845" y="854"/>
      <point x="845" y="599" type="curve" smooth="yes"/>
      <point x="845" y="333" type="line" smooth="yes"/>
      <point x="845" y="286"/>
      <point x="831" y="264"/>
      <point x="801" y="264" type="curve" smooth="yes"/>
      <point x="772" y="264"/>
      <point x="756" y="285"/>
      <point x="754" y="331" type="curve" smooth="yes"/>
      <point x="746" y="491" type="line"/>
      <point x="474" y="491" type="line"/>
      <point x="466" y="331" type="line" smooth="yes"/>
      <point x="464" y="285"/>
      <point x="448" y="264"/>
      <point x="419" y="264" type="curve" smooth="yes"/>
      <point x="389" y="264"/>
      <point x="375" y="286"/>
      <point x="375" y="333" type="curve" smooth="yes"/>
    </contour>
    <contour>
      <point x="886" y="955" type="line"/>
      <point x="886" y="1207" type="line"/>
      <point x="68" y="1207" type="line"/>
      <point x="68" y="955" type="line"/>
    </contour>
    <contour>
      <point x="874" y="1514" type="line"/>
      <point x="883.286" y="1441"/>
      <point x="887" y="1379"/>
      <point x="887" y="1303" type="curve" smooth="yes"/>
      <point x="887" y="1234"/>
      <point x="870" y="1207"/>
      <point x="815" y="1207" type="curve" smooth="yes"/>
      <point x="797" y="1207" type="line"/>
      <point x="853" y="955" type="line"/>
      <point x="958" y="955" type="line" smooth="yes"/>
      <point x="1103" y="955"/>
      <point x="1173" y="1040"/>
      <point x="1173" y="1221" type="curve" smooth="yes"/>
      <point x="1173" y="1315"/>
      <point x="1151.1" y="1418"/>
      <point x="1104" y="1514" type="curve"/>
    </contour>
  </outline>
</glyph>
<glyph name="Pa.kn" format="2">
  <advance width="1240"/>
  <unicode hex="0CAA"/>
  <outline>
    <contour>
      <point x="324" y="763" type="curve" smooth="yes"/>
      <point x="141" y="763"/>
      <point x="51" y="645"/>
      <point x="51" y="410" type="curve" smooth="yes"/>
      <point x="51" y="328" type="line" smooth="yes"/>
      <point x="51" y="94"/>
      <point x="155" y="-27"/>
      <point x="348" y="-27" type="curve" smooth="yes"/>
      <point x="511" y="-27"/>
      <point x="599" y="47"/>
      <point x="615" y="192" type="curve"/>
      <point x="624" y="192" type="line"/>
      <point x="640" y="47"/>
      <point x="731" y="-27"/>
      <point x="894" y="-27" type="curve" smooth="yes"/>
      <point x="1082" y="-27"/>
      <point x="1185" y="97"/>
      <point x="1185" y="340" type="curve" smooth="yes"/>
      <point x="1185" y="458" type="line" smooth="yes"/>
      <point x="1185" y="625"/>
      <point x="1159" y="728"/>
      <point x="1113" y="826" type="curve"/>
      <point x="817" y="826" type="line"/>
      <point x="855" y="735"/>
      <point x="877" y="620"/>
      <point x="877" y="463" type="curve" smooth="yes"/>
      <point x="877" y="344" type="line" smooth="yes"/>
      <point x="877" y="290"/>
      <point x="857" y="264"/>
      <point x="821" y="264" type="curve" smooth="yes"/>
      <point x="786" y="264"/>
      <point x="766" y="289"/>
      <point x="763" y="343" type="curve" smooth="yes"/>
      <point x="756" y="491" type="line"/>
      <point x="484" y="491" type="line"/>
      <point x="477" y="345" type="line" smooth="yes"/>
      <point x="474" y="288"/>
      <point x="453" y="260"/>
      <point x="413" y="260" type="curve" smooth="yes"/>
      <point x="371" y="260"/>
      <point x="351" y="289"/>
      <point x="351" y="346" type="curve" smooth="yes"/>
      <point x="351" y="387" type="line" smooth="yes"/>
      <point x="351" y="446"/>
      <point x="367" y="473"/>
      <point x="413" y="473" type="curve" smooth="yes"/>
      <point x="422" y="473"/>
      <point x="432" y="472"/>
      <point x="445" y="470" type="curve"/>
      <point x="430" y="746" type="line"/>
      <point x="401" y="756"/>
      <point x="370" y="763"/>
    </contour>
    <contour>
      <point x="889" y="955" type="line"/>
      <point x="889" y="1207" type="line"/>
      <point x="88" y="1207" type="line"/>
      <point x="88" y="955" type="line"/>
    </contour>
    <contour>
      <point x="620" y="631" type="curve" smooth="yes"/>
      <point x="716" y="631"/>
      <point x="767" y="688"/>
      <point x="767" y="798" type="curve" smooth="yes"/>
      <point x="767" y="822" type="line" smooth="yes"/>
      <point x="767" y="932"/>
      <point x="716" y="991"/>
      <point x="620" y="991" type="curve" smooth="yes"/>
      <point x="524" y="991"/>
      <point x="472" y="932"/>
      <point x="472" y="822" type="curve" smooth="yes"/>
      <point x="472" y="800" type="line" smooth="yes"/>
      <point x="472" y="690"/>
      <point x="524" y="631"/>
    </contour>
    <contour>
      <point x="886" y="1514" type="line"/>
      <point x="895.286" y="1441"/>
      <point x="899" y="1379"/>
      <point x="899" y="1303" type="curve" smooth="yes"/>
      <point x="899" y="1234"/>
      <point x="882" y="1207"/>
      <point x="827" y="1207" type="curve" smooth="yes"/>
      <point x="809" y="1207" type="line"/>
      <point x="865" y="955" type="line"/>
      <point x="970" y="955" type="line" smooth="yes"/>
      <point x="1115" y="955"/>
      <point x="1185" y="1040"/>
      <point x="1185" y="1221" type="curve" smooth="yes"/>
      <point x="1185" y="1315"/>
      <point x="1163.1" y="1418"/>
      <point x="1116" y="1514" type="curve"/>
    </contour>
  </outline>
  <guideline angle="0" x="0" y="808"/>
  <guideline angle="90" x="2227" y="0"/>
  <guideline angle="0" x="0" y="1709"/>
  <guideline angle="90" x="1222" y="0"/>
  <guideline angle="90" x="2370" y="0"/>
  <guideline angle="90" x="619" y="0"/>
  <guideline angle="90" x="619" y="0"/>
</glyph>
<glyph name="Bha.kn" format="2">
  <advance width="1261"/>
  <unicode hex="0CAD"/>
  <outline>
    <contour>
      <point x="381" y="1244" type="curve" smooth="yes"/>
      <point x="165" y="1244"/>
      <point x="54" y="1133"/>
      <point x="54" y="927" type="curve" smooth="yes"/>
      <point x="54" y="889" type="line" smooth="yes"/>
      <point x="54" y="823"/>
      <point x="68" y="749"/>
      <point x="89" y="708" type="curve"/>
      <point x="352" y="708" type="line"/>
      <point x="330" y="752"/>
      <point x="319" y="806"/>
      <point x="319" y="878" type="curve" smooth="yes"/>
      <point x="319" y="904" type="line" smooth="yes"/>
      <point x="319" y="961"/>
      <point x="339" y="984"/>
      <point x="376" y="984" type="curve" smooth="yes"/>
      <point x="413" y="984"/>
      <point x="432" y="960"/>
      <point x="432" y="904" type="curve" smooth="yes"/>
      <point x="432" y="886" type="line" smooth="yes"/>
      <point x="432" y="814"/>
      <point x="408" y="772"/>
      <point x="324" y="715" type="curve" smooth="yes"/>
      <point x="250" y="665" type="line" smooth="yes"/>
      <point x="109" y="570"/>
      <point x="40" y="465"/>
      <point x="40" y="321" type="curve" smooth="yes"/>
      <point x="40" y="307" type="line" smooth="yes"/>
      <point x="40" y="85"/>
      <point x="147" y="-27"/>
      <point x="348" y="-27" type="curve" smooth="yes"/>
      <point x="509" y="-27"/>
      <point x="598" y="47"/>
      <point x="614" y="192" type="curve"/>
      <point x="623" y="192" type="line"/>
      <point x="639" y="47"/>
      <point x="728" y="-27"/>
      <point x="890" y="-27" type="curve" smooth="yes"/>
      <point x="1087" y="-27"/>
      <point x="1194" y="98"/>
      <point x="1194" y="343" type="curve" smooth="yes"/>
      <point x="1194" y="634" type="line" smooth="yes"/>
      <point x="1194" y="831"/>
      <point x="1135" y="926"/>
      <point x="1008" y="948" type="curve"/>
      <point x="1008" y="970" type="line"/>
      <point x="773" y="970" type="line"/>
      <point x="773" y="955" type="line"/>
      <point x="849" y="955"/>
      <point x="884" y="903"/>
      <point x="884" y="790" type="curve" smooth="yes"/>
      <point x="884" y="347" type="line" smooth="yes"/>
      <point x="884" y="291"/>
      <point x="864" y="264"/>
      <point x="824" y="264" type="curve" smooth="yes"/>
      <point x="786" y="264"/>
      <point x="765" y="290"/>
      <point x="762" y="345" type="curve" smooth="yes"/>
      <point x="756" y="464" type="line"/>
      <point x="481" y="464" type="line"/>
      <point x="475" y="346" type="line" smooth="yes"/>
      <point x="472" y="290"/>
      <point x="449" y="264"/>
      <point x="407" y="264" type="curve" smooth="yes"/>
      <point x="362" y="264"/>
      <point x="340" y="287"/>
      <point x="340" y="335" type="curve" smooth="yes"/>
      <point x="340" y="340" type="line" smooth="yes"/>
      <point x="340" y="403"/>
      <point x="373" y="434"/>
      <point x="455" y="496" type="curve" smooth="yes"/>
      <point x="539" y="560" type="line" smooth="yes"/>
      <point x="653" y="647"/>
      <point x="709" y="755"/>
      <point x="709" y="884" type="curve" smooth="yes"/>
      <point x="709" y="914" type="line" smooth="yes"/>
      <point x="709" y="1131"/>
      <point x="597" y="1244"/>
    </contour>
    <contour>
      <point x="772" y="955" type="line"/>
      <point x="976" y="955" type="line"/>
      <point x="976" y="1207" type="line"/>
      <point x="772" y="1207" type="line"/>
    </contour>
    <contour>
      <point x="917" y="1514" type="line"/>
      <point x="926.286" y="1441"/>
      <point x="930" y="1379"/>
      <point x="930" y="1303" type="curve" smooth="yes"/>
      <point x="930" y="1234"/>
      <point x="913" y="1207"/>
      <point x="858" y="1207" type="curve" smooth="yes"/>
      <point x="840" y="1207" type="line"/>
      <point x="896" y="955" type="line"/>
      <point x="1001" y="955" type="line" smooth="yes"/>
      <point x="1146" y="955"/>
      <point x="1216" y="1040"/>
      <point x="1216" y="1221" type="curve" smooth="yes"/>
      <point x="1216" y="1315"/>
      <point x="1194.1" y="1418"/>
      <point x="1147" y="1514" type="curve"/>
    </contour>
    <contour>
      <point x="618" y="-432" type="curve" smooth="yes"/>
      <point x="718" y="-432"/>
      <point x="768" y="-377"/>
      <point x="768" y="-269" type="curve" smooth="yes"/>
      <point x="768" y="-256" type="line" smooth="yes"/>
      <point x="768" y="-144"/>
      <point x="703" y="-44"/>
      <point x="618" y="38" type="curve"/>
      <point x="533" y="-44"/>
      <point x="468" y="-144"/>
      <point x="468" y="-256" type="curve" smooth="yes"/>
      <point x="468" y="-269" type="line" smooth="yes"/>
      <point x="468" y="-377"/>
      <point x="518" y="-432"/>
    </contour>
  </outline>
</glyph>
<glyph name="Ya.kn" format="2">
  <advance width="1914"/>
  <unicode hex="0CAF"/>
  <outline>
    <component base="matraU.kn" xOffset="1430"/>
    <contour>
      <point x="944" y="970" type="line"/>
      <point x="944" y="955" type="line"/>
      <point x="1020" y="955"/>
      <point x="1055" y="903"/>
      <point x="1055" y="790" type="curve" smooth="yes"/>
      <point x="1055" y="379" type="line" smooth="yes"/>
      <point x="1055" y="292"/>
      <point x="1032" y="254"/>
      <point x="970" y="254" type="curve" smooth="yes"/>
      <point x="910" y="254"/>
      <point x="883" y="291"/>
      <point x="883" y="378" type="curve" smooth="yes"/>
      <point x="883" y="472" type="line"/>
      <point x="812" y="472" type="line"/>
      <point x="812" y="340" type="line" smooth="yes"/>
      <point x="812" y="96"/>
      <point x="907" y="-27"/>
      <point x="1090" y="-27" type="curve" smooth="yes"/>
      <point x="1276" y="-27"/>
      <point x="1365" y="100"/>
      <point x="1365" y="355" type="curve" smooth="yes"/>
      <point x="1365" y="634" type="line" smooth="yes"/>
      <point x="1365" y="831"/>
      <point x="1306" y="926"/>
      <point x="1179" y="948" type="curve"/>
      <point x="1179" y="970" type="line"/>
    </contour>
    <contour>
      <point x="933" y="1207" type="line"/>
      <point x="933" y="955" type="line"/>
      <point x="1113" y="955" type="line"/>
      <point x="1108" y="1207" type="line"/>
    </contour>
    <contour>
      <point x="883" y="813" type="line" smooth="yes"/>
      <point x="883" y="1101"/>
      <point x="749" y="1241"/>
      <point x="473" y="1241" type="curve" smooth="yes"/>
      <point x="198" y="1241"/>
      <point x="63" y="1101"/>
      <point x="63" y="813" type="curve" smooth="yes"/>
      <point x="63" y="399" type="line" smooth="yes"/>
      <point x="63" y="111"/>
      <point x="200" y="-29"/>
      <point x="473" y="-29" type="curve" smooth="yes"/>
      <point x="746" y="-29"/>
      <point x="883" y="111"/>
      <point x="883" y="399" type="curve" smooth="yes"/>
    </contour>
    <contour>
      <point x="473" y="252" type="curve" smooth="yes"/>
      <point x="403" y="252"/>
      <point x="371" y="302"/>
      <point x="371" y="406" type="curve" smooth="yes"/>
      <point x="371" y="806" type="line" smooth="yes"/>
      <point x="371" y="910"/>
      <point x="403" y="960"/>
      <point x="473" y="960" type="curve" smooth="yes"/>
      <point x="543" y="960"/>
      <point x="575" y="910"/>
      <point x="575" y="806" type="curve" smooth="yes"/>
      <point x="575" y="406" type="line" smooth="yes"/>
      <point x="575" y="302"/>
      <point x="543" y="252"/>
    </contour>
    <contour>
      <point x="1078" y="1514" type="line"/>
      <point x="1087.29" y="1441"/>
      <point x="1091" y="1379"/>
      <point x="1091" y="1303" type="curve" smooth="yes"/>
      <point x="1091" y="1234"/>
      <point x="1074" y="1207"/>
      <point x="1019" y="1207" type="curve" smooth="yes"/>
      <point x="1001" y="1207" type="line"/>
      <point x="1057" y="955" type="line"/>
      <point x="1162" y="955" type="line" smooth="yes"/>
      <point x="1307" y="955"/>
      <point x="1377" y="1040"/>
      <point x="1377" y="1221" type="curve" smooth="yes"/>
      <point x="1377" y="1315"/>
      <point x="1355.1" y="1418"/>
      <point x="1308" y="1514" type="curve"/>
    </contour>
  </outline>
</glyph>
<glyph name="Ra.kn" format="2">
  <advance width="1002"/>
  <unicode hex="0CB0"/>
  <outline>
    <contour>
      <point x="250" y="980" type="line"/>
      <point x="250" y="948" type="line"/>
      <point x="122" y="921.921"/>
      <point x="63" y="824.626"/>
      <point x="63" y="618" type="curve" smooth="yes"/>
      <point x="63" y="433" type="line" smooth="yes"/>
      <point x="63" y="119.325"/>
      <point x="204.648" y="-32"/>
      <point x="500" y="-32" type="curve" smooth="yes"/>
      <point x="795.352" y="-32"/>
      <point x="937" y="119.325"/>
      <point x="937" y="433" type="curve" smooth="yes"/>
      <point x="937" y="618" type="line" smooth="yes"/>
      <point x="937" y="824.626"/>
      <point x="878" y="921.921"/>
      <point x="750" y="948" type="curve"/>
      <point x="750" y="980" type="line"/>
    </contour>
    <contour>
      <point x="500" y="251" type="curve" smooth="yes"/>
      <point x="411.608" y="251"/>
      <point x="373" y="311.319"/>
      <point x="373" y="440" type="curve" smooth="yes"/>
      <point x="373" y="766" type="line" smooth="yes"/>
      <point x="373" y="894.681"/>
      <point x="412.216" y="955"/>
      <point x="502" y="955" type="curve" smooth="yes"/>
      <point x="590" y="955"/>
      <point x="627" y="894.681"/>
      <point x="627" y="766" type="curve" smooth="yes"/>
      <point x="627" y="440" type="line" smooth="yes"/>
      <point x="627" y="311.319"/>
      <point x="589.408" y="251"/>
    </contour>
    <contour>
      <point x="690" y="955" type="line"/>
      <point x="690" y="1207" type="line"/>
      <point x="63" y="1207" type="line"/>
      <point x="63" y="955" type="line"/>
    </contour>
    <contour>
      <point x="663" y="1514" type="line"/>
      <point x="672.286" y="1441"/>
      <point x="676" y="1379"/>
      <point x="676" y="1303" type="curve" smooth="yes"/>
      <point x="676" y="1234"/>
      <point x="659" y="1207"/>
      <point x="604" y="1207" type="curve" smooth="yes"/>
      <point x="586" y="1207" type="line"/>
      <point x="642" y="955" type="line"/>
      <point x="747" y="955" type="line" smooth="yes"/>
      <point x="892" y="955"/>
      <point x="962" y="1040"/>
      <point x="962" y="1221" type="curve" smooth="yes"/>
      <point x="962" y="1315"/>
      <point x="940.095" y="1418"/>
      <point x="893" y="1514" type="curve"/>
    </contour>
  </outline>
</glyph>
<glyph name="RraObsolete.kn" format="2">
  <advance width="1519"/>
  <unicode hex="0CB1"/>
  <outline>
    <contour>
      <point x="63" y="662.8" type="line"/>
      <point x="63" y="408" type="line" smooth="yes"/>
      <point x="63" y="110"/>
      <point x="184" y="-27"/>
      <point x="440" y="-27" type="curve" smooth="yes"/>
      <point x="630.007" y="-27"/>
      <point x="736.064" y="52.4356"/>
      <point x="753.906" y="207" type="curve"/>
      <point x="764.094" y="207" type="line"/>
      <point x="781.936" y="52.4356"/>
      <point x="887.993" y="-27"/>
      <point x="1078" y="-27" type="curve" smooth="yes"/>
      <point x="1333" y="-27"/>
      <point x="1454" y="110"/>
      <point x="1454" y="408" type="curve" smooth="yes"/>
      <point x="1454" y="860" type="line" smooth="yes"/>
      <point x="1454" y="1119"/>
      <point x="1337" y="1244"/>
      <point x="1112" y="1244" type="curve" smooth="yes"/>
      <point x="894" y="1244"/>
      <point x="785" y="1133"/>
      <point x="785" y="913" type="curve" smooth="yes"/>
      <point x="785" y="902" type="line" smooth="yes"/>
      <point x="785" y="770"/>
      <point x="833" y="713"/>
      <point x="930" y="702" type="curve"/>
      <point x="930" y="685" type="line"/>
      <point x="1099" y="685" type="line"/>
      <point x="1099" y="694" type="line"/>
      <point x="1076" y="693"/>
      <point x="1062" y="721"/>
      <point x="1062" y="789" type="curve" smooth="yes"/>
      <point x="1062" y="902" type="line" smooth="yes"/>
      <point x="1062" y="961"/>
      <point x="1075" y="984"/>
      <point x="1108" y="984" type="curve" smooth="yes"/>
      <point x="1142" y="984"/>
      <point x="1154" y="961"/>
      <point x="1154" y="902" type="curve" smooth="yes"/>
      <point x="1154" y="416" type="line" smooth="yes"/>
      <point x="1154" y="310"/>
      <point x="1113" y="264"/>
      <point x="1029" y="264" type="curve" smooth="yes"/>
      <point x="952" y="264"/>
      <point x="914" y="307"/>
      <point x="904" y="408" type="curve" smooth="yes"/>
      <point x="901" y="438" type="line"/>
      <point x="617" y="438" type="line"/>
      <point x="614" y="408" type="line" smooth="yes"/>
      <point x="604" y="307"/>
      <point x="566" y="264"/>
      <point x="489" y="264" type="curve" smooth="yes"/>
      <point x="405" y="264"/>
      <point x="364" y="310"/>
      <point x="364" y="416" type="curve" smooth="yes"/>
      <point x="364" y="680.6" type="line"/>
    </contour>
    <contour>
      <point x="1103" y="477" type="line"/>
      <point x="1103" y="694" type="line"/>
      <point x="536" y="694" type="line"/>
      <point x="536" y="477" type="line"/>
    </contour>
    <contour>
      <point x="536" y="477" type="curve"/>
      <point x="667" y="562"/>
      <point x="733" y="638"/>
      <point x="733" y="795" type="curve" smooth="yes"/>
      <point x="733" y="893" type="line" smooth="yes"/>
      <point x="733" y="1126"/>
      <point x="624" y="1244"/>
      <point x="406" y="1244" type="curve" smooth="yes"/>
      <point x="180" y="1244"/>
      <point x="63" y="1119"/>
      <point x="63" y="860" type="curve" smooth="yes"/>
      <point x="63" y="651.821" type="line"/>
      <point x="356" y="669" type="line"/>
      <point x="356" y="900" type="line" smooth="yes"/>
      <point x="356" y="960"/>
      <point x="369" y="984"/>
      <point x="404" y="984" type="curve" smooth="yes"/>
      <point x="439" y="984"/>
      <point x="452" y="960"/>
      <point x="452" y="900" type="curve" smooth="yes"/>
      <point x="452" y="760" type="line" smooth="yes"/>
      <point x="452" y="717"/>
      <point x="438" y="697"/>
      <point x="406" y="697" type="curve" smooth="yes"/>
      <point x="364" y="697"/>
      <point x="339" y="729"/>
      <point x="331" y="794" type="curve"/>
      <point x="330" y="603" type="line"/>
      <point x="372" y="603" type="line"/>
      <point x="391" y="520"/>
      <point x="447" y="477"/>
    </contour>
  </outline>
  <guideline angle="90" x="761" y="0"/>
  <guideline angle="90" x="1460" y="0"/>
  <guideline angle="0" x="0" y="1327"/>
</glyph>
<glyph name="La.kn" format="2">
  <advance width="1205"/>
  <unicode hex="0CB2"/>
  <outline>
    <contour>
      <point x="348" y="664" type="line"/>
      <point x="348" y="899" type="line" smooth="yes"/>
      <point x="348" y="959"/>
      <point x="362" y="984"/>
      <point x="397" y="984" type="curve" smooth="yes"/>
      <point x="432" y="984"/>
      <point x="446" y="959"/>
      <point x="446" y="899" type="curve" smooth="yes"/>
      <point x="446" y="763" type="line" smooth="yes"/>
      <point x="446" y="720"/>
      <point x="431" y="699"/>
      <point x="399" y="699" type="curve" smooth="yes"/>
      <point x="357" y="699"/>
      <point x="331" y="732"/>
      <point x="323" y="797" type="curve"/>
      <point x="315" y="605" type="line"/>
      <point x="362" y="605" type="line"/>
      <point x="382" y="522"/>
      <point x="440" y="479"/>
      <point x="528" y="479" type="curve" smooth="yes"/>
      <point x="662" y="479"/>
      <point x="730" y="572"/>
      <point x="730" y="756" type="curve" smooth="yes"/>
      <point x="730" y="894" type="line" smooth="yes"/>
      <point x="730" y="1126"/>
      <point x="619" y="1244"/>
      <point x="399" y="1244" type="curve" smooth="yes"/>
      <point x="172" y="1244"/>
      <point x="53" y="1119"/>
      <point x="53" y="861" type="curve" smooth="yes"/>
      <point x="53" y="679.49" type="line"/>
    </contour>
    <contour>
      <point x="53" y="689.49" type="line"/>
      <point x="53" y="534" type="line" smooth="yes"/>
      <point x="53" y="157"/>
      <point x="235" y="-30"/>
      <point x="601" y="-30" type="curve" smooth="yes"/>
      <point x="967" y="-30"/>
      <point x="1149" y="157"/>
      <point x="1149" y="534" type="curve" smooth="yes"/>
      <point x="1149" y="840" type="line" smooth="yes"/>
      <point x="1149" y="1102"/>
      <point x="1056" y="1222"/>
      <point x="852" y="1222" type="curve" smooth="yes"/>
      <point x="823" y="1222"/>
      <point x="796" y="1220"/>
      <point x="776" y="1217" type="curve"/>
      <point x="776" y="930" type="line"/>
      <point x="782" y="931"/>
      <point x="786" y="931"/>
      <point x="790" y="931" type="curve" smooth="yes"/>
      <point x="821" y="931"/>
      <point x="839" y="910"/>
      <point x="839" y="838" type="curve" smooth="yes"/>
      <point x="839" y="546" type="line" smooth="yes"/>
      <point x="839" y="348"/>
      <point x="761" y="253"/>
      <point x="599" y="253" type="curve" smooth="yes"/>
      <point x="434" y="253"/>
      <point x="354" y="346"/>
      <point x="354" y="539" type="curve" smooth="yes"/>
      <point x="354" y="677.459" type="line"/>
    </contour>
  </outline>
  <guideline angle="90.5729" x="597" y="-142"/>
  <guideline angle="0" x="0" y="1315"/>
  <guideline angle="0" x="0" y="1326"/>
</glyph>
<glyph name="Va.kn" format="2">
  <advance width="1243"/>
  <unicode hex="0CB5"/>
  <outline>
    <contour>
      <point x="885" y="-27" type="curve" smooth="yes"/>
      <point x="1084.36" y="-27"/>
      <point x="1178" y="89"/>
      <point x="1178" y="337" type="curve" smooth="yes"/>
      <point x="1178" y="466" type="line" smooth="yes"/>
      <point x="1178" y="790"/>
      <point x="1096" y="926"/>
      <point x="895" y="947" type="curve"/>
      <point x="895" y="996" type="line"/>
      <point x="420" y="992" type="line"/>
      <point x="420" y="955" type="line"/>
      <point x="745" y="955"/>
      <point x="868" y="821"/>
      <point x="868" y="468" type="curve" smooth="yes"/>
      <point x="868" y="339" type="line" smooth="yes"/>
      <point x="868" y="287.63"/>
      <point x="852.388" y="264"/>
      <point x="817" y="264" type="curve" smooth="yes"/>
      <point x="783.769" y="264"/>
      <point x="765.619" y="286.59"/>
      <point x="763" y="337" type="curve" smooth="yes"/>
      <point x="755" y="491" type="line"/>
      <point x="484" y="491" type="line"/>
      <point x="477" y="345" type="line" smooth="yes"/>
      <point x="474.266" y="287.987"/>
      <point x="453" y="260"/>
      <point x="413" y="260" type="curve" smooth="yes"/>
      <point x="371" y="260"/>
      <point x="351" y="289"/>
      <point x="351" y="346" type="curve" smooth="yes"/>
      <point x="351" y="387" type="line" smooth="yes"/>
      <point x="351" y="446"/>
      <point x="367" y="473"/>
      <point x="413" y="473" type="curve" smooth="yes"/>
      <point x="422" y="473"/>
      <point x="432" y="472"/>
      <point x="445" y="470" type="curve"/>
      <point x="430" y="746" type="line"/>
      <point x="401" y="756"/>
      <point x="370" y="763"/>
      <point x="324" y="763" type="curve" smooth="yes"/>
      <point x="141" y="763"/>
      <point x="51" y="645"/>
      <point x="51" y="410" type="curve" smooth="yes"/>
      <point x="51" y="328" type="line" smooth="yes"/>
      <point x="51" y="94"/>
      <point x="155" y="-27"/>
      <point x="348" y="-27" type="curve" smooth="yes"/>
      <point x="511" y="-27"/>
      <point x="599" y="47"/>
      <point x="615" y="192" type="curve"/>
      <point x="623" y="192" type="line"/>
      <point x="638.115" y="44"/>
      <point x="723.769" y="-27"/>
    </contour>
    <contour>
      <point x="903" y="955" type="line"/>
      <point x="903" y="1207" type="line"/>
      <point x="93" y="1207" type="line"/>
      <point x="93" y="955" type="line"/>
    </contour>
    <contour>
      <point x="884" y="1514" type="line"/>
      <point x="893.286" y="1441"/>
      <point x="897" y="1379"/>
      <point x="897" y="1303" type="curve" smooth="yes"/>
      <point x="897" y="1234"/>
      <point x="880" y="1207"/>
      <point x="825" y="1207" type="curve" smooth="yes"/>
      <point x="807" y="1207" type="line"/>
      <point x="863" y="955" type="line"/>
      <point x="968" y="955" type="line" smooth="yes"/>
      <point x="1113" y="955"/>
      <point x="1183" y="1040"/>
      <point x="1183" y="1221" type="curve" smooth="yes"/>
      <point x="1183" y="1315"/>
      <point x="1161.1" y="1418"/>
      <point x="1114" y="1514" type="curve"/>
    </contour>
  </outline>
</glyph>
<glyph name="Sha.kn" format="2">
  <advance width="948"/>
  <unicode hex="0CB6"/>
  <outline>
    <contour>
      <point x="44" y="1207" type="line"/>
      <point x="44" y="964" type="line"/>
      <point x="365" y="964" type="line"/>
      <point x="393" y="964" type="line"/>
      <point x="638" y="964" type="line"/>
      <point x="638" y="1207" type="line"/>
    </contour>
    <contour>
      <point x="584" y="802" type="curve" smooth="yes"/>
      <point x="584" y="422" type="line" smooth="yes"/>
      <point x="584" y="302"/>
      <point x="545" y="246"/>
      <point x="462" y="246" type="curve" smooth="yes"/>
      <point x="390" y="246"/>
      <point x="349" y="282"/>
      <point x="349" y="349" type="curve" smooth="yes"/>
      <point x="349" y="355" type="line" smooth="yes"/>
      <point x="349" y="421"/>
      <point x="383" y="460"/>
      <point x="452" y="503" type="curve" smooth="yes"/>
      <point x="656" y="630" type="line"/>
      <point x="657" y="894" type="line"/>
      <point x="318" y="719" type="line" smooth="yes"/>
      <point x="121" y="617"/>
      <point x="45" y="509"/>
      <point x="45" y="339" type="curve" smooth="yes"/>
      <point x="45" y="333" type="line" smooth="yes"/>
      <point x="45" y="92"/>
      <point x="186" y="-32"/>
      <point x="462" y="-32" type="curve" smooth="yes"/>
      <point x="748" y="-32"/>
      <point x="883" y="110"/>
      <point x="883" y="410" type="curve" smooth="yes"/>
      <point x="883" y="614" type="line" smooth="yes"/>
      <point x="883" y="824"/>
      <point x="833" y="923"/>
      <point x="722" y="950" type="curve"/>
      <point x="722" y="989" type="line"/>
      <point x="229" y="989" type="line"/>
      <point x="229" y="957" type="line"/>
      <point x="121" y="939"/>
      <point x="70" y="879"/>
      <point x="70" y="750" type="curve" smooth="yes"/>
      <point x="70" y="710" type="line"/>
      <point x="369" y="710" type="line"/>
      <point x="369" y="812" type="line" smooth="yes"/>
      <point x="369" y="915"/>
      <point x="401" y="964"/>
      <point x="476" y="964" type="curve" smooth="yes"/>
      <point x="553" y="964"/>
      <point x="584" y="911"/>
    </contour>
    <contour>
      <point x="607" y="1514" type="line"/>
      <point x="616.286" y="1441"/>
      <point x="620" y="1379"/>
      <point x="620" y="1303" type="curve" smooth="yes"/>
      <point x="620" y="1234"/>
      <point x="603" y="1207"/>
      <point x="548" y="1207" type="curve" smooth="yes"/>
      <point x="530" y="1207" type="line"/>
      <point x="586" y="955" type="line"/>
      <point x="691" y="955" type="line" smooth="yes"/>
      <point x="836" y="955"/>
      <point x="906" y="1040"/>
      <point x="906" y="1221" type="curve" smooth="yes"/>
      <point x="906" y="1315"/>
      <point x="884.095" y="1418"/>
      <point x="837" y="1514" type="curve"/>
    </contour>
  </outline>
  <guideline angle="0" x="0" y="1709"/>
  <guideline angle="90" x="103" y="0"/>
  <guideline angle="90" x="14" y="0"/>
</glyph>
<glyph name="Sa.kn" format="2">
  <advance width="1183"/>
  <unicode hex="0CB8"/>
  <outline>
    <contour>
      <point x="859" y="955" type="line"/>
      <point x="859" y="1207" type="line"/>
      <point x="67" y="1207" type="line"/>
      <point x="67" y="955" type="line"/>
    </contour>
    <contour>
      <point x="563" y="657" type="curve" smooth="yes"/>
      <point x="659" y="657"/>
      <point x="710" y="714"/>
      <point x="710" y="824" type="curve" smooth="yes"/>
      <point x="710" y="848" type="line" smooth="yes"/>
      <point x="710" y="958"/>
      <point x="659" y="1017"/>
      <point x="563" y="1017" type="curve" smooth="yes"/>
      <point x="467" y="1017"/>
      <point x="415" y="958"/>
      <point x="415" y="848" type="curve" smooth="yes"/>
      <point x="415" y="826" type="line" smooth="yes"/>
      <point x="415" y="716"/>
      <point x="467" y="657"/>
    </contour>
    <contour>
      <point x="1124" y="352" type="curve" smooth="yes"/>
      <point x="1124" y="458" type="line" smooth="yes"/>
      <point x="1124" y="625"/>
      <point x="1098" y="728"/>
      <point x="1052" y="826" type="curve"/>
      <point x="756" y="826" type="line"/>
      <point x="794" y="735"/>
      <point x="816" y="620"/>
      <point x="816" y="463" type="curve" smooth="yes"/>
      <point x="816" y="343" type="line" smooth="yes"/>
      <point x="816" y="280"/>
      <point x="799" y="252"/>
      <point x="765" y="252" type="curve" smooth="yes"/>
      <point x="732" y="252"/>
      <point x="715" y="272"/>
      <point x="704" y="325" type="curve" smooth="yes"/>
      <point x="697" y="359" type="line" smooth="yes"/>
      <point x="656" y="557"/>
      <point x="564" y="657"/>
      <point x="363" y="657" type="curve" smooth="yes"/>
      <point x="149" y="657"/>
      <point x="40" y="541"/>
      <point x="40" y="310" type="curve" smooth="yes"/>
      <point x="40" y="283" type="line" smooth="yes"/>
      <point x="40" y="151"/>
      <point x="59" y="44"/>
      <point x="93" y="-12" type="curve"/>
      <point x="388" y="-12" type="line"/>
      <point x="355" y="65"/>
      <point x="332" y="185"/>
      <point x="332" y="286" type="curve" smooth="yes"/>
      <point x="332" y="306" type="line" smooth="yes"/>
      <point x="332" y="367"/>
      <point x="346" y="389"/>
      <point x="376" y="389" type="curve" smooth="yes"/>
      <point x="406" y="389"/>
      <point x="420" y="365"/>
      <point x="429" y="306" type="curve" smooth="yes"/>
      <point x="435" y="267" type="line" smooth="yes"/>
      <point x="465" y="70"/>
      <point x="568" y="-27"/>
      <point x="777" y="-27" type="curve" smooth="yes"/>
      <point x="1007" y="-27"/>
      <point x="1124" y="102"/>
    </contour>
    <contour>
      <point x="827" y="1514" type="line"/>
      <point x="836.286" y="1441"/>
      <point x="840" y="1379"/>
      <point x="840" y="1303" type="curve" smooth="yes"/>
      <point x="840" y="1234"/>
      <point x="823" y="1207"/>
      <point x="768" y="1207" type="curve" smooth="yes"/>
      <point x="750" y="1207" type="line"/>
      <point x="806" y="955" type="line"/>
      <point x="911" y="955" type="line" smooth="yes"/>
      <point x="1056" y="955"/>
      <point x="1126" y="1040"/>
      <point x="1126" y="1221" type="curve" smooth="yes"/>
      <point x="1126" y="1315"/>
      <point x="1104.1" y="1418"/>
      <point x="1057" y="1514" type="curve"/>
    </contour>
  </outline>
</glyph>
<glyph name="Nukta1.kn" format="2">
  <unicode hex="0CBC"/>
  <anchor x="0" y="0" name="_nukta"/>
  <outline>
    <contour>
      <point x="-187" y="-90" type="curve" smooth="yes"/>
      <point x="-265" y="-90"/>
      <point x="-314" y="-139"/>
      <point x="-314" y="-236" type="curve" smooth="yes"/>
      <point x="-314" y="-333"/>
      <point x="-265" y="-382"/>
      <point x="-187" y="-382" type="curve" smooth="yes"/>
      <point x="-109" y="-382"/>
      <point x="-60" y="-333"/>
      <point x="-60" y="-236" type="curve" smooth="yes"/>
      <point x="-60" y="-139"/>
      <point x="-109" y="-90"/>
    </contour>
    <contour>
      <point x="187" y="-90" type="curve" smooth="yes"/>
      <point x="109" y="-90"/>
      <point x="60" y="-139"/>
      <point x="60" y="-236" type="curve" smooth="yes"/>
      <point x="60" y="-333"/>
      <point x="109" y="-382"/>
      <point x="187" y="-382" type="curve" smooth="yes"/>
      <point x="265" y="-382"/>
      <point x="314" y="-333"/>
      <point x="314" y="-236" type="curve" smooth="yes"/>
      <point x="314" y="-139"/>
      <point x="265" y="-90"/>
    </contour>
  </outline>
</glyph>
<glyph name="matraI.kn" format="2">
  <advance width="711"/>
  <unicode hex="0CBF"/>
  <outline>
    <contour>
      <point x="672" y="1115" type="line" smooth="yes"/>
      <point x="672" y="1345"/>
      <point x="565" y="1456"/>
      <point x="358" y="1456" type="curve" smooth="yes"/>
      <point x="157" y="1456"/>
      <point x="58" y="1353"/>
      <point x="58" y="1147" type="curve" smooth="yes"/>
      <point x="58" y="1117" type="line" smooth="yes"/>
      <point x="58" y="960"/>
      <point x="119" y="881"/>
      <point x="243" y="881" type="curve" smooth="yes"/>
      <point x="324" y="881"/>
      <point x="379" y="920"/>
      <point x="398" y="988" type="curve"/>
      <point x="433" y="988" type="line"/>
      <point x="427" y="1152" type="line"/>
      <point x="419" y="1094"/>
      <point x="396" y="1065"/>
      <point x="358" y="1065" type="curve" smooth="yes"/>
      <point x="327" y="1065"/>
      <point x="313" y="1083"/>
      <point x="313" y="1121" type="curve" smooth="yes"/>
      <point x="313" y="1154" type="line" smooth="yes"/>
      <point x="313" y="1208"/>
      <point x="327" y="1229"/>
      <point x="359" y="1229" type="curve" smooth="yes"/>
      <point x="392" y="1229"/>
      <point x="406" y="1208"/>
      <point x="406" y="1154" type="curve" smooth="yes"/>
      <point x="406" y="984" type="line" smooth="yes"/>
      <point x="406" y="875"/>
      <point x="346" y="823"/>
      <point x="224" y="823" type="curve" smooth="yes"/>
      <point x="203" y="823"/>
      <point x="183" y="825"/>
      <point x="166" y="828" type="curve"/>
      <point x="232" y="614" type="line"/>
      <point x="260" y="609"/>
      <point x="285" y="607"/>
      <point x="313" y="607" type="curve" smooth="yes"/>
      <point x="557" y="607"/>
      <point x="672" y="755"/>
      <point x="672" y="1033" type="curve" smooth="yes"/>
    </contour>
  </outline>
</glyph>
<glyph name="matraUu.kn" format="2">
  <advance width="1196"/>
  <unicode hex="0CC2"/>
  <outline>
    <contour>
      <point x="2" y="256" type="curve" smooth="yes"/>
      <point x="-45" y="256"/>
      <point x="-67" y="288"/>
      <point x="-67" y="362" type="curve" smooth="yes"/>
      <point x="-67" y="383" type="line"/>
      <point x="-138" y="383" type="line"/>
      <point x="-138" y="324" type="line" smooth="yes"/>
      <point x="-138" y="93"/>
      <point x="-49" y="-25"/>
      <point x="118" y="-25" type="curve" smooth="yes"/>
      <point x="289" y="-25"/>
      <point x="370" y="97"/>
      <point x="370" y="339" type="curve" smooth="yes"/>
      <point x="370" y="606" type="line"/>
      <point x="69" y="606" type="line"/>
      <point x="69" y="363" type="line" smooth="yes"/>
      <point x="69" y="289"/>
      <point x="51" y="256"/>
    </contour>
    <contour>
      <point x="603" y="1244" type="curve" smooth="yes"/>
      <point x="250" y="1244"/>
      <point x="69" y="1059"/>
      <point x="69" y="701" type="curve" smooth="yes"/>
      <point x="69" y="579" type="line"/>
      <point x="370" y="579" type="line"/>
      <point x="370" y="696" type="line" smooth="yes"/>
      <point x="370" y="883"/>
      <point x="433" y="979"/>
      <point x="602" y="979" type="curve" smooth="yes"/>
      <point x="771" y="979"/>
      <point x="834" y="880"/>
      <point x="834" y="696" type="curve" smooth="yes"/>
      <point x="834" y="529.304" type="line"/>
      <point x="1134" y="523.605" type="line"/>
      <point x="1134" y="701" type="line" smooth="yes"/>
      <point x="1134" y="1059"/>
      <point x="952" y="1244"/>
    </contour>
    <contour>
      <point x="1134" y="533.605" type="line"/>
      <point x="838.765" y="540.895" type="line"/>
      <point x="839" y="313" type="line" smooth="yes"/>
      <point x="839.062" y="253"/>
      <point x="825" y="228"/>
      <point x="790" y="228" type="curve" smooth="yes"/>
      <point x="755" y="228"/>
      <point x="741" y="253"/>
      <point x="741" y="313" type="curve" smooth="yes"/>
      <point x="741" y="443" type="line" smooth="yes"/>
      <point x="741" y="486"/>
      <point x="756" y="507"/>
      <point x="788" y="507" type="curve" smooth="yes"/>
      <point x="830" y="507"/>
      <point x="856" y="474"/>
      <point x="864" y="408" type="curve"/>
      <point x="872" y="602" type="line"/>
      <point x="826" y="602" type="line"/>
      <point x="806" y="703"/>
      <point x="751" y="753"/>
      <point x="655" y="753" type="curve" smooth="yes"/>
      <point x="518" y="753"/>
      <point x="452" y="656"/>
      <point x="452" y="461" type="curve" smooth="yes"/>
      <point x="452" y="323" type="line" smooth="yes"/>
      <point x="452" y="91"/>
      <point x="564" y="-27"/>
      <point x="788" y="-27" type="curve" smooth="yes"/>
      <point x="1015" y="-27"/>
      <point x="1134" y="98"/>
      <point x="1134" y="356" type="curve" smooth="yes"/>
    </contour>
  </outline>
  <guideline angle="90" x="-67" y="0"/>
</glyph>
<glyph name="matraRuu.kn" format="2">
  <advance width="626"/>
  <unicode hex="0CC4"/>
  <outline>
    <contour>
      <point x="-2" y="191" type="line"/>
      <point x="40.5062" y="112.733"/>
      <point x="78" y="0.385002"/>
      <point x="78" y="-182" type="curve" smooth="yes"/>
      <point x="78" y="-452" type="line" smooth="yes"/>
      <point x="78" y="-552"/>
      <point x="30" y="-602"/>
      <point x="-69" y="-602" type="curve" smooth="yes"/>
      <point x="-168" y="-602"/>
      <point x="-216" y="-552"/>
      <point x="-216" y="-452" type="curve" smooth="yes"/>
      <point x="-216" y="-404" type="line"/>
      <point x="-404" y="-402" type="line"/>
      <point x="-404" y="-457" type="line" smooth="yes"/>
      <point x="-404" y="-660"/>
      <point x="-285" y="-770"/>
      <point x="-69" y="-770" type="curve" smooth="yes"/>
      <point x="149.579" y="-770"/>
      <point x="270" y="-660"/>
      <point x="270" y="-457" type="curve" smooth="yes"/>
      <point x="270" y="-184" type="line" smooth="yes"/>
      <point x="270" y="13"/>
      <point x="218.131" y="120"/>
      <point x="159" y="197" type="curve"/>
      <point x="1" y="197" type="line"/>
    </contour>
    <contour>
      <point x="716" y="-164.314" type="line"/>
      <point x="716" y="-111" type="line" smooth="yes"/>
      <point x="716" y="95"/>
      <point x="608" y="197"/>
      <point x="392" y="197" type="curve" smooth="yes"/>
      <point x="105" y="197" type="line"/>
      <point x="119" y="36" type="line"/>
      <point x="386" y="36" type="line" smooth="yes"/>
      <point x="491" y="36"/>
      <point x="534" y="-12"/>
      <point x="534" y="-110" type="curve" smooth="yes"/>
      <point x="534" y="-161.212" type="line"/>
    </contour>
    <contour>
      <point x="542" y="-159" type="line"/>
      <point x="542" y="-269" type="line" smooth="yes"/>
      <point x="542" y="-301"/>
      <point x="535" y="-314"/>
      <point x="516" y="-314" type="curve" smooth="yes"/>
      <point x="496" y="-314"/>
      <point x="490" y="-301"/>
      <point x="490" y="-269" type="curve" smooth="yes"/>
      <point x="490" y="-222" type="line" smooth="yes"/>
      <point x="490" y="-199"/>
      <point x="496" y="-187"/>
      <point x="514" y="-187" type="curve" smooth="yes"/>
      <point x="529" y="-187"/>
      <point x="539" y="-196"/>
      <point x="546" y="-211" type="curve"/>
      <point x="548" y="-124" type="line"/>
      <point x="530" y="-124" type="line"/>
      <point x="520" y="-81"/>
      <point x="486" y="-56"/>
      <point x="433" y="-56" type="curve" smooth="yes"/>
      <point x="360" y="-56"/>
      <point x="321" y="-109"/>
      <point x="321" y="-214" type="curve" smooth="yes"/>
      <point x="321" y="-278" type="line" smooth="yes"/>
      <point x="321" y="-400"/>
      <point x="387" y="-461"/>
      <point x="512" y="-461" type="curve" smooth="yes"/>
      <point x="645" y="-461"/>
      <point x="716" y="-394"/>
      <point x="716" y="-249" type="curve" smooth="yes"/>
      <point x="716" y="-154.314" type="line"/>
    </contour>
    <contour>
      <point x="-192" y="-97" type="curve" smooth="yes"/>
      <point x="-330" y="-97"/>
      <point x="-404" y="-166"/>
      <point x="-404" y="-314" type="curve" smooth="yes"/>
      <point x="-404" y="-408" type="line"/>
      <point x="-224" y="-409" type="line"/>
      <point x="-224" y="-292" type="line" smooth="yes"/>
      <point x="-224" y="-260"/>
      <point x="-216" y="-247"/>
      <point x="-196" y="-247" type="curve" smooth="yes"/>
      <point x="-176" y="-247"/>
      <point x="-168" y="-260"/>
      <point x="-168" y="-292" type="curve" smooth="yes"/>
      <point x="-168" y="-357" type="line" smooth="yes"/>
      <point x="-168" y="-378"/>
      <point x="-175" y="-389"/>
      <point x="-194" y="-389" type="curve" smooth="yes"/>
      <point x="-214.235" y="-389"/>
      <point x="-228.147" y="-374"/>
      <point x="-237" y="-344" type="curve"/>
      <point x="-249" y="-444" type="line"/>
      <point x="-212" y="-444" type="line"/>
      <point x="-202" y="-489"/>
      <point x="-167" y="-515"/>
      <point x="-113" y="-515" type="curve" smooth="yes"/>
      <point x="-36" y="-515"/>
      <point x="5" y="-466"/>
      <point x="5" y="-364" type="curve" smooth="yes"/>
      <point x="5" y="-292" type="line" smooth="yes"/>
      <point x="5" y="-162"/>
      <point x="-63" y="-97"/>
    </contour>
  </outline>
</glyph>
<glyph name="matraAu.kn" format="2">
  <advance width="1183"/>
  <unicode hex="0CCC"/>
  <outline>
    <contour>
      <point x="211" y="955" type="line" smooth="yes"/>
      <point x="373" y="955"/>
      <point x="448" y="1028"/>
      <point x="448" y="1183" type="curve" smooth="yes"/>
      <point x="448" y="1189" type="line" smooth="yes"/>
      <point x="448" y="1303"/>
      <point x="400" y="1367"/>
      <point x="304" y="1378" type="curve"/>
      <point x="304" y="1420" type="line"/>
      <point x="85" y="1420" type="line"/>
      <point x="81" y="1386" type="line"/>
      <point x="135" y="1386"/>
      <point x="161" y="1357"/>
      <point x="161" y="1299" type="curve" smooth="yes"/>
      <point x="161" y="1294" type="line" smooth="yes"/>
      <point x="161" y="1236"/>
      <point x="135" y="1207"/>
      <point x="81" y="1207" type="curve" smooth="yes"/>
      <point x="63" y="1207" type="line"/>
      <point x="63" y="955" type="line"/>
    </contour>
    <contour>
      <point x="824" y="440" type="curve" smooth="yes"/>
      <point x="1044" y="440"/>
      <point x="1153" y="553"/>
      <point x="1153" y="776" type="curve" smooth="yes"/>
      <point x="1153" y="1002.79" type="line"/>
      <point x="873" y="1004.15" type="line"/>
      <point x="873" y="765" type="line" smooth="yes"/>
      <point x="873" y="708"/>
      <point x="859" y="685"/>
      <point x="826" y="685" type="curve" smooth="yes"/>
      <point x="792" y="685"/>
      <point x="779" y="708"/>
      <point x="779" y="765" type="curve" smooth="yes"/>
      <point x="779" y="897" type="line" smooth="yes"/>
      <point x="779" y="938"/>
      <point x="793" y="959"/>
      <point x="825" y="959" type="curve" smooth="yes"/>
      <point x="862" y="959"/>
      <point x="885" y="930"/>
      <point x="892" y="872" type="curve"/>
      <point x="900" y="1054" type="line"/>
      <point x="856" y="1054" type="line"/>
      <point x="839" y="1154"/>
      <point x="786" y="1201"/>
      <point x="694" y="1201" type="curve" smooth="yes"/>
      <point x="565" y="1201"/>
      <point x="502" y="1108"/>
      <point x="502" y="919" type="curve" smooth="yes"/>
      <point x="502" y="785" type="line" smooth="yes"/>
      <point x="502" y="551"/>
      <point x="612" y="440"/>
    </contour>
    <contour>
      <point x="1153" y="992.789" type="line"/>
      <point x="1153" y="1100" type="line" smooth="yes"/>
      <point x="1153" y="1459"/>
      <point x="967" y="1628"/>
      <point x="552" y="1628" type="curve" smooth="yes"/>
      <point x="-33" y="1628" type="line"/>
      <point x="-33" y="1386" type="line"/>
      <point x="548" y="1386" type="line" smooth="yes"/>
      <point x="769" y="1386"/>
      <point x="864" y="1299"/>
      <point x="864" y="1095" type="curve" smooth="yes"/>
      <point x="864" y="994.253" type="line"/>
    </contour>
  </outline>
</glyph>
<glyph name="LllaObsolete.kn" format="2">
  <advance width="1519"/>
  <unicode hex="0CDE"/>
  <outline>
    <contour>
      <point x="63" y="707" type="line"/>
      <point x="63" y="408" type="line" smooth="yes"/>
      <point x="63" y="110"/>
      <point x="185" y="-27"/>
      <point x="440" y="-27" type="curve" smooth="yes"/>
      <point x="630.007" y="-27"/>
      <point x="736.064" y="52.4356"/>
      <point x="753.906" y="207" type="curve"/>
      <point x="764.094" y="207" type="line"/>
      <point x="781.936" y="52.4356"/>
      <point x="887.993" y="-27"/>
      <point x="1078" y="-27" type="curve" smooth="yes"/>
      <point x="1332" y="-27"/>
      <point x="1454" y="110"/>
      <point x="1454" y="408" type="curve" smooth="yes"/>
      <point x="1454" y="727.05" type="line"/>
      <point x="1154" y="702.45" type="line"/>
      <point x="1154" y="416" type="line" smooth="yes"/>
      <point x="1154" y="310"/>
      <point x="1113" y="264"/>
      <point x="1029" y="264" type="curve" smooth="yes"/>
      <point x="952" y="264"/>
      <point x="913" y="309"/>
      <point x="904" y="413" type="curve" smooth="yes"/>
      <point x="898" y="484" type="line"/>
      <point x="620" y="484" type="line"/>
      <point x="614" y="413" type="line" smooth="yes"/>
      <point x="605" y="309"/>
      <point x="566" y="264"/>
      <point x="489" y="264" type="curve" smooth="yes"/>
      <point x="405" y="264"/>
      <point x="364" y="310"/>
      <point x="364" y="416" type="curve" smooth="yes"/>
      <point x="364" y="706.55" type="line"/>
    </contour>
    <contour>
      <point x="406" y="1244" type="curve" smooth="yes"/>
      <point x="180" y="1244"/>
      <point x="63" y="1119"/>
      <point x="63" y="860" type="curve" smooth="yes"/>
      <point x="63" y="696.69" type="line"/>
      <point x="356" y="697.538" type="line"/>
      <point x="356" y="900" type="line" smooth="yes"/>
      <point x="356" y="960"/>
      <point x="369" y="984"/>
      <point x="404" y="984" type="curve" smooth="yes"/>
      <point x="439" y="984"/>
      <point x="452" y="960"/>
      <point x="452" y="900" type="curve" smooth="yes"/>
      <point x="452" y="791" type="line" smooth="yes"/>
      <point x="452" y="748"/>
      <point x="438" y="728"/>
      <point x="406" y="728" type="curve" smooth="yes"/>
      <point x="364" y="728"/>
      <point x="339" y="760"/>
      <point x="331" y="825" type="curve"/>
      <point x="330" y="634" type="line"/>
      <point x="372" y="634" type="line"/>
      <point x="391" y="551"/>
      <point x="447" y="508"/>
      <point x="536" y="508" type="curve" smooth="yes"/>
      <point x="667" y="508"/>
      <point x="733" y="601"/>
      <point x="733" y="786" type="curve" smooth="yes"/>
      <point x="733" y="893" type="line" smooth="yes"/>
      <point x="733" y="1126"/>
      <point x="624" y="1244"/>
    </contour>
    <contour>
      <point x="1112" y="1244" type="curve" smooth="yes"/>
      <point x="894" y="1244"/>
      <point x="785" y="1126"/>
      <point x="785" y="893" type="curve" smooth="yes"/>
      <point x="785" y="786" type="line" smooth="yes"/>
      <point x="785" y="601"/>
      <point x="851" y="508"/>
      <point x="982" y="508" type="curve" smooth="yes"/>
      <point x="1071" y="508"/>
      <point x="1127" y="551"/>
      <point x="1146" y="634" type="curve"/>
      <point x="1188" y="634" type="line"/>
      <point x="1187" y="825" type="line"/>
      <point x="1179" y="760"/>
      <point x="1154" y="728"/>
      <point x="1112" y="728" type="curve" smooth="yes"/>
      <point x="1080" y="728"/>
      <point x="1066" y="748"/>
      <point x="1066" y="791" type="curve" smooth="yes"/>
      <point x="1066" y="900" type="line" smooth="yes"/>
      <point x="1066" y="960"/>
      <point x="1079" y="984"/>
      <point x="1114" y="984" type="curve" smooth="yes"/>
      <point x="1149" y="984"/>
      <point x="1162" y="960"/>
      <point x="1162" y="900" type="curve" smooth="yes"/>
      <point x="1162" y="693" type="line"/>
      <point x="1454" y="707.839" type="line"/>
      <point x="1454" y="860" type="line" smooth="yes"/>
      <point x="1454" y="1119"/>
      <point x="1337" y="1244"/>
    </contour>
  </outline>
</glyph>
<glyph name="vowelLruu.kn" format="2">
  <advance width="1263"/>
  <unicode hex="0CE1"/>
  <outline>
    <contour>
      <point x="532" y="-74" type="line"/>
      <point x="485" y="-74" type="line"/>
      <point x="463" y="11"/>
      <point x="413" y="50"/>
      <point x="333" y="50" type="curve" smooth="yes"/>
      <point x="206" y="50"/>
      <point x="145" y="-40"/>
      <point x="145" y="-211" type="curve" smooth="yes"/>
      <point x="145" y="-270" type="line" smooth="yes"/>
      <point x="145" y="-449"/>
      <point x="208" y="-534"/>
      <point x="335" y="-534" type="curve" smooth="yes"/>
      <point x="424" y="-534"/>
      <point x="473" y="-495"/>
      <point x="489" y="-406" type="curve"/>
      <point x="524" y="-406" type="line"/>
      <point x="501" y="-281" type="line"/>
      <point x="490" y="-307"/>
      <point x="467" y="-317"/>
      <point x="444" y="-317" type="curve" smooth="yes"/>
      <point x="411" y="-317"/>
      <point x="395" y="-297"/>
      <point x="395" y="-254" type="curve" smooth="yes"/>
      <point x="395" y="-235" type="line" smooth="yes"/>
      <point x="395" y="-189"/>
      <point x="411" y="-167"/>
      <point x="445" y="-167" type="curve" smooth="yes"/>
      <point x="478" y="-167"/>
      <point x="493" y="-189"/>
      <point x="494" y="-235" type="curve"/>
    </contour>
    <contour>
      <point x="486" y="1207" type="line"/>
      <point x="486" y="1109" type="line" smooth="yes"/>
      <point x="486" y="969"/>
      <point x="499" y="862"/>
      <point x="516" y="753" type="curve"/>
      <point x="508" y="752" type="line"/>
      <point x="477" y="825"/>
      <point x="420" y="874"/>
      <point x="314" y="874" type="curve" smooth="yes"/>
      <point x="137" y="874"/>
      <point x="60" y="751"/>
      <point x="60" y="514" type="curve" smooth="yes"/>
      <point x="60" y="461" type="line" smooth="yes"/>
      <point x="60" y="370"/>
      <point x="70" y="219"/>
      <point x="122" y="120" type="curve"/>
      <point x="415" y="120" type="line"/>
      <point x="368" y="247"/>
      <point x="360" y="404"/>
      <point x="360" y="467" type="curve" smooth="yes"/>
      <point x="360" y="485" type="line" smooth="yes"/>
      <point x="360" y="566"/>
      <point x="379" y="597"/>
      <point x="424" y="597" type="curve" smooth="yes"/>
      <point x="463" y="597"/>
      <point x="485" y="566"/>
      <point x="486" y="499" type="curve" smooth="yes"/>
      <point x="497" y="-600" type="line"/>
      <point x="766" y="-600" type="line"/>
      <point x="777" y="499" type="line" smooth="yes"/>
      <point x="778" y="566"/>
      <point x="800" y="597"/>
      <point x="839" y="597" type="curve" smooth="yes"/>
      <point x="884" y="597"/>
      <point x="903" y="566"/>
      <point x="903" y="485" type="curve" smooth="yes"/>
      <point x="903" y="467" type="line" smooth="yes"/>
      <point x="903" y="404"/>
      <point x="895" y="247"/>
      <point x="848" y="120" type="curve"/>
      <point x="1141" y="120" type="line"/>
      <point x="1193" y="219"/>
      <point x="1203" y="370"/>
      <point x="1203" y="461" type="curve" smooth="yes"/>
      <point x="1203" y="514" type="line" smooth="yes"/>
      <point x="1203" y="751"/>
      <point x="1126" y="874"/>
      <point x="949" y="874" type="curve" smooth="yes"/>
      <point x="843" y="874"/>
      <point x="786" y="825"/>
      <point x="755" y="752" type="curve"/>
      <point x="746" y="753" type="line"/>
      <point x="763" y="862"/>
      <point x="776" y="970"/>
      <point x="776" y="1111" type="curve" smooth="yes"/>
      <point x="776" y="1207" type="line"/>
    </contour>
  </outline>
</glyph>
<glyph name="matraLru.kn" format="2">
  <unicode hex="0CE2"/>
  <outline>
    <contour>
      <point x="-243" y="-108" type="line"/>
      <point x="-243" y="-178" type="line" smooth="yes"/>
      <point x="-243" y="-252"/>
      <point x="-237" y="-308"/>
      <point x="-225" y="-367" type="curve"/>
      <point x="-229" y="-368" type="line"/>
      <point x="-245" y="-326"/>
      <point x="-271" y="-300"/>
      <point x="-332" y="-300" type="curve" smooth="yes"/>
      <point x="-434" y="-300"/>
      <point x="-487" y="-373"/>
      <point x="-487" y="-512" type="curve" smooth="yes"/>
      <point x="-487" y="-546" type="line" smooth="yes"/>
      <point x="-487" y="-622"/>
      <point x="-480" y="-696"/>
      <point x="-458" y="-751" type="curve"/>
      <point x="-278" y="-751" type="line"/>
      <point x="-294" y="-699"/>
      <point x="-301" y="-612"/>
      <point x="-301" y="-552" type="curve" smooth="yes"/>
      <point x="-301" y="-514" type="line" smooth="yes"/>
      <point x="-301" y="-479"/>
      <point x="-292" y="-464"/>
      <point x="-273" y="-464" type="curve" smooth="yes"/>
      <point x="-253" y="-464"/>
      <point x="-244" y="-480"/>
      <point x="-243" y="-513" type="curve" smooth="yes"/>
      <point x="-239" y="-748" type="line"/>
      <point x="-70" y="-748" type="line"/>
      <point x="-66" y="-513" type="line" smooth="yes"/>
      <point x="-65" y="-480"/>
      <point x="-56" y="-464"/>
      <point x="-36" y="-464" type="curve" smooth="yes"/>
      <point x="-17" y="-464"/>
      <point x="-8" y="-479"/>
      <point x="-8" y="-514" type="curve" smooth="yes"/>
      <point x="-8" y="-552" type="line" smooth="yes"/>
      <point x="-8" y="-612"/>
      <point x="-19" y="-699"/>
      <point x="-45" y="-751" type="curve"/>
      <point x="139" y="-751" type="line"/>
      <point x="162" y="-696"/>
      <point x="178" y="-622"/>
      <point x="178" y="-546" type="curve" smooth="yes"/>
      <point x="178" y="-512" type="line" smooth="yes"/>
      <point x="178" y="-373"/>
      <point x="125" y="-300"/>
      <point x="23" y="-300" type="curve" smooth="yes"/>
      <point x="-38" y="-300"/>
      <point x="-64" y="-326"/>
      <point x="-80" y="-368" type="curve"/>
      <point x="-84" y="-367" type="line"/>
      <point x="-72" y="-308"/>
      <point x="-66" y="-252"/>
      <point x="-66" y="-178" type="curve" smooth="yes"/>
      <point x="-66" y="-108" type="line"/>
    </contour>
  </outline>
</glyph>
<glyph name="matraLruu.kn" format="2">
  <unicode hex="0CE3"/>
  <outline>
    <contour>
      <point x="-320" y="-585" type="curve" smooth="yes"/>
      <point x="-398" y="-585"/>
      <point x="-435" y="-634"/>
      <point x="-435" y="-730" type="curve" smooth="yes"/>
      <point x="-435" y="-762" type="line" smooth="yes"/>
      <point x="-435" y="-862"/>
      <point x="-397" y="-908"/>
      <point x="-319" y="-908" type="curve" smooth="yes"/>
      <point x="-263" y="-908"/>
      <point x="-234" y="-887"/>
      <point x="-224" y="-838" type="curve"/>
      <point x="-203" y="-838" type="line"/>
      <point x="-218" y="-764" type="line"/>
      <point x="-223" y="-779"/>
      <point x="-236" y="-784"/>
      <point x="-249" y="-784" type="curve" smooth="yes"/>
      <point x="-269" y="-784"/>
      <point x="-278" y="-773"/>
      <point x="-278" y="-749" type="curve"/>
      <point x="-278" y="-747" type="line"/>
      <point x="-278" y="-722"/>
      <point x="-269" y="-709"/>
      <point x="-249" y="-709" type="curve" smooth="yes"/>
      <point x="-230" y="-709"/>
      <point x="-221" y="-722"/>
      <point x="-220" y="-747" type="curve"/>
      <point x="-198" y="-653" type="line"/>
      <point x="-225" y="-653" type="line"/>
      <point x="-240" y="-607"/>
      <point x="-270" y="-585"/>
    </contour>
    <contour>
      <point x="-223" y="-108" type="line"/>
      <point x="-223" y="-178" type="line" smooth="yes"/>
      <point x="-223" y="-232"/>
      <point x="-217" y="-273"/>
      <point x="-205" y="-317" type="curve"/>
      <point x="-209" y="-318" type="line"/>
      <point x="-225" y="-276"/>
      <point x="-251" y="-250"/>
      <point x="-312" y="-250" type="curve" smooth="yes"/>
      <point x="-414" y="-250"/>
      <point x="-467" y="-320"/>
      <point x="-467" y="-452" type="curve" smooth="yes"/>
      <point x="-467" y="-456" type="line" smooth="yes"/>
      <point x="-467" y="-492"/>
      <point x="-464" y="-529"/>
      <point x="-456" y="-562" type="curve"/>
      <point x="-275" y="-562" type="line"/>
      <point x="-279" y="-531"/>
      <point x="-281" y="-498"/>
      <point x="-281" y="-472" type="curve" smooth="yes"/>
      <point x="-281" y="-464" type="line" smooth="yes"/>
      <point x="-281" y="-429"/>
      <point x="-272" y="-414"/>
      <point x="-253" y="-414" type="curve" smooth="yes"/>
      <point x="-233" y="-414"/>
      <point x="-223" y="-430"/>
      <point x="-223" y="-463" type="curve" smooth="yes"/>
      <point x="-219" y="-933" type="line"/>
      <point x="-50" y="-933" type="line"/>
      <point x="-46" y="-463" type="line" smooth="yes"/>
      <point x="-46" y="-430"/>
      <point x="-36" y="-414"/>
      <point x="-16" y="-414" type="curve" smooth="yes"/>
      <point x="3" y="-414"/>
      <point x="12" y="-429"/>
      <point x="12" y="-464" type="curve" smooth="yes"/>
      <point x="12" y="-472" type="line" smooth="yes"/>
      <point x="12" y="-498"/>
      <point x="9" y="-531"/>
      <point x="2" y="-562" type="curve"/>
      <point x="182" y="-562" type="line"/>
      <point x="193" y="-529"/>
      <point x="198" y="-492"/>
      <point x="198" y="-456" type="curve" smooth="yes"/>
      <point x="198" y="-452" type="line" smooth="yes"/>
      <point x="198" y="-320"/>
      <point x="145" y="-250"/>
      <point x="43" y="-250" type="curve" smooth="yes"/>
      <point x="-18" y="-250"/>
      <point x="-44" y="-276"/>
      <point x="-60" y="-318" type="curve"/>
      <point x="-64" y="-317" type="line"/>
      <point x="-52" y="-273"/>
      <point x="-46" y="-232"/>
      <point x="-46" y="-178" type="curve" smooth="yes"/>
      <point x="-46" y="-108" type="line"/>
    </contour>
  </outline>
</glyph>
<glyph name="Ondu.kn" format="2">
  <advance width="968"/>
  <unicode hex="0CE7"/>
  <outline>
    <contour>
      <point x="483" y="1241" type="curve" smooth="yes"/>
      <point x="201" y="1241"/>
      <point x="63" y="1098"/>
      <point x="63" y="803" type="curve" smooth="yes"/>
      <point x="63" y="366" type="line" smooth="yes"/>
      <point x="63" y="204"/>
      <point x="82" y="70"/>
      <point x="116" y="0" type="curve"/>
      <point x="423" y="0" type="line"/>
      <point x="390" y="96"/>
      <point x="371" y="245"/>
      <point x="371" y="369" type="curve" smooth="yes"/>
      <point x="371" y="796" type="line" smooth="yes"/>
      <point x="371" y="907"/>
      <point x="406" y="960"/>
      <point x="483" y="960" type="curve" smooth="yes"/>
      <point x="560" y="960"/>
      <point x="595" y="907"/>
      <point x="595" y="796" type="curve" smooth="yes"/>
      <point x="595" y="369" type="line" smooth="yes"/>
      <point x="595" y="245"/>
      <point x="576" y="96"/>
      <point x="543" y="0" type="curve"/>
      <point x="850" y="0" type="line"/>
      <point x="884" y="70"/>
      <point x="903" y="204"/>
      <point x="903" y="366" type="curve" smooth="yes"/>
      <point x="903" y="803" type="line" smooth="yes"/>
      <point x="903" y="1098"/>
      <point x="766" y="1241"/>
    </contour>
  </outline>
</glyph>
<glyph name="Eradu.kn" format="2">
  <advance width="1194"/>
  <unicode hex="0CE8"/>
  <outline>
    <contour>
      <point x="106" y="739.874" type="line"/>
      <point x="106" y="681" type="line" smooth="yes"/>
      <point x="106" y="456"/>
      <point x="220" y="346"/>
      <point x="445" y="346" type="curve" smooth="yes"/>
      <point x="661" y="346"/>
      <point x="767" y="450"/>
      <point x="767" y="651" type="curve" smooth="yes"/>
      <point x="767" y="697" type="line" smooth="yes"/>
      <point x="767" y="867"/>
      <point x="704" y="954"/>
      <point x="575" y="954" type="curve" smooth="yes"/>
      <point x="484" y="954"/>
      <point x="425" y="911"/>
      <point x="404" y="828" type="curve"/>
      <point x="363" y="828" type="line"/>
      <point x="370" y="655" type="line"/>
      <point x="378" y="719"/>
      <point x="404" y="752"/>
      <point x="445" y="752" type="curve" smooth="yes"/>
      <point x="475" y="752"/>
      <point x="490" y="731"/>
      <point x="490" y="689" type="curve" smooth="yes"/>
      <point x="490" y="649" type="line" smooth="yes"/>
      <point x="490" y="590"/>
      <point x="476" y="568"/>
      <point x="443" y="568" type="curve" smooth="yes"/>
      <point x="409" y="568"/>
      <point x="395" y="590"/>
      <point x="395" y="649" type="curve" smooth="yes"/>
      <point x="395" y="774.228" type="line"/>
    </contour>
    <contour>
      <point x="395" y="769" type="line"/>
      <point x="396" y="830" type="line" smooth="yes"/>
      <point x="396" y="938"/>
      <point x="466" y="998"/>
      <point x="604" y="998" type="curve" smooth="yes"/>
      <point x="762" y="998"/>
      <point x="841" y="902"/>
      <point x="841" y="710" type="curve" smooth="yes"/>
      <point x="841" y="623" type="line" smooth="yes"/>
      <point x="841" y="372"/>
      <point x="721" y="254"/>
      <point x="468" y="254" type="curve" smooth="yes"/>
      <point x="0" y="254" type="line"/>
      <point x="30" y="0" type="line"/>
      <point x="512" y="0" type="line" smooth="yes"/>
      <point x="938" y="0"/>
      <point x="1141" y="187"/>
      <point x="1141" y="597" type="curve" smooth="yes"/>
      <point x="1141" y="708" type="line" smooth="yes"/>
      <point x="1141" y="1067"/>
      <point x="968" y="1241"/>
      <point x="612" y="1241" type="curve" smooth="yes"/>
      <point x="279" y="1241"/>
      <point x="106" y="1083"/>
      <point x="106" y="775" type="curve" smooth="yes"/>
      <point x="106" y="731.454" type="line"/>
    </contour>
  </outline>
</glyph>
<glyph name="Muru.kn" format="2">
  <advance width="1054"/>
  <unicode hex="0CE9"/>
  <outline>
    <contour>
      <point x="991" y="-27" type="curve" smooth="yes"/>
      <point x="1009" y="-27" type="line"/>
      <point x="1048" y="237" type="line"/>
      <point x="990" y="237" type="line" smooth="yes"/>
      <point x="852" y="237"/>
      <point x="786" y="287"/>
      <point x="786" y="428" type="curve" smooth="yes"/>
      <point x="786" y="472" type="line"/>
      <point x="680" y="472" type="line"/>
      <point x="680" y="260" type="line" smooth="yes"/>
      <point x="680" y="70"/>
      <point x="787" y="-27"/>
    </contour>
    <contour>
      <point x="395" y="-27" type="curve" smooth="yes"/>
      <point x="612" y="-27"/>
      <point x="731" y="82"/>
      <point x="731" y="313" type="curve"/>
      <point x="642" y="295" type="line"/>
      <point x="786" y="295" type="line"/>
      <point x="786" y="315"/>
      <point x="786" y="400"/>
      <point x="786" y="422" type="curve" smooth="yes"/>
      <point x="786" y="867" type="line" smooth="yes"/>
      <point x="786" y="1116"/>
      <point x="659" y="1244"/>
      <point x="422" y="1244" type="curve" smooth="yes"/>
      <point x="191" y="1244"/>
      <point x="67" y="1126"/>
      <point x="67" y="907" type="curve" smooth="yes"/>
      <point x="67" y="870" type="line" smooth="yes"/>
      <point x="67" y="809"/>
      <point x="78" y="747"/>
      <point x="99" y="708" type="curve"/>
      <point x="375" y="708" type="line"/>
      <point x="366" y="739"/>
      <point x="357" y="788"/>
      <point x="357" y="847" type="curve" smooth="yes"/>
      <point x="357" y="883" type="line" smooth="yes"/>
      <point x="357" y="946"/>
      <point x="377" y="976"/>
      <point x="422" y="976" type="curve" smooth="yes"/>
      <point x="467" y="976"/>
      <point x="486" y="946"/>
      <point x="486" y="883" type="curve" smooth="yes"/>
      <point x="486" y="464" type="line"/>
      <point x="489" y="424"/>
      <point x="489" y="449"/>
      <point x="492" y="409" type="curve"/>
      <point x="492" y="403.261"/>
      <point x="492" y="337.058"/>
      <point x="492" y="333" type="curve" smooth="yes"/>
      <point x="492" y="257.496"/>
      <point x="467" y="225"/>
      <point x="413" y="225" type="curve" smooth="yes"/>
      <point x="357" y="225"/>
      <point x="331" y="257.128"/>
      <point x="331" y="328" type="curve" smooth="yes"/>
      <point x="331" y="344" type="line" smooth="yes"/>
      <point x="331" y="405.361"/>
      <point x="359" y="437"/>
      <point x="410" y="437" type="curve" smooth="yes"/>
      <point x="455" y="437"/>
      <point x="482" y="413.408"/>
      <point x="501" y="370" type="curve"/>
      <point x="513" y="520" type="line"/>
      <point x="492" y="613"/>
      <point x="427" y="668"/>
      <point x="304" y="668" type="curve" smooth="yes"/>
      <point x="134" y="668"/>
      <point x="45" y="561"/>
      <point x="45" y="356" type="curve" smooth="yes"/>
      <point x="45" y="321" type="line" smooth="yes"/>
      <point x="45" y="92"/>
      <point x="163" y="-27"/>
    </contour>
  </outline>
</glyph>
<glyph name="Aidu.kn" format="2">
  <advance width="1487"/>
  <unicode hex="0CEB"/>
  <outline>
    <contour>
      <point x="398" y="1244" type="curve" smooth="yes"/>
      <point x="181" y="1244"/>
      <point x="63" y="1130"/>
      <point x="63" y="918" type="curve" smooth="yes"/>
      <point x="63" y="882" type="line" smooth="yes"/>
      <point x="63" y="819"/>
      <point x="74" y="754"/>
      <point x="95" y="714" type="curve"/>
      <point x="365" y="714" type="line"/>
      <point x="356" y="745"/>
      <point x="347" y="794"/>
      <point x="347" y="853" type="curve" smooth="yes"/>
      <point x="347" y="901" type="line" smooth="yes"/>
      <point x="347" y="953"/>
      <point x="363" y="978"/>
      <point x="398" y="978" type="curve" smooth="yes"/>
      <point x="433" y="978"/>
      <point x="448" y="953"/>
      <point x="448" y="901" type="curve" smooth="yes"/>
      <point x="448" y="551" type="line"/>
      <point x="456" y="496" type="line"/>
      <point x="456" y="314" type="line" smooth="yes"/>
      <point x="456" y="245"/>
      <point x="436" y="216"/>
      <point x="393" y="216" type="curve" smooth="yes"/>
      <point x="349" y="216"/>
      <point x="328" y="245"/>
      <point x="328" y="310" type="curve" smooth="yes"/>
      <point x="328" y="347" type="line" smooth="yes"/>
      <point x="328" y="410"/>
      <point x="349" y="442"/>
      <point x="404" y="442" type="curve" smooth="yes"/>
      <point x="537" y="442" type="line"/>
      <point x="688" y="441" type="line"/>
      <point x="1118" y="441" type="line" smooth="yes"/>
      <point x="1142" y="441"/>
      <point x="1156" y="441"/>
      <point x="1180" y="441" type="curve"/>
      <point x="1199" y="474" type="line"/>
      <point x="1348" y="491"/>
      <point x="1439" y="597"/>
      <point x="1439" y="781" type="curve" smooth="yes"/>
      <point x="1439" y="926" type="line" smooth="yes"/>
      <point x="1439" y="1135"/>
      <point x="1327" y="1244"/>
      <point x="1110" y="1244" type="curve" smooth="yes"/>
      <point x="900" y="1244"/>
      <point x="789" y="1142"/>
      <point x="789" y="926" type="curve" smooth="yes"/>
      <point x="789" y="886" type="line" smooth="yes"/>
      <point x="789" y="763"/>
      <point x="827" y="695"/>
      <point x="888" y="637" type="curve"/>
      <point x="1030" y="470" type="line"/>
      <point x="1095" y="428"/>
      <point x="1115" y="394"/>
      <point x="1115" y="346" type="curve" smooth="yes"/>
      <point x="1115" y="341" type="line" smooth="yes"/>
      <point x="1115" y="276"/>
      <point x="1074" y="248"/>
      <point x="987" y="248" type="curve" smooth="yes"/>
      <point x="937" y="248"/>
      <point x="865" y="263"/>
      <point x="816" y="299" type="curve"/>
      <point x="846" y="26" type="line"/>
      <point x="918" y="-10"/>
      <point x="996" y="-27"/>
      <point x="1090" y="-27" type="curve" smooth="yes"/>
      <point x="1305" y="-27"/>
      <point x="1410" y="70"/>
      <point x="1410" y="270" type="curve" smooth="yes"/>
      <point x="1410" y="279" type="line" smooth="yes"/>
      <point x="1410" y="410"/>
      <point x="1350" y="482"/>
      <point x="1241" y="550" type="curve"/>
      <point x="1130" y="676" type="line"/>
      <point x="1076" y="710"/>
      <point x="1064" y="766"/>
      <point x="1064" y="845" type="curve" smooth="yes"/>
      <point x="1064" y="916" type="line" smooth="yes"/>
      <point x="1064" y="967"/>
      <point x="1079" y="989"/>
      <point x="1111" y="989" type="curve" smooth="yes"/>
      <point x="1143" y="989"/>
      <point x="1159" y="967"/>
      <point x="1159" y="920" type="curve" smooth="yes"/>
      <point x="1159" y="801" type="line" smooth="yes"/>
      <point x="1159" y="694"/>
      <point x="1136" y="667"/>
      <point x="1052" y="667" type="curve" smooth="yes"/>
      <point x="673" y="667" type="line"/>
      <point x="501" y="669" type="line"/>
      <point x="356" y="669" type="line" smooth="yes"/>
      <point x="151" y="669"/>
      <point x="45" y="562"/>
      <point x="45" y="357" type="curve" smooth="yes"/>
      <point x="45" y="308" type="line" smooth="yes"/>
      <point x="45" y="88"/>
      <point x="162" y="-27"/>
      <point x="391" y="-27" type="curve" smooth="yes"/>
      <point x="615" y="-27"/>
      <point x="738" y="87"/>
      <point x="738" y="331" type="curve" smooth="yes"/>
      <point x="738" y="883" type="line" smooth="yes"/>
      <point x="738" y="1121"/>
      <point x="618" y="1244"/>
    </contour>
  </outline>
  <guideline angle="90" x="1402" y="0"/>
</glyph>
<glyph name="Yelu.kn" format="2">
  <advance width="921"/>
  <unicode hex="0CED"/>
  <outline>
    <contour>
      <point x="398" y="1244" type="curve" smooth="yes"/>
      <point x="175" y="1244"/>
      <point x="61" y="1129"/>
      <point x="61" y="914" type="curve" smooth="yes"/>
      <point x="61" y="891" type="line" smooth="yes"/>
      <point x="61" y="824"/>
      <point x="76" y="750"/>
      <point x="98" y="708" type="curve"/>
      <point x="361" y="708" type="line"/>
      <point x="338" y="752"/>
      <point x="326" y="806"/>
      <point x="326" y="878" type="curve" smooth="yes"/>
      <point x="326" y="895" type="line" smooth="yes"/>
      <point x="326" y="958"/>
      <point x="350" y="984"/>
      <point x="393" y="984" type="curve" smooth="yes"/>
      <point x="437" y="984"/>
      <point x="459" y="957"/>
      <point x="459" y="895" type="curve" smooth="yes"/>
      <point x="459" y="886" type="line" smooth="yes"/>
      <point x="459" y="814"/>
      <point x="433" y="772"/>
      <point x="341" y="715" type="curve" smooth="yes"/>
      <point x="260" y="665" type="line" smooth="yes"/>
      <point x="105" y="569"/>
      <point x="37" y="462"/>
      <point x="37" y="317" type="curve" smooth="yes"/>
      <point x="37" y="303" type="line" smooth="yes"/>
      <point x="37" y="102"/>
      <point x="158" y="0"/>
      <point x="385" y="0" type="curve" smooth="yes"/>
      <point x="861" y="0" type="line"/>
      <point x="901" y="254" type="line"/>
      <point x="418" y="254" type="line" smooth="yes"/>
      <point x="365" y="254"/>
      <point x="337" y="279"/>
      <point x="337" y="328" type="curve" smooth="yes"/>
      <point x="337" y="333" type="line" smooth="yes"/>
      <point x="337" y="395"/>
      <point x="372" y="424"/>
      <point x="466" y="491" type="curve" smooth="yes"/>
      <point x="550" y="551" type="line" smooth="yes"/>
      <point x="677" y="641"/>
      <point x="736" y="748"/>
      <point x="736" y="884" type="curve" smooth="yes"/>
      <point x="736" y="902" type="line" smooth="yes"/>
      <point x="736" y="1127"/>
      <point x="621" y="1244"/>
    </contour>
  </outline>
</glyph>
<glyph name="Ombattu.kn" format="2">
  <advance width="867"/>
  <unicode hex="0CEF"/>
  <outline>
    <contour>
      <point x="350" y="839" type="line" smooth="yes"/>
      <point x="350" y="919"/>
      <point x="389" y="953"/>
      <point x="495" y="953" type="curve" smooth="yes"/>
      <point x="847" y="953" type="line"/>
      <point x="847" y="1207" type="line"/>
      <point x="421" y="1207" type="line" smooth="yes"/>
      <point x="165" y="1207"/>
      <point x="50" y="1099"/>
      <point x="50" y="876" type="curve" smooth="yes"/>
      <point x="50" y="863" type="line" smooth="yes"/>
      <point x="50" y="695.476"/>
      <point x="120.212" y="609.547"/>
      <point x="268" y="597.796" type="curve"/>
      <point x="268" y="590.265" type="line"/>
      <point x="122.06" y="579.289"/>
      <point x="50" y="491.415"/>
      <point x="50" y="322" type="curve" smooth="yes"/>
      <point x="50" y="309" type="line" smooth="yes"/>
      <point x="50" y="100"/>
      <point x="165" y="0"/>
      <point x="407" y="0" type="curve" smooth="yes"/>
      <point x="549" y="0" type="line"/>
      <point x="581" y="249" type="line"/>
      <point x="467" y="249" type="line" smooth="yes"/>
      <point x="385" y="249"/>
      <point x="350" y="283"/>
      <point x="350" y="357" type="curve" smooth="yes"/>
      <point x="350" y="361" type="line" smooth="yes"/>
      <point x="350" y="435"/>
      <point x="382" y="468"/>
      <point x="460" y="469" type="curve" smooth="yes"/>
      <point x="620" y="471" type="line"/>
      <point x="620" y="715" type="line"/>
      <point x="484" y="717" type="line" smooth="yes"/>
      <point x="387" y="718"/>
      <point x="350" y="751"/>
      <point x="350" y="832" type="curve" smooth="yes"/>
    </contour>
  </outline>
</glyph>
<glyph name="Jihvamuliya.kn" format="2">
  <advance width="948"/>
  <unicode hex="0CF1"/>
  <outline>
    <contour>
      <point x="57" y="1207" type="line"/>
      <point x="57" y="955" type="line"/>
      <point x="295" y="607" type="line"/>
      <point x="57" y="252" type="line"/>
      <point x="57" y="0" type="line"/>
      <point x="888" y="0" type="line"/>
      <point x="888" y="252" type="line"/>
      <point x="650" y="607" type="line"/>
      <point x="888" y="955" type="line"/>
      <point x="888" y="1207" type="line"/>
    </contour>
    <contour>
      <point x="359" y="973" type="line"/>
      <point x="586" y="973" type="line"/>
      <point x="473" y="793" type="line"/>
    </contour>
    <contour>
      <point x="358" y="234" type="line"/>
      <point x="473" y="427" type="line"/>
      <point x="587" y="234" type="line"/>
    </contour>
  </outline>
</glyph>
<glyph name="Upadhmaniya.kn" format="2">
  <advance width="1426"/>
  <unicode hex="0CF2"/>
  <outline>
    <contour>
      <point x="365" y="966" type="curve" smooth="yes"/>
      <point x="149" y="966"/>
      <point x="45" y="855"/>
      <point x="45" y="613" type="curve" smooth="yes"/>
      <point x="45" y="534" type="line" smooth="yes"/>
      <point x="45" y="292"/>
      <point x="149" y="181"/>
      <point x="365" y="181" type="curve" smooth="yes"/>
      <point x="581" y="181"/>
      <point x="685" y="292"/>
      <point x="685" y="534" type="curve" smooth="yes"/>
      <point x="685" y="613" type="line" smooth="yes"/>
      <point x="685" y="855"/>
      <point x="581" y="966"/>
    </contour>
    <contour>
      <point x="365" y="718" type="curve" smooth="yes"/>
      <point x="404" y="718"/>
      <point x="415" y="689"/>
      <point x="415" y="614" type="curve" smooth="yes"/>
      <point x="415" y="533" type="line" smooth="yes"/>
      <point x="415" y="458"/>
      <point x="404" y="429"/>
      <point x="365" y="429" type="curve" smooth="yes"/>
      <point x="326" y="429"/>
      <point x="315" y="458"/>
      <point x="315" y="533" type="curve" smooth="yes"/>
      <point x="315" y="614" type="line" smooth="yes"/>
      <point x="315" y="689"/>
      <point x="326" y="718"/>
    </contour>
    <contour>
      <point x="1061" y="966" type="curve" smooth="yes"/>
      <point x="845" y="966"/>
      <point x="741" y="855"/>
      <point x="741" y="613" type="curve" smooth="yes"/>
      <point x="741" y="534" type="line" smooth="yes"/>
      <point x="741" y="292"/>
      <point x="845" y="181"/>
      <point x="1061" y="181" type="curve" smooth="yes"/>
      <point x="1277" y="181"/>
      <point x="1381" y="292"/>
      <point x="1381" y="534" type="curve" smooth="yes"/>
      <point x="1381" y="613" type="line" smooth="yes"/>
      <point x="1381" y="855"/>
      <point x="1277" y="966"/>
    </contour>
    <contour>
      <point x="1061" y="718" type="curve" smooth="yes"/>
      <point x="1100" y="718"/>
      <point x="1111" y="689"/>
      <point x="1111" y="614" type="curve" smooth="yes"/>
      <point x="1111" y="533" type="line" smooth="yes"/>
      <point x="1111" y="458"/>
      <point x="1100" y="429"/>
      <point x="1061" y="429" type="curve" smooth="yes"/>
      <point x="1022" y="429"/>
      <point x="1011" y="458"/>
      <point x="1011" y="533" type="curve" smooth="yes"/>
      <point x="1011" y="614" type="line" smooth="yes"/>
      <point x="1011" y="689"/>
      <point x="1022" y="718"/>
    </contour>
  </outline>
</glyph>
<glyph name="Basmall1.kn" format="2">
  <outline>
    <contour>
      <point x="74" y="-107" type="curve" smooth="yes"/>
      <point x="52" y="-107"/>
      <point x="34" y="-109"/>
      <point x="17" y="-112" type="curve"/>
      <point x="17" y="-270" type="line"/>
      <point x="21" y="-270"/>
      <point x="22" y="-270"/>
      <point x="26" y="-270" type="curve" smooth="yes"/>
      <point x="52" y="-270"/>
      <point x="65" y="-282"/>
      <point x="65" y="-323" type="curve" smooth="yes"/>
      <point x="65" y="-558" type="line" smooth="yes"/>
      <point x="65" y="-591"/>
      <point x="55" y="-606"/>
      <point x="32" y="-606" type="curve" smooth="yes"/>
      <point x="10" y="-606"/>
      <point x="-0.621243" y="-593.972"/>
      <point x="-3" y="-564" type="curve" smooth="yes"/>
      <point x="-8" y="-501" type="line"/>
      <point x="-91" y="-501" type="line"/>
      <point x="-91" y="-653" type="line"/>
      <point x="-81" y="-730"/>
      <point x="-26" y="-770"/>
      <point x="76" y="-770" type="curve" smooth="yes"/>
      <point x="190" y="-770"/>
      <point x="251" y="-705"/>
      <point x="251" y="-576" type="curve" smooth="yes"/>
      <point x="251" y="-313" type="line" smooth="yes"/>
      <point x="251" y="-173"/>
      <point x="197" y="-107"/>
    </contour>
    <contour>
      <point x="-236" y="-97" type="curve" smooth="yes"/>
      <point x="-363" y="-97"/>
      <point x="-430" y="-156"/>
      <point x="-430" y="-270" type="curve"/>
      <point x="-430" y="-270"/>
      <point x="-430" y="-273"/>
      <point x="-430" y="-273" type="curve"/>
      <point x="-430" y="-309"/>
      <point x="-422" y="-348"/>
      <point x="-409" y="-371" type="curve"/>
      <point x="-250" y="-371" type="line"/>
      <point x="-261" y="-349"/>
      <point x="-268" y="-323"/>
      <point x="-268" y="-285" type="curve"/>
      <point x="-268" y="-285"/>
      <point x="-268" y="-279"/>
      <point x="-268" y="-279" type="curve"/>
      <point x="-268" y="-254"/>
      <point x="-258" y="-243"/>
      <point x="-239" y="-243" type="curve" smooth="yes"/>
      <point x="-220" y="-243"/>
      <point x="-211" y="-254"/>
      <point x="-211" y="-279" type="curve"/>
      <point x="-211" y="-281" type="line"/>
      <point x="-211" y="-316"/>
      <point x="-223" y="-337"/>
      <point x="-267" y="-364" type="curve" smooth="yes"/>
      <point x="-311" y="-391" type="line" smooth="yes"/>
      <point x="-395.929" y="-443.116"/>
      <point x="-439" y="-499"/>
      <point x="-439" y="-586" type="curve" smooth="yes"/>
      <point x="-439" y="-591" type="line" smooth="yes"/>
      <point x="-439" y="-708"/>
      <point x="-374" y="-770"/>
      <point x="-256" y="-770" type="curve" smooth="yes"/>
      <point x="-159" y="-770"/>
      <point x="-106" y="-729"/>
      <point x="-95" y="-653" type="curve"/>
      <point x="-79" y="-653" type="line"/>
      <point x="-84" y="-501" type="line"/>
      <point x="-177" y="-501" type="line"/>
      <point x="-182" y="-565" type="line" smooth="yes"/>
      <point x="-184.264" y="-593.981"/>
      <point x="-195" y="-607"/>
      <point x="-220" y="-607" type="curve" smooth="yes"/>
      <point x="-244" y="-607"/>
      <point x="-257" y="-595"/>
      <point x="-257" y="-572" type="curve"/>
      <point x="-257" y="-571" type="line"/>
      <point x="-257" y="-544"/>
      <point x="-242.154" y="-523.77"/>
      <point x="-196" y="-493" type="curve" smooth="yes"/>
      <point x="-142" y="-457" type="line" smooth="yes"/>
      <point x="-74.8458" y="-412.231"/>
      <point x="-43" y="-353"/>
      <point x="-43" y="-283" type="curve" smooth="yes"/>
      <point x="-43" y="-277" type="line" smooth="yes"/>
      <point x="-43" y="-159"/>
      <point x="-109" y="-97"/>
    </contour>
  </outline>
</glyph>
<glyph name="BhaHalant.kn" format="2">
  <advance width="1875"/>
  <outline>
    <component base="BaHalant.kn"/>
    <contour>
      <point x="620" y="-432" type="curve" smooth="yes"/>
      <point x="720" y="-432"/>
      <point x="770" y="-377"/>
      <point x="770" y="-269" type="curve" smooth="yes"/>
      <point x="770" y="-256" type="line" smooth="yes"/>
      <point x="770" y="-144"/>
      <point x="705" y="-44"/>
      <point x="620" y="38" type="curve"/>
      <point x="535" y="-44"/>
      <point x="470" y="-144"/>
      <point x="470" y="-256" type="curve" smooth="yes"/>
      <point x="470" y="-269" type="line" smooth="yes"/>
      <point x="470" y="-377"/>
      <point x="520" y="-432"/>
    </contour>
  </outline>
</glyph>
<glyph name="BhamatraAa.kn" format="2">
  <advance width="2031"/>
  <outline>
    <component base="BamatraAa.kn"/>
    <contour>
      <point x="620" y="-432" type="curve" smooth="yes"/>
      <point x="720" y="-432"/>
      <point x="770" y="-377"/>
      <point x="770" y="-269" type="curve" smooth="yes"/>
      <point x="770" y="-256" type="line" smooth="yes"/>
      <point x="770" y="-144"/>
      <point x="705" y="-44"/>
      <point x="620" y="38" type="curve"/>
      <point x="535" y="-44"/>
      <point x="470" y="-144"/>
      <point x="470" y="-256" type="curve" smooth="yes"/>
      <point x="470" y="-269" type="line" smooth="yes"/>
      <point x="470" y="-377"/>
      <point x="520" y="-432"/>
    </contour>
  </outline>
  <guideline angle="90" x="40" y="0"/>
</glyph>
<glyph name="BhamatraAu.kn" format="2">
  <advance width="1960"/>
  <outline>
    <component base="BamatraAu.kn"/>
    <contour>
      <point x="620" y="-432" type="curve" smooth="yes"/>
      <point x="720" y="-432"/>
      <point x="770" y="-377"/>
      <point x="770" y="-269" type="curve" smooth="yes"/>
      <point x="770" y="-256" type="line" smooth="yes"/>
      <point x="770" y="-144"/>
      <point x="705" y="-44"/>
      <point x="620" y="38" type="curve"/>
      <point x="535" y="-44"/>
      <point x="470" y="-144"/>
      <point x="470" y="-256" type="curve" smooth="yes"/>
      <point x="470" y="-269" type="line" smooth="yes"/>
      <point x="470" y="-377"/>
      <point x="520" y="-432"/>
    </contour>
  </outline>
</glyph>
<glyph name="BhamatraI.kn" format="2">
  <advance width="1307"/>
  <outline>
    <component base="BamatraI.kn"/>
    <contour>
      <point x="638" y="-432" type="curve" smooth="yes"/>
      <point x="738" y="-432"/>
      <point x="788" y="-377"/>
      <point x="788" y="-269" type="curve" smooth="yes"/>
      <point x="788" y="-256" type="line" smooth="yes"/>
      <point x="788" y="-144"/>
      <point x="723" y="-44"/>
      <point x="638" y="38" type="curve"/>
      <point x="553" y="-44"/>
      <point x="488" y="-144"/>
      <point x="488" y="-256" type="curve" smooth="yes"/>
      <point x="488" y="-269" type="line" smooth="yes"/>
      <point x="488" y="-377"/>
      <point x="538" y="-432"/>
    </contour>
  </outline>
  <guideline angle="90" x="40" y="0"/>
</glyph>
<glyph name="Bhasmall1.kn" format="2">
  <outline>
    <component base="Basmall1.kn"/>
    <contour>
      <point x="-93" y="-731" type="curve"/>
      <point x="-145" y="-774"/>
      <point x="-184" y="-828"/>
      <point x="-184" y="-891" type="curve" smooth="yes"/>
      <point x="-184" y="-898" type="line" smooth="yes"/>
      <point x="-184" y="-962"/>
      <point x="-154" y="-992"/>
      <point x="-93" y="-992" type="curve" smooth="yes"/>
      <point x="-32" y="-992"/>
      <point x="-2" y="-962"/>
      <point x="-2" y="-898" type="curve" smooth="yes"/>
      <point x="-2" y="-891" type="line" smooth="yes"/>
      <point x="-2" y="-828"/>
      <point x="-41" y="-774"/>
    </contour>
  </outline>
</glyph>
<glyph name="CamatraI.kn" format="2">
  <advance width="1291"/>
  <outline>
    <contour>
      <point x="1018" y="517" type="line"/>
      <point x="1079" y="505" type="line"/>
      <point x="1079" y="522" type="line"/>
      <point x="1251" y="518" type="line"/>
      <point x="1251" y="768" type="line"/>
      <point x="1099" y="764" type="line"/>
      <point x="965" y="769" type="line"/>
      <point x="737" y="769" type="line"/>
      <point x="737" y="517" type="line"/>
    </contour>
    <contour>
      <point x="1212" y="316" type="line" smooth="yes"/>
      <point x="1212" y="396"/>
      <point x="1182" y="495"/>
      <point x="1079" y="515" type="curve" smooth="yes"/>
      <point x="837" y="562" type="line"/>
      <point x="837" y="517" type="line"/>
      <point x="884" y="517"/>
      <point x="904" y="484"/>
      <point x="904" y="414" type="curve" smooth="yes"/>
      <point x="904" y="350" type="line" smooth="yes"/>
      <point x="904" y="292"/>
      <point x="882.643" y="264"/>
      <point x="839" y="264" type="curve" smooth="yes"/>
      <point x="797.125" y="264"/>
      <point x="774.948" y="291.008"/>
      <point x="772" y="348" type="curve" smooth="yes"/>
      <point x="766" y="464" type="line"/>
      <point x="624" y="464" type="line"/>
      <point x="633" y="192" type="line"/>
      <point x="650.695" y="47"/>
      <point x="748.017" y="-27"/>
      <point x="923" y="-27" type="curve" smooth="yes"/>
      <point x="1111.73" y="-27"/>
      <point x="1212" y="77"/>
      <point x="1212" y="283" type="curve" smooth="yes"/>
    </contour>
    <contour>
      <point x="381" y="1244" type="curve" smooth="yes"/>
      <point x="165" y="1244"/>
      <point x="54" y="1133"/>
      <point x="54" y="927" type="curve" smooth="yes"/>
      <point x="54" y="889" type="line" smooth="yes"/>
      <point x="54" y="823"/>
      <point x="68" y="749"/>
      <point x="89" y="708" type="curve"/>
      <point x="352" y="708" type="line"/>
      <point x="330" y="752"/>
      <point x="319" y="806"/>
      <point x="319" y="878" type="curve" smooth="yes"/>
      <point x="319" y="904" type="line" smooth="yes"/>
      <point x="319" y="961"/>
      <point x="339" y="984"/>
      <point x="376" y="984" type="curve" smooth="yes"/>
      <point x="413" y="984"/>
      <point x="432" y="960"/>
      <point x="432" y="904" type="curve" smooth="yes"/>
      <point x="432" y="886" type="line" smooth="yes"/>
      <point x="432" y="814"/>
      <point x="408.113" y="771.833"/>
      <point x="324" y="715" type="curve" smooth="yes"/>
      <point x="250" y="665" type="line" smooth="yes"/>
      <point x="109.125" y="569.814"/>
      <point x="40" y="465"/>
      <point x="40" y="321" type="curve" smooth="yes"/>
      <point x="40" y="314" type="line" smooth="yes"/>
      <point x="40" y="87"/>
      <point x="148.27" y="-27"/>
      <point x="353" y="-27" type="curve" smooth="yes"/>
      <point x="516.975" y="-27"/>
      <point x="607.308" y="47"/>
      <point x="624" y="192" type="curve"/>
      <point x="643" y="192" type="line"/>
      <point x="633" y="464" type="line"/>
      <point x="491" y="464" type="line"/>
      <point x="485" y="349" type="line" smooth="yes"/>
      <point x="481.974" y="291.011"/>
      <point x="456.923" y="264"/>
      <point x="412" y="264" type="curve" smooth="yes"/>
      <point x="363.377" y="264"/>
      <point x="340" y="288"/>
      <point x="340" y="338" type="curve" smooth="yes"/>
      <point x="340" y="343" type="line" smooth="yes"/>
      <point x="340" y="405"/>
      <point x="373.862" y="434.181"/>
      <point x="455" y="496" type="curve" smooth="yes"/>
      <point x="539" y="560" type="line" smooth="yes"/>
      <point x="653.069" y="646.91"/>
      <point x="709" y="755"/>
      <point x="709" y="884" type="curve" smooth="yes"/>
      <point x="709" y="914" type="line" smooth="yes"/>
      <point x="709" y="1131"/>
      <point x="597" y="1244"/>
    </contour>
    <contour>
      <point x="917" y="1471" type="curve" smooth="yes"/>
      <point x="716" y="1471"/>
      <point x="617" y="1368"/>
      <point x="617" y="1162" type="curve" smooth="yes"/>
      <point x="617" y="1132" type="line" smooth="yes"/>
      <point x="617" y="975"/>
      <point x="678" y="896"/>
      <point x="802" y="896" type="curve" smooth="yes"/>
      <point x="883" y="896"/>
      <point x="938" y="935"/>
      <point x="957" y="1003" type="curve"/>
      <point x="992" y="1003" type="line"/>
      <point x="986" y="1167" type="line"/>
      <point x="978" y="1109"/>
      <point x="955" y="1080"/>
      <point x="917" y="1080" type="curve" smooth="yes"/>
      <point x="886" y="1080"/>
      <point x="872" y="1098"/>
      <point x="872" y="1136" type="curve" smooth="yes"/>
      <point x="872" y="1169" type="line" smooth="yes"/>
      <point x="872" y="1223"/>
      <point x="886" y="1244"/>
      <point x="918" y="1244" type="curve" smooth="yes"/>
      <point x="951" y="1244"/>
      <point x="965" y="1223"/>
      <point x="965" y="1169" type="curve" smooth="yes"/>
      <point x="965" y="989" type="line" smooth="yes"/>
      <point x="965" y="841"/>
      <point x="905" y="769"/>
      <point x="783" y="769" type="curve"/>
      <point x="1059" y="707" type="line"/>
      <point x="1099" y="771" type="line"/>
      <point x="1194" y="809"/>
      <point x="1231" y="885"/>
      <point x="1231" y="1042" type="curve" smooth="yes"/>
      <point x="1231" y="1130" type="line" smooth="yes"/>
      <point x="1231" y="1360"/>
      <point x="1124" y="1471"/>
    </contour>
  </outline>
  <guideline angle="90" x="2539" y="0"/>
  <guideline angle="90" x="1278" y="0"/>
</glyph>
<glyph name="CamatraO.kn" format="2">
  <advance width="2458"/>
  <outline>
    <component base="CamatraE.kn"/>
    <contour>
      <point x="1260" y="254" type="curve" smooth="yes"/>
      <point x="1209" y="254"/>
      <point x="1187" y="286"/>
      <point x="1187" y="360" type="curve"/>
      <point x="1187" y="360"/>
      <point x="1187" y="366"/>
      <point x="1187" y="366" type="curve"/>
      <point x="1116" y="366" type="line"/>
      <point x="1116" y="322" type="line" smooth="yes"/>
      <point x="1116" y="91"/>
      <point x="1205" y="-27"/>
      <point x="1376" y="-27" type="curve" smooth="yes"/>
      <point x="1549" y="-27"/>
      <point x="1632" y="95"/>
      <point x="1632" y="337" type="curve" smooth="yes"/>
      <point x="1632" y="606" type="line"/>
      <point x="1331" y="611" type="line"/>
      <point x="1331" y="361" type="line" smooth="yes"/>
      <point x="1331" y="287"/>
      <point x="1312" y="254"/>
    </contour>
    <contour>
      <point x="1865" y="1244" type="curve" smooth="yes"/>
      <point x="1512" y="1244"/>
      <point x="1331" y="1059"/>
      <point x="1331" y="701" type="curve" smooth="yes"/>
      <point x="1331" y="579" type="line"/>
      <point x="1632" y="579" type="line"/>
      <point x="1632" y="696" type="line" smooth="yes"/>
      <point x="1632" y="883"/>
      <point x="1695" y="979"/>
      <point x="1864" y="979" type="curve" smooth="yes"/>
      <point x="2033" y="979"/>
      <point x="2096" y="880"/>
      <point x="2096" y="696" type="curve" smooth="yes"/>
      <point x="2096" y="529.304" type="line"/>
      <point x="2396" y="523.605" type="line"/>
      <point x="2396" y="701" type="line" smooth="yes"/>
      <point x="2396" y="1059"/>
      <point x="2214" y="1244"/>
    </contour>
    <contour>
      <point x="2396" y="533.605" type="line"/>
      <point x="2100.77" y="540.895" type="line"/>
      <point x="2101" y="313" type="line" smooth="yes"/>
      <point x="2101.06" y="253"/>
      <point x="2087" y="228"/>
      <point x="2052" y="228" type="curve" smooth="yes"/>
      <point x="2017" y="228"/>
      <point x="2003" y="253"/>
      <point x="2003" y="313" type="curve" smooth="yes"/>
      <point x="2003" y="443" type="line" smooth="yes"/>
      <point x="2003" y="486"/>
      <point x="2018" y="507"/>
      <point x="2050" y="507" type="curve" smooth="yes"/>
      <point x="2092" y="507"/>
      <point x="2118" y="474"/>
      <point x="2126" y="408" type="curve"/>
      <point x="2134" y="602" type="line"/>
      <point x="2088" y="602" type="line"/>
      <point x="2068" y="703"/>
      <point x="2013" y="753"/>
      <point x="1917" y="753" type="curve" smooth="yes"/>
      <point x="1780" y="753"/>
      <point x="1714" y="656"/>
      <point x="1714" y="461" type="curve" smooth="yes"/>
      <point x="1714" y="323" type="line" smooth="yes"/>
      <point x="1714" y="91"/>
      <point x="1826" y="-27"/>
      <point x="2050" y="-27" type="curve" smooth="yes"/>
      <point x="2277" y="-27"/>
      <point x="2396" y="98"/>
      <point x="2396" y="356" type="curve" smooth="yes"/>
    </contour>
  </outline>
</glyph>
<glyph name="CamatraU.kn" format="2">
  <advance width="1767"/>
  <outline>
    <component base="Ca.kn"/>
    <contour>
      <point x="1403" y="1222" type="curve" smooth="yes"/>
      <point x="1369" y="1222"/>
      <point x="1339" y="1220"/>
      <point x="1315" y="1217" type="curve"/>
      <point x="1315" y="929" type="line"/>
      <point x="1321" y="930"/>
      <point x="1329" y="931"/>
      <point x="1337" y="931" type="curve" smooth="yes"/>
      <point x="1371" y="931"/>
      <point x="1390" y="910"/>
      <point x="1390" y="838" type="curve" smooth="yes"/>
      <point x="1390" y="394" type="line" smooth="yes"/>
      <point x="1390" y="290"/>
      <point x="1361" y="244"/>
      <point x="1285" y="244" type="curve" smooth="yes"/>
      <point x="1216" y="244"/>
      <point x="1184" y="283"/>
      <point x="1184" y="369" type="curve"/>
      <point x="1113" y="369" type="line"/>
      <point x="1113" y="330" type="line" smooth="yes"/>
      <point x="1113" y="86"/>
      <point x="1212" y="-37"/>
      <point x="1405" y="-37" type="curve" smooth="yes"/>
      <point x="1605" y="-37"/>
      <point x="1700" y="99"/>
      <point x="1700" y="370" type="curve" smooth="yes"/>
      <point x="1700" y="840" type="line" smooth="yes"/>
      <point x="1700" y="1102"/>
      <point x="1607" y="1222"/>
    </contour>
  </outline>
  <guideline angle="0" x="0" y="1709"/>
  <guideline angle="90" x="1177" y="0"/>
  <guideline angle="90" x="2490" y="0"/>
  <guideline angle="90" x="2350" y="0"/>
  <guideline angle="90" x="1196" y="0"/>
  <guideline angle="0" x="0" y="998"/>
  <guideline angle="90" x="1196" y="0"/>
</glyph>
<glyph name="ChamatraI.kn" format="2">
  <advance width="1333"/>
  <outline>
    <contour>
      <point x="410" y="1244" type="curve" smooth="yes"/>
      <point x="183" y="1244"/>
      <point x="65" y="1119"/>
      <point x="65" y="860" type="curve" smooth="yes"/>
      <point x="65" y="678.61" type="line"/>
      <point x="360" y="703" type="line"/>
      <point x="360" y="900" type="line" smooth="yes"/>
      <point x="360" y="960"/>
      <point x="373" y="984"/>
      <point x="408" y="984" type="curve" smooth="yes"/>
      <point x="443" y="984"/>
      <point x="456" y="960"/>
      <point x="456" y="900" type="curve" smooth="yes"/>
      <point x="456" y="791" type="line" smooth="yes"/>
      <point x="456" y="748"/>
      <point x="442" y="728"/>
      <point x="410" y="728" type="curve" smooth="yes"/>
      <point x="368" y="728"/>
      <point x="343" y="760"/>
      <point x="335" y="825" type="curve"/>
      <point x="334" y="634" type="line"/>
      <point x="380" y="634" type="line"/>
      <point x="399" y="551"/>
      <point x="454" y="508"/>
      <point x="542" y="508" type="curve" smooth="yes"/>
      <point x="674" y="508"/>
      <point x="740" y="601"/>
      <point x="740" y="786" type="curve" smooth="yes"/>
      <point x="740" y="893" type="line" smooth="yes"/>
      <point x="740" y="1126"/>
      <point x="630" y="1244"/>
    </contour>
    <contour>
      <point x="1260" y="358" type="curve" smooth="yes"/>
      <point x="1260" y="721" type="line" smooth="yes"/>
      <point x="1260" y="890"/>
      <point x="1260" y="986"/>
      <point x="1260" y="1155" type="curve" smooth="yes"/>
      <point x="1260" y="1385"/>
      <point x="1151" y="1496"/>
      <point x="941" y="1496" type="curve" smooth="yes"/>
      <point x="733" y="1496"/>
      <point x="631" y="1392"/>
      <point x="631" y="1182" type="curve" smooth="yes"/>
      <point x="631" y="1147" type="line" smooth="yes"/>
      <point x="631" y="978"/>
      <point x="692" y="894"/>
      <point x="816" y="894" type="curve" smooth="yes"/>
      <point x="892" y="894"/>
      <point x="943" y="933"/>
      <point x="961" y="998" type="curve"/>
      <point x="996" y="998" type="line"/>
      <point x="1007" y="1182" type="line"/>
      <point x="999" y="1124"/>
      <point x="976" y="1095"/>
      <point x="938" y="1095" type="curve" smooth="yes"/>
      <point x="907" y="1095"/>
      <point x="893" y="1113"/>
      <point x="893" y="1151" type="curve" smooth="yes"/>
      <point x="893" y="1191" type="line" smooth="yes"/>
      <point x="893" y="1245"/>
      <point x="907" y="1266"/>
      <point x="939" y="1266" type="curve" smooth="yes"/>
      <point x="972" y="1266"/>
      <point x="986" y="1245"/>
      <point x="986" y="1191" type="curve" smooth="yes"/>
      <point x="986" y="1145"/>
      <point x="986" y="1120"/>
      <point x="986" y="1074" type="curve" smooth="yes"/>
      <point x="986" y="1064"/>
      <point x="989" y="1061"/>
      <point x="989" y="1050" type="curve"/>
      <point x="989" y="1048.15"/>
      <point x="989" y="1009.85"/>
      <point x="989" y="1008" type="curve"/>
      <point x="969" y="998" type="line"/>
      <point x="954" y="890"/>
      <point x="950" y="828"/>
      <point x="950" y="720" type="curve" smooth="yes"/>
      <point x="950" y="365" type="line" smooth="yes"/>
      <point x="950" y="294.5"/>
      <point x="926.35" y="264"/>
      <point x="879" y="264" type="curve" smooth="yes"/>
      <point x="833.35" y="264"/>
      <point x="811.05" y="293.5"/>
      <point x="807" y="362" type="curve" smooth="yes"/>
      <point x="801" y="464" type="line"/>
      <point x="524" y="464" type="line"/>
      <point x="518" y="363" type="line" smooth="yes"/>
      <point x="513.85" y="293.5"/>
      <point x="491.55" y="264"/>
      <point x="444" y="264" type="curve" smooth="yes"/>
      <point x="395.45" y="264"/>
      <point x="370" y="294.5"/>
      <point x="370" y="366" type="curve" smooth="yes"/>
      <point x="370" y="712.4" type="line"/>
      <point x="65" y="695.05" type="line"/>
      <point x="65" y="358" type="line" smooth="yes"/>
      <point x="65" y="95.8"/>
      <point x="167.25" y="-27"/>
      <point x="379" y="-27" type="curve" smooth="yes"/>
      <point x="546.985" y="-27"/>
      <point x="640.693" y="44.7743"/>
      <point x="657.788" y="185" type="curve"/>
      <point x="667.213" y="185" type="line"/>
      <point x="684.318" y="44.7743"/>
      <point x="778.171" y="-27"/>
      <point x="948" y="-27" type="curve" smooth="yes"/>
      <point x="1159.25" y="-27"/>
      <point x="1260" y="95.4"/>
    </contour>
    <contour>
      <point x="662" y="-432" type="curve" smooth="yes"/>
      <point x="762" y="-432"/>
      <point x="812" y="-377"/>
      <point x="812" y="-269" type="curve" smooth="yes"/>
      <point x="812" y="-256" type="line" smooth="yes"/>
      <point x="812" y="-144"/>
      <point x="747" y="-44"/>
      <point x="662" y="38" type="curve"/>
      <point x="577" y="-44"/>
      <point x="512" y="-144"/>
      <point x="512" y="-256" type="curve" smooth="yes"/>
      <point x="512" y="-269" type="line" smooth="yes"/>
      <point x="512" y="-377"/>
      <point x="562" y="-432"/>
    </contour>
  </outline>
</glyph>
<glyph name="Chasmall1.kn" format="2">
  <outline>
    <contour>
      <point x="-253" y="-369" type="line"/>
      <point x="-253" y="-289" type="line" smooth="yes"/>
      <point x="-253" y="-257"/>
      <point x="-246" y="-244"/>
      <point x="-227" y="-244" type="curve" smooth="yes"/>
      <point x="-208" y="-244"/>
      <point x="-201" y="-257"/>
      <point x="-201" y="-289" type="curve" smooth="yes"/>
      <point x="-201" y="-317" type="line" smooth="yes"/>
      <point x="-201" y="-338"/>
      <point x="-207" y="-349"/>
      <point x="-225" y="-349" type="curve" smooth="yes"/>
      <point x="-240" y="-349"/>
      <point x="-250" y="-340"/>
      <point x="-257" y="-325" type="curve"/>
      <point x="-258" y="-404" type="line"/>
      <point x="-241" y="-404" type="line"/>
      <point x="-231" y="-447"/>
      <point x="-197" y="-472"/>
      <point x="-144" y="-472" type="curve" smooth="yes"/>
      <point x="-71" y="-472"/>
      <point x="-32" y="-424"/>
      <point x="-32" y="-324" type="curve" smooth="yes"/>
      <point x="-32" y="-280" type="line" smooth="yes"/>
      <point x="-32" y="-158"/>
      <point x="-98" y="-97"/>
      <point x="-223" y="-97" type="curve" smooth="yes"/>
      <point x="-356" y="-97"/>
      <point x="-427" y="-164"/>
      <point x="-427" y="-309" type="curve" smooth="yes"/>
      <point x="-427" y="-404" type="line"/>
    </contour>
    <contour>
      <point x="-427" y="-392.914" type="line"/>
      <point x="-427" y="-566" type="line" smooth="yes"/>
      <point x="-427" y="-699"/>
      <point x="-364" y="-770"/>
      <point x="-240" y="-770" type="curve" smooth="yes"/>
      <point x="-147" y="-770"/>
      <point x="-97" y="-728"/>
      <point x="-86" y="-650" type="curve"/>
      <point x="-82" y="-650" type="line"/>
      <point x="-73" y="-728"/>
      <point x="-15" y="-770"/>
      <point x="87" y="-770" type="curve" smooth="yes"/>
      <point x="201" y="-770"/>
      <point x="261" y="-705"/>
      <point x="261" y="-576" type="curve" smooth="yes"/>
      <point x="261" y="-313" type="line" smooth="yes"/>
      <point x="261" y="-173"/>
      <point x="207" y="-107"/>
      <point x="84" y="-107" type="curve" smooth="yes"/>
      <point x="62" y="-107"/>
      <point x="44" y="-109"/>
      <point x="27" y="-112" type="curve"/>
      <point x="27" y="-270" type="line"/>
      <point x="31" y="-270"/>
      <point x="32" y="-270"/>
      <point x="36" y="-270" type="curve" smooth="yes"/>
      <point x="62" y="-270"/>
      <point x="75" y="-282"/>
      <point x="75" y="-323" type="curve" smooth="yes"/>
      <point x="75" y="-558" type="line" smooth="yes"/>
      <point x="75" y="-591"/>
      <point x="64" y="-606"/>
      <point x="40" y="-606" type="curve" smooth="yes"/>
      <point x="17" y="-606"/>
      <point x="6.10124" y="-589.993"/>
      <point x="4" y="-559" type="curve" smooth="yes"/>
      <point x="0" y="-500" type="line"/>
      <point x="-169" y="-500" type="line"/>
      <point x="-173" y="-559" type="line" smooth="yes"/>
      <point x="-175.236" y="-591.985"/>
      <point x="-185" y="-609"/>
      <point x="-209" y="-609" type="curve" smooth="yes"/>
      <point x="-232" y="-609"/>
      <point x="-245" y="-593"/>
      <point x="-245" y="-559" type="curve" smooth="yes"/>
      <point x="-245" y="-360.859" type="line"/>
    </contour>
    <contour>
      <point x="-84" y="-731" type="curve"/>
      <point x="-136" y="-774"/>
      <point x="-175" y="-828"/>
      <point x="-175" y="-891" type="curve" smooth="yes"/>
      <point x="-175" y="-898" type="line" smooth="yes"/>
      <point x="-175" y="-962"/>
      <point x="-145" y="-992"/>
      <point x="-84" y="-992" type="curve" smooth="yes"/>
      <point x="-23" y="-992"/>
      <point x="7" y="-962"/>
      <point x="7" y="-898" type="curve" smooth="yes"/>
      <point x="7" y="-891" type="line" smooth="yes"/>
      <point x="7" y="-828"/>
      <point x="-32" y="-774"/>
    </contour>
  </outline>
</glyph>
<glyph name="Dasmall1.kn" format="2">
  <outline>
    <contour>
      <point x="-195" y="-482" type="line"/>
      <point x="-200" y="-565" type="line" smooth="yes"/>
      <point x="-201.688" y="-593.021"/>
      <point x="-210" y="-606"/>
      <point x="-229" y="-606" type="curve" smooth="yes"/>
      <point x="-248" y="-606"/>
      <point x="-257" y="-594"/>
      <point x="-257" y="-564" type="curve" smooth="yes"/>
      <point x="-257" y="-433" type="line" smooth="yes"/>
      <point x="-257" y="-314"/>
      <point x="-210" y="-261"/>
      <point x="-111" y="-261" type="curve" smooth="yes"/>
      <point x="-12" y="-261"/>
      <point x="36" y="-314"/>
      <point x="36" y="-433" type="curve" smooth="yes"/>
      <point x="36" y="-564" type="line" smooth="yes"/>
      <point x="36" y="-594"/>
      <point x="27" y="-606"/>
      <point x="8" y="-606" type="curve" smooth="yes"/>
      <point x="-11" y="-606"/>
      <point x="-19.312" y="-593.021"/>
      <point x="-21" y="-565" type="curve" smooth="yes"/>
      <point x="-26" y="-482" type="line"/>
    </contour>
    <contour>
      <point x="-111" y="-97" type="curve" smooth="yes"/>
      <point x="-331" y="-97"/>
      <point x="-443" y="-210"/>
      <point x="-443" y="-438" type="curve" smooth="yes"/>
      <point x="-443" y="-566" type="line" smooth="yes"/>
      <point x="-443" y="-700"/>
      <point x="-381" y="-770"/>
      <point x="-263" y="-770" type="curve" smooth="yes"/>
      <point x="-173" y="-770"/>
      <point x="-124" y="-730"/>
      <point x="-113" y="-655" type="curve"/>
      <point x="-109" y="-655" type="line"/>
      <point x="-98" y="-730"/>
      <point x="-48" y="-770"/>
      <point x="42" y="-770" type="curve" smooth="yes"/>
      <point x="160" y="-770"/>
      <point x="222" y="-700"/>
      <point x="222" y="-566" type="curve" smooth="yes"/>
      <point x="222" y="-438" type="line" smooth="yes"/>
      <point x="222" y="-210"/>
      <point x="109" y="-97"/>
    </contour>
  </outline>
</glyph>
<glyph name="DdamatraAa.kn" format="2">
  <advance width="1999"/>
  <outline>
    <component base="matraAa.kn" xOffset="842"/>
    <contour>
      <point x="868" y="341" type="line" smooth="yes"/>
      <point x="868" y="288"/>
      <point x="850" y="264"/>
      <point x="815" y="264" type="curve" smooth="yes"/>
      <point x="781" y="264"/>
      <point x="763" y="286"/>
      <point x="760" y="336" type="curve" smooth="yes"/>
      <point x="753" y="460" type="line"/>
      <point x="479" y="460" type="line"/>
      <point x="472" y="333" type="line" smooth="yes"/>
      <point x="469" y="286"/>
      <point x="454" y="264"/>
      <point x="423" y="264" type="curve" smooth="yes"/>
      <point x="389" y="264"/>
      <point x="375" y="287"/>
      <point x="375" y="335" type="curve" smooth="yes"/>
      <point x="375" y="599" type="line" smooth="yes"/>
      <point x="375" y="854"/>
      <point x="443" y="955"/>
      <point x="610" y="955" type="curve"/>
      <point x="610" y="987" type="line"/>
      <point x="283" y="987" type="line"/>
      <point x="283" y="948" type="line"/>
      <point x="132" y="921"/>
      <point x="65" y="813"/>
      <point x="65" y="573" type="curve" smooth="yes"/>
      <point x="65" y="333" type="line" smooth="yes"/>
      <point x="65" y="88"/>
      <point x="156" y="-27"/>
      <point x="354" y="-27" type="curve" smooth="yes"/>
      <point x="509" y="-27"/>
      <point x="595" y="42"/>
      <point x="612" y="177" type="curve"/>
      <point x="620" y="177" type="line"/>
      <point x="636" y="42"/>
      <point x="723" y="-27"/>
      <point x="877" y="-27" type="curve" smooth="yes"/>
      <point x="1074" y="-27"/>
      <point x="1168" y="87"/>
      <point x="1168" y="330" type="curve" smooth="yes"/>
      <point x="1168" y="375" type="line" smooth="yes"/>
      <point x="1168" y="548"/>
      <point x="1099" y="635"/>
      <point x="962" y="644" type="curve"/>
      <point x="962" y="650" type="line"/>
      <point x="1066" y="655"/>
      <point x="1126" y="706"/>
      <point x="1126" y="797" type="curve" smooth="yes"/>
      <point x="1126" y="803" type="line" smooth="yes"/>
      <point x="1126" y="892"/>
      <point x="1072" y="940"/>
      <point x="952" y="949" type="curve"/>
      <point x="952" y="977" type="line"/>
      <point x="626" y="977" type="line"/>
      <point x="626" y="955" type="line"/>
      <point x="769" y="955"/>
      <point x="833" y="917"/>
      <point x="833" y="849" type="curve" smooth="yes"/>
      <point x="833" y="845" type="line" smooth="yes"/>
      <point x="833" y="795"/>
      <point x="811" y="767"/>
      <point x="750" y="764" type="curve" smooth="yes"/>
      <point x="703" y="762" type="line"/>
      <point x="703" y="520" type="line"/>
      <point x="774" y="517" type="line" smooth="yes"/>
      <point x="844" y="514"/>
      <point x="868" y="481"/>
      <point x="868" y="384" type="curve" smooth="yes"/>
    </contour>
    <contour>
      <point x="936" y="955" type="line"/>
      <point x="916" y="1207" type="line"/>
      <point x="68" y="1207" type="line"/>
      <point x="68" y="955" type="line"/>
    </contour>
    <contour>
      <point x="1126" y="955" type="line"/>
      <point x="1126" y="1207" type="line"/>
      <point x="668" y="1207" type="line"/>
      <point x="668" y="955" type="line"/>
    </contour>
  </outline>
</glyph>
<glyph name="DdamatraU.kn" format="2">
  <advance width="1717"/>
  <outline>
    <component base="Dda.kn"/>
    <contour>
      <point x="1353" y="1222" type="curve" smooth="yes"/>
      <point x="1319" y="1222"/>
      <point x="1289" y="1220"/>
      <point x="1265" y="1217" type="curve"/>
      <point x="1265" y="929" type="line"/>
      <point x="1271" y="930"/>
      <point x="1279" y="931"/>
      <point x="1287" y="931" type="curve" smooth="yes"/>
      <point x="1321" y="931"/>
      <point x="1340" y="910"/>
      <point x="1340" y="838" type="curve" smooth="yes"/>
      <point x="1340" y="379" type="line" smooth="yes"/>
      <point x="1340" y="292"/>
      <point x="1318" y="254"/>
      <point x="1255" y="254" type="curve" smooth="yes"/>
      <point x="1195" y="254"/>
      <point x="1168" y="291"/>
      <point x="1168" y="378" type="curve" smooth="yes"/>
      <point x="1168" y="381" type="line"/>
      <point x="1097" y="381" type="line"/>
      <point x="1097" y="340" type="line" smooth="yes"/>
      <point x="1097" y="96"/>
      <point x="1192" y="-27"/>
      <point x="1375" y="-27" type="curve" smooth="yes"/>
      <point x="1561" y="-27"/>
      <point x="1650" y="100"/>
      <point x="1650" y="355" type="curve" smooth="yes"/>
      <point x="1650" y="840" type="line" smooth="yes"/>
      <point x="1650" y="1102"/>
      <point x="1557" y="1222"/>
    </contour>
  </outline>
</glyph>
